<?xml version="1.0" encoding="utf-8"?>
<!-- Generator: Adobe Illustrator 25.4.1, SVG Export Plug-In . SVG Version: 6.00 Build 0)  -->
<svg version="1.1" id="Layer_1" xmlns="http://www.w3.org/2000/svg" xmlns:xlink="http://www.w3.org/1999/xlink" x="0px" y="0px"
	 viewBox="0 0 36.6 33.9" style="enable-background:new 0 0 36.6 33.9;" xml:space="preserve">
<style type="text/css">
	.st0{fill:#352B48;}
</style>
<path id="Path_183" class="st0" d="M9.8,31.4c-0.1,0.6-0.3,1.3-0.6,1.8c-0.6,0.6-0.9,0.6-1.8,0.6h-5c-0.6-0.1-1.3-0.3-1.8-0.6
	C0,33,0,32,0,31.4v-14c0-0.8,0.3-1.6,0.9-2.1l1.8-0.9C6.4,12.9,11.2,12,18,12c7,0,12.2,0.9,15.9,2.4c0.6,0.3,0.9,0.6,1.5,0.9
	c0.8,0.4,1.3,1.2,1.2,2.1v14c-0.1,0.6-0.3,1.3-0.6,1.8c-0.3,0.6-0.9,0.6-1.8,0.6h-4.9c-0.6-0.1-1.3-0.3-1.8-0.6
	c-0.6-0.3-0.6-0.9-0.6-1.8V29H9.8V31.4z M10.7,6.7C9,6.7,7.4,7,5.8,7.6c-1.5,0.9-2.7,1.5-3.4,2.7V4.9c0-0.8,0.3-1.5,1-1.8
	C6.4,0.9,11.3,0,18.3,0h4.3c1.9,0.1,3.7,0.4,5.5,0.9C29.9,1.3,31.7,2,33.3,3c0.5,0.5,0.9,1.1,0.9,1.8v5.5c-0.9-1.1-2-2-3.4-2.4
	C29.3,7.3,27.6,7,25.9,7c-1.5,0-2.9,0.3-4.3,0.9c-1.2,0.3-2.4,0.8-3.4,1.5c-1-0.7-2.2-1.4-3.4-1.8C13.6,7,12.2,6.7,10.7,6.7z"/>
</svg>
