<?xml version="1.0" encoding="utf-8"?>
<!-- Generator: Adobe Illustrator 25.4.1, SVG Export Plug-In . SVG Version: 6.00 Build 0)  -->
<svg version="1.1" id="Layer_1" xmlns="http://www.w3.org/2000/svg" xmlns:xlink="http://www.w3.org/1999/xlink" x="0px" y="0px"
	 viewBox="0 0 33.9 36.2" style="enable-background:new 0 0 33.9 36.2;" xml:space="preserve">
<style type="text/css">
	.st0{fill:#352B48;}
</style>
<g id="position-marker" transform="translate(-3 -1)">
	<path id="Path_10212" class="st0" d="M28.7,9.8C28.7,5,24.8,1,19.9,1s-8.8,3.9-8.8,8.8c0,4.2,2.9,7.7,7,8.6v12.4
		c0,0.6,0.8,1.2,1.8,1.2s1.8-0.5,1.8-1.2V18.3C25.8,17.5,28.7,13.9,28.7,9.8z"/>
	<path id="Path_10213" class="st0" d="M22.9,26.8V28c7.5,0.4,12.8,2.3,12.8,4c0,1.9-6.7,4.1-15.8,4.1S4.2,33.9,4.2,32
		c0-1.7,5.3-3.6,12.8-4v-1.2C9.8,27.2,3,28.9,3,32c0,3.4,8.7,5.3,16.9,5.3s16.9-1.8,16.9-5.3C36.9,28.9,30.1,27.2,22.9,26.8z"/>
</g>
</svg>
