<?xml version="1.0" encoding="utf-8"?>
<!-- Generator: Adobe Illustrator 25.4.1, SVG Export Plug-In . SVG Version: 6.00 Build 0)  -->
<svg version="1.1" id="Layer_1" xmlns="http://www.w3.org/2000/svg" xmlns:xlink="http://www.w3.org/1999/xlink" x="0px" y="0px"
	 viewBox="0 0 33.9 33.9" style="enable-background:new 0 0 33.9 33.9;" xml:space="preserve">
<style type="text/css">
	.st0{fill:#352B48;}
</style>
<g id="Group_1902" transform="translate(-212 -714)">
	<path id="Path_99" class="st0" d="M245.9,744.9l-7-7c2-2.6,3-5.7,3-8.9c0.1-8.2-6.5-14.9-14.7-14.9c-0.1,0-0.1,0-0.2,0
		c-8.2-0.1-14.9,6.5-14.9,14.7c0,0.1,0,0.1,0,0.2c-0.1,8.2,6.5,14.9,14.7,14.9c0.1,0,0.1,0,0.2,0c3.2,0,6.4-1,8.9-3l7,7L245.9,744.9
		z M216.3,728.9c-0.1-5.8,4.6-10.6,10.4-10.7c0.1,0,0.1,0,0.2,0c5.8-0.1,10.6,4.6,10.7,10.4c0,0.1,0,0.1,0,0.2
		c0.1,5.8-4.6,10.6-10.4,10.7c-0.1,0-0.1,0-0.2,0c-5.8,0.1-10.6-4.6-10.7-10.4C216.3,729.1,216.3,729,216.3,728.9z"/>
</g>
</svg>
