<svg xmlns="http://www.w3.org/2000/svg" viewBox="0 0 295.62 263.37"><defs><style>.cls-1{fill:#e1c7d5;}.cls-2{fill:#d2bec9;}.cls-3{fill:#c1aab9;}.cls-4{fill:#394874;}.cls-5{fill:#374274;}.cls-6{fill:#2b2b36;}.cls-7{fill:#415483;}.cls-8{fill:#212117;}.cls-9{fill:#f6f4c8;}.cls-10{fill:#ab3024;}.cls-11{fill:#0f2220;}.cls-12{fill:#d3c4b6;}.cls-13{fill:#fde8e8;}.cls-14{fill:#82567c;}.cls-15{fill:#7a668d;}.cls-16{fill:#63182d;}.cls-17{fill:#721c37;}.cls-18{fill:#2a2a5b;}.cls-19{fill:#221f46;}.cls-20{fill:#343436;}.cls-21{fill:#e2e2e1;}.cls-22{fill:#fff;}</style></defs><g id="Layer_2" data-name="Layer 2"><g id="Layer_1-2" data-name="Layer 1"><g id="klein_hotel" data-name="klein hotel"><g id="hotel"><path class="cls-1" d="M0,163.94,148.31,79.63l147.31,79.09L147.09,247.43Z"/><polygon class="cls-2" points="0 163.82 0 179.31 147.09 263.37 147.09 247.31 0 163.82"/><path class="cls-3" d="M147.09,247.31l148.53-88.72-.37,14L147.09,263.37Z"/></g><g id="zijkant"><path class="cls-4" d="M235.35,161.93q.19-39.7.38-79.41l25.64-14.74q0,31.07,0,62.12v17.15Z"/><path class="cls-5" d="M264.52,66q-.28,39.8-.59,79.59l-1.7,1,0-79.19Z"/><path class="cls-6" d="M261.37,67.78l.82-.44,0,79.19-.89.52Z"/><polygon class="cls-7" points="135.54 24.89 135.19 103.91 235.35 161.93 235.73 82.52 135.54 24.89"/></g><path class="cls-8" d="M221.08,82.53,221,101.72l9.73,5.36V87.36a12.36,12.36,0,0,0-5.14-3.94A12.19,12.19,0,0,0,221.08,82.53Z"/><polygon class="cls-9" points="223.45 99.94 223.45 84.64 229.66 88.24 229.66 103.41 223.45 99.94"/><polygon class="cls-10" points="222.23 83.95 222.23 101.03 229.66 105.44 229.66 103.41 223.45 99.94 223.45 84.64 222.23 83.95"/><path class="cls-11" d="M231.76,106.66l-1.07.42V87.36a12.58,12.58,0,0,0-3.86-3.3,12.72,12.72,0,0,0-5.75-1.53,12.32,12.32,0,0,1,10.68,4.68Z"/><g id="dak"><polygon class="cls-12" points="131.11 20.73 166.7 0 269.17 61.71 235.66 81.15 131.11 20.73"/><polygon class="cls-13" points="133.66 19.77 166.7 0 266.52 60.97 235.66 79.11 133.66 19.77"/><polygon class="cls-14" points="133.66 21.13 133.66 19.77 235.66 79.11 266.52 60.97 266.52 62.46 235.66 80.13 133.66 21.13"/><polygon class="cls-15" points="131.11 22.34 131.11 20.73 235.66 81.15 269.17 61.71 269.17 63.65 235.73 82.52 131.11 22.34"/></g><g id="raam"><path class="cls-8" d="M244.42,86.51a9.2,9.2,0,0,1,3.28-4.19A9.35,9.35,0,0,1,254,80.76V100l-9.65,5.47Z"/><polygon class="cls-9" points="245.57 86.7 245.57 102.06 251.56 98.45 251.56 83.31 245.57 86.7"/><polygon class="cls-10" points="245.57 103.54 252.99 99.12 252.99 82.68 251.56 83.31 251.56 98.45 245.57 102.06 245.57 103.54"/><path class="cls-11" d="M243.5,86.34l-.21,18.8,1.07.3.06-18.93a9,9,0,0,1,2-3.08,9.32,9.32,0,0,1,4.87-2.57,9.67,9.67,0,0,0-7.76,5.48Z"/></g><path class="cls-4" d="M185.26,109.59,217,93.33l-1.13,57.48-31.94,20.71Z"/><path class="cls-7" d="M185.26,109.59l-60.8-35-.93,63.74,60.4,33.22Q184.59,140.55,185.26,109.59Z"/><path class="cls-5" d="M124.46,74.56,156.6,59.84,217,93.33l-31.74,16.26Z"/><path class="cls-8" d="M140.64,35.07l-.11,19.18,9.73,5.37V39.89A12.36,12.36,0,0,0,145.12,36,12.18,12.18,0,0,0,140.64,35.07Z"/><polygon class="cls-9" points="143.02 52.47 143.02 37.17 149.22 40.77 149.22 55.94 143.02 52.47"/><polygon class="cls-10" points="141.79 36.48 141.79 53.56 149.22 57.97 149.22 55.94 143.02 52.47 143.02 37.17 141.79 36.48"/><path class="cls-11" d="M151.33,59.19l-1.07.43V39.89a12.43,12.43,0,0,0-9.62-4.82,12.29,12.29,0,0,1,10.69,4.67Z"/><g id="deur"><path class="cls-16" d="M148.13,151.41l-4.71-2.8V130.86l4.72,2.91Z"/><ellipse cx="147.25" cy="142.9" rx="0.23" ry="0.38"/><path class="cls-17" d="M154.35,155.25l-6.21-3.74V133.77l6.54,3.5Z"/><ellipse cx="149" cy="143.52" rx="0.23" ry="0.38"/><g id="frame"><path class="cls-18" d="M142.5,148.66v-17.8h.92v17.75l11.49,6.2-.56.44Z"/><path class="cls-19" d="M142.5,130.86l11.55,6.93.63-.52-11.26-6.41Z"/><path class="cls-19" d="M154,137.35q.15,8.94.31,17.9l.56-.44q-.12-8.76-.23-17.54Z"/></g></g><g id="raam-2" data-name="raam"><path class="cls-8" d="M129.9,95.79,129.79,115l9.72,5.36V100.61a12.3,12.3,0,0,0-5.14-3.94A12.1,12.1,0,0,0,129.9,95.79Z"/><polygon class="cls-9" points="132.28 113.19 132.28 97.89 138.48 101.5 138.48 116.66 132.28 113.19"/><polygon class="cls-10" points="131.05 97.21 131.05 114.29 138.48 118.69 138.48 116.66 132.28 113.19 132.28 97.89 131.05 97.21"/><path class="cls-11" d="M140.59,119.92l-1.08.42V100.61a12.39,12.39,0,0,0-9.61-4.82,12.29,12.29,0,0,1,10.69,4.67Z"/></g><g id="raam-3" data-name="raam"><path class="cls-8" d="M164.08,114.9,164,134.08l9.73,5.36V119.72a12.36,12.36,0,0,0-5.14-3.94A11.93,11.93,0,0,0,164.08,114.9Z"/><polygon class="cls-9" points="166.45 132.3 166.45 117 172.66 120.6 172.66 135.77 166.45 132.3"/><polygon class="cls-10" points="165.23 116.31 165.23 133.39 172.66 137.8 172.66 135.77 166.45 132.3 166.45 117 165.23 116.31"/><path class="cls-11" d="M174.76,139l-1.07.42V119.72a12.39,12.39,0,0,0-9.61-4.82,12.28,12.28,0,0,1,10.68,4.67Z"/></g><g id="raam-4" data-name="raam"><path class="cls-8" d="M220.21,123.51l-.12,19.19,9.73,5.36V128.34a12.36,12.36,0,0,0-5.14-3.94A12.19,12.19,0,0,0,220.21,123.51Z"/><polygon class="cls-9" points="222.58 140.92 222.58 125.62 228.79 129.22 228.79 144.38 222.58 140.92"/><polygon class="cls-10" points="221.36 124.93 221.36 142.01 228.79 146.41 228.79 144.38 222.58 140.92 222.58 125.62 221.36 124.93"/><path class="cls-11" d="M230.89,147.64l-1.07.42V128.34a12.43,12.43,0,0,0-9.61-4.83,12.28,12.28,0,0,1,10.68,4.67Z"/></g><g id="raam-5" data-name="raam"><path class="cls-8" d="M245,125.86a9.1,9.1,0,0,1,9.6-5.74v19.2L245,144.79Q245,135.32,245,125.86Z"/><polygon class="cls-9" points="246.2 126.06 246.2 141.42 252.18 137.8 252.18 122.66 246.2 126.06"/><polygon class="cls-10" points="246.2 142.9 253.61 138.47 253.61 122.04 252.18 122.66 252.18 137.8 246.2 141.42 246.2 142.9"/><path class="cls-11" d="M244.12,125.69l-.2,18.8,1.07.3,0-18.93a9.11,9.11,0,0,1,2-3.07,9.26,9.26,0,0,1,4.86-2.58,9.71,9.71,0,0,0-4.56,1.71A9.86,9.86,0,0,0,244.12,125.69Z"/></g><g id="dak-2" data-name="dak"><path class="cls-15" d="M219.15,94l-34,19.52L121.91,75.88v1.18l63.24,37.84,34-19.15Z"/><path class="cls-12" d="M219.15,94,155.4,59.13,121.91,75.88l63.22,37.66Z"/><path class="cls-14" d="M216.29,92.46V94l-31.11,17.81-61-35.72c0-.57,0-1.15,0-1.72l61.08,36.25Z"/><path class="cls-13" d="M124.15,74.39,155.4,59.13l60.89,33.33-31.06,18.18Z"/></g><g id="weg"><path id="weg-2" data-name="weg" class="cls-20" d="M50.37,135.3,0,163.94l147.09,83.49,51.27-30.63Z"/><path id="stoep" class="cls-21" d="M50.37,135.3l148,81.5L231,197.51,84.2,116.07Z"/><g id="webstrepen"><path class="cls-22" d="M19.46,164.13l3.19-1.82,10.92,6.36-2.78,1.89Z"/><path class="cls-22" d="M50.37,181.62l3.19-1.82,10.92,6.36-2.78,1.89Z"/><path class="cls-22" d="M83.25,200.32l3.19-1.82,10.92,6.37-2.78,1.88Z"/><path class="cls-22" d="M115.39,218.61l3.2-1.81,10.91,6.36-2.78,1.89Z"/><path class="cls-22" d="M147.57,237.43l3.19-1.82,8.18,4.77-3,1.8Z"/></g></g></g></g></g></svg>