<svg xmlns="http://www.w3.org/2000/svg" viewBox="0 0 295.62 349.61"><defs><style>.cls-1{fill:#e1c7d5;}.cls-2{fill:#d2bec9;}.cls-3{fill:#c1aab9;}.cls-4{fill:#394874;}.cls-5{fill:#374274;}.cls-6{fill:#2b2b36;}.cls-7{fill:#415483;}.cls-8{fill:#212117;}.cls-9{fill:#f6f4c8;}.cls-10{fill:#ab3024;}.cls-11{fill:#0f2220;}.cls-12{fill:#d3c4b6;}.cls-13{fill:#fde8e8;}.cls-14{fill:#82567c;}.cls-15{fill:#7a668d;}.cls-16{fill:#63182d;}.cls-17{fill:#721c37;}.cls-18{fill:#2a2a5b;}.cls-19{fill:#221f46;}.cls-20{fill:#343436;}.cls-21{fill:#e2e2e1;}.cls-22{fill:#fff;}.cls-23{fill:#756e65;}.cls-24{fill:#e5ab78;}.cls-25{fill:#886648;}.cls-26{fill:#8e6041;}.cls-27{fill:#775135;}</style></defs><g id="Layer_2" data-name="Layer 2"><g id="Layer_1-2" data-name="Layer 1"><g id="hotel"><g id="hotel-2" data-name="hotel"><path class="cls-1" d="M0,250.18l148.31-84.31L295.62,245,147.09,333.67Z"/><polygon class="cls-2" points="0 250.06 0 265.55 147.09 349.61 147.09 333.55 0 250.06"/><path class="cls-3" d="M147.09,333.54l148.53-88.71-.37,14L147.09,349.61Z"/></g><g id="zijkant"><path class="cls-4" d="M235.35,248.17q.19-39.71.38-79.41L261.37,154q0,31,0,62.12v17.15Z"/><path class="cls-5" d="M264.52,152.19q-.28,39.8-.59,79.59l-1.7,1,0-79.19Z"/><path class="cls-6" d="M261.37,154l.82-.44,0,79.19-.89.52Z"/><polygon class="cls-7" points="135.54 111.13 135.19 190.15 235.35 248.17 235.73 168.76 135.54 111.13"/></g><g id="raam"><path class="cls-8" d="M221.08,168.77,221,188l9.73,5.36V173.6a12.36,12.36,0,0,0-5.14-3.94A12.19,12.19,0,0,0,221.08,168.77Z"/><polygon class="cls-9" points="223.45 186.18 223.45 170.88 229.66 174.48 229.66 189.65 223.45 186.18"/><polygon class="cls-10" points="222.23 170.19 222.23 187.27 229.66 191.68 229.66 189.65 223.45 186.18 223.45 170.88 222.23 170.19"/><path class="cls-11" d="M231.76,192.9l-1.07.42V173.6a12.58,12.58,0,0,0-3.86-3.3,12.72,12.72,0,0,0-5.75-1.53,12.26,12.26,0,0,1,10.68,4.68Z"/></g><g id="dak"><polygon class="cls-12" points="131.11 106.97 166.7 86.24 269.17 147.95 235.66 167.39 131.11 106.97"/><polygon class="cls-13" points="133.66 106.01 166.7 86.24 266.52 147.21 235.66 165.35 133.66 106.01"/><polygon class="cls-14" points="133.66 107.37 133.66 106.01 235.66 165.35 266.52 147.21 266.52 148.7 235.66 166.37 133.66 107.37"/><polygon class="cls-15" points="131.11 108.58 131.11 106.97 235.66 167.39 269.17 147.95 269.17 149.88 235.73 168.76 131.11 108.58"/></g><g id="raam-2" data-name="raam"><path class="cls-8" d="M244.42,172.74a9.24,9.24,0,0,1,3.28-4.18A9.35,9.35,0,0,1,254,167v19.2l-9.65,5.48Z"/><polygon class="cls-9" points="245.57 172.94 245.57 188.3 251.56 184.69 251.56 169.54 245.57 172.94"/><polygon class="cls-10" points="245.57 189.78 252.99 185.36 252.99 168.92 251.56 169.54 251.56 184.69 245.57 188.3 245.57 189.78"/><path class="cls-11" d="M243.5,172.57l-.21,18.81,1.07.3.06-18.94a9,9,0,0,1,2-3.07,9.32,9.32,0,0,1,4.87-2.57,9.68,9.68,0,0,0-7.76,5.47Z"/></g><g id="voorkant"><path class="cls-4" d="M185.26,195.83,217,179.57l-1.13,57.48-31.94,20.71Z"/><path class="cls-7" d="M185.26,195.83l-60.8-35-.93,63.73,60.4,33.23Q184.59,226.79,185.26,195.83Z"/><path class="cls-5" d="M124.46,160.8l32.14-14.72L217,179.57l-31.74,16.26Z"/></g><g id="raam-3" data-name="raam"><path class="cls-8" d="M140.64,121.31l-.11,19.18,9.73,5.36V126.13a12.36,12.36,0,0,0-5.14-3.94A12,12,0,0,0,140.64,121.31Z"/><polygon class="cls-9" points="143.02 138.71 143.02 123.41 149.22 127.01 149.22 142.18 143.02 138.71"/><polygon class="cls-10" points="141.79 122.72 141.79 139.8 149.22 144.21 149.22 142.18 143.02 138.71 143.02 123.41 141.79 122.72"/><path class="cls-11" d="M151.33,145.43l-1.07.42V126.13a12.43,12.43,0,0,0-9.62-4.82A12.29,12.29,0,0,1,151.33,126Z"/></g><g id="deur"><path class="cls-16" d="M148.13,237.65l-4.71-2.8V217.1l4.72,2.9Z"/><ellipse cx="147.25" cy="229.14" rx="0.23" ry="0.38"/><path class="cls-17" d="M154.35,241.49l-6.21-3.74V220l6.54,3.51Z"/><ellipse cx="149" cy="229.76" rx="0.23" ry="0.38"/><g id="frame"><path class="cls-18" d="M142.5,234.9V217.1h.92v17.75l11.49,6.2-.56.44Z"/><path class="cls-19" d="M142.5,217.1,154.05,224l.63-.51-11.26-6.41Z"/><path class="cls-19" d="M154,223.59q.15,8.94.31,17.9l.56-.44q-.12-8.76-.23-17.54Z"/></g></g><g id="raam-4" data-name="raam"><path class="cls-8" d="M129.9,182l-.11,19.18,9.72,5.37V186.85a12.3,12.3,0,0,0-5.14-3.94A12.1,12.1,0,0,0,129.9,182Z"/><polygon class="cls-9" points="132.28 199.43 132.28 184.13 138.48 187.73 138.48 202.9 132.28 199.43"/><polygon class="cls-10" points="131.05 183.44 131.05 200.53 138.48 204.93 138.48 202.9 132.28 199.43 132.28 184.13 131.05 183.44"/><path class="cls-11" d="M140.59,206.15l-1.08.43V186.85A12.39,12.39,0,0,0,129.9,182a12.29,12.29,0,0,1,10.69,4.67Z"/></g><g id="raam-5" data-name="raam"><path class="cls-8" d="M164.08,201.13,164,220.32l9.73,5.36V206a12.36,12.36,0,0,0-5.14-3.94A12.19,12.19,0,0,0,164.08,201.13Z"/><polygon class="cls-9" points="166.45 218.54 166.45 203.24 172.66 206.84 172.66 222.01 166.45 218.54"/><polygon class="cls-10" points="165.23 202.55 165.23 219.63 172.66 224.04 172.66 222.01 166.45 218.54 166.45 203.24 165.23 202.55"/><path class="cls-11" d="M174.76,225.26l-1.07.42V206a12.43,12.43,0,0,0-9.61-4.83,12.32,12.32,0,0,1,10.68,4.68Z"/></g><g id="raam-6" data-name="raam"><path class="cls-8" d="M220.21,209.75l-.12,19.19,9.73,5.36V214.58a12.36,12.36,0,0,0-5.14-3.94A12.19,12.19,0,0,0,220.21,209.75Z"/><polygon class="cls-9" points="222.58 227.16 222.58 211.86 228.79 215.46 228.79 230.62 222.58 227.16"/><polygon class="cls-10" points="221.36 211.17 221.36 228.25 228.79 232.65 228.79 230.62 222.58 227.16 222.58 211.86 221.36 211.17"/><path class="cls-11" d="M230.89,233.88l-1.07.42V214.58a12.58,12.58,0,0,0-3.86-3.3,12.43,12.43,0,0,0-5.75-1.53,12.28,12.28,0,0,1,10.68,4.67Z"/></g><g id="raam-7" data-name="raam"><path class="cls-8" d="M245,212.1a9.1,9.1,0,0,1,9.6-5.74v19.2L245,231Q245,221.57,245,212.1Z"/><polygon class="cls-9" points="246.2 212.3 246.2 227.66 252.18 224.04 252.18 208.9 246.2 212.3"/><polygon class="cls-10" points="246.2 229.13 253.61 224.71 253.61 208.28 252.18 208.9 252.18 224.04 246.2 227.66 246.2 229.13"/><path class="cls-11" d="M244.12,211.93l-.2,18.8,1.07.3,0-18.93a9.11,9.11,0,0,1,2-3.07,9.26,9.26,0,0,1,4.86-2.58,9.71,9.71,0,0,0-4.56,1.71A9.86,9.86,0,0,0,244.12,211.93Z"/></g><g id="dak-2" data-name="dak"><path class="cls-15" d="M217.6,181.09l-32.47,18.69-63.22-37.66v1.18l63.24,37.83,32.46-18.28Z"/><path class="cls-12" d="M217.6,181.09l-62.2-35.72-33.49,16.75,63.22,37.66Z"/><path class="cls-14" d="M216.29,178.7v1.56l-31.11,17.81-61-35.72c0-.57,0-1.15,0-1.72l61.08,36.24Z"/><path class="cls-13" d="M124.15,160.63l31.25-15.26,60.89,33.33-31.06,18.17Z"/></g><g id="weg"><path id="weg-2" data-name="weg" class="cls-20" d="M50.37,221.54,0,250.18l147.09,83.49L198.36,303Z"/><path id="stoep" class="cls-21" d="M50.37,221.54l148,81.5L231,283.75,84.2,202.31Z"/><g id="webstrepen"><path class="cls-22" d="M19.46,250.36l3.19-1.81,10.92,6.36-2.78,1.89Z"/><path class="cls-22" d="M50.37,267.86,53.56,266l10.92,6.36-2.78,1.89Z"/><path class="cls-22" d="M83.25,286.56l3.19-1.82,10.92,6.36L94.58,293Z"/><path class="cls-22" d="M115.39,304.85l3.2-1.81,10.91,6.36-2.78,1.89Z"/><path class="cls-22" d="M147.57,323.67l3.19-1.82,8.18,4.77-3,1.8Z"/></g></g><g id="zijkant-2" data-name="zijkant"><path class="cls-4" d="M236,162.12q.19-39.7.38-79.41L262,68l0,62.13v17.15Z"/><path class="cls-5" d="M265.14,66.13l-.6,79.6-1.69,1-.05-79.2Z"/><path class="cls-6" d="M262,68l.81-.44.05,79.2-.9.52Q262,107.6,262,68Z"/><polygon class="cls-7" points="136.16 25.07 135.8 104.09 235.96 162.12 236.34 82.71 136.16 25.07"/></g><g id="dak-3" data-name="dak"><polygon class="cls-12" points="131.44 28.02 167.03 7.29 269.49 69 235.99 88.44 131.44 28.02"/><polygon class="cls-13" points="133.99 27.06 167.03 7.29 266.85 68.26 235.99 86.41 133.99 27.06"/><polygon class="cls-14" points="133.99 28.42 133.99 27.06 235.99 86.41 266.85 68.26 266.85 69.75 235.99 87.42 133.99 28.42"/><polygon class="cls-15" points="131.44 29.63 131.44 28.02 235.99 88.44 269.49 69 269.49 70.94 236.06 89.81 131.44 29.63"/></g><g id="raam-8" data-name="raam"><path class="cls-8" d="M245.26,92a9.1,9.1,0,0,1,9.6-5.74v19.2L245.21,111Q245.24,101.51,245.26,92Z"/><polygon class="cls-9" points="246.42 92.24 246.42 107.6 252.4 103.98 252.4 88.84 246.42 92.24"/><polygon class="cls-10" points="246.42 109.08 253.83 104.66 253.83 88.22 252.4 88.84 252.4 103.98 246.42 107.6 246.42 109.08"/><path class="cls-11" d="M244.35,91.87l-.21,18.8,1.07.3,0-18.93a9.27,9.27,0,0,1,2-3.07,9.46,9.46,0,0,1,4.86-2.58,10,10,0,0,0-4.56,1.71A9.71,9.71,0,0,0,244.35,91.87Z"/></g><g id="raam-9" data-name="raam"><path class="cls-8" d="M245.89,131.4a9.14,9.14,0,0,1,3.28-4.18,9.4,9.4,0,0,1,6.32-1.57v19.21l-9.65,5.47Q245.86,140.87,245.89,131.4Z"/><polygon class="cls-9" points="247.04 131.59 247.04 146.96 253.03 143.34 253.03 128.2 247.04 131.59"/><polygon class="cls-10" points="247.04 148.43 254.46 144.01 254.46 127.58 253.03 128.2 253.03 143.34 247.04 146.96 247.04 148.43"/><path class="cls-11" d="M245,131.23l-.2,18.8,1.07.3,0-18.93a9.21,9.21,0,0,1,2-3.07,9.32,9.32,0,0,1,4.87-2.58,9.68,9.68,0,0,0-4.56,1.71A9.79,9.79,0,0,0,245,131.23Z"/></g><g id="raam-10" data-name="raam"><path class="cls-8" d="M218.31,85.82,218.2,105l9.72,5.36V90.64a12.22,12.22,0,0,0-5.14-3.94A11.9,11.9,0,0,0,218.31,85.82Z"/><polygon class="cls-9" points="220.69 103.22 220.69 87.92 226.89 91.52 226.89 106.69 220.69 103.22"/><polygon class="cls-10" points="219.46 87.23 219.46 104.31 226.89 108.72 226.89 106.69 220.69 103.22 220.69 87.92 219.46 87.23"/><path class="cls-11" d="M229,109.94l-1.08.42V90.64a12.34,12.34,0,0,0-3.86-3.3,12.49,12.49,0,0,0-5.75-1.52A12.29,12.29,0,0,1,229,90.49Z"/></g><g id="raam-11" data-name="raam"><path class="cls-8" d="M217.38,125.84,217.27,145l9.73,5.36V130.66a12.36,12.36,0,0,0-5.14-3.94A12,12,0,0,0,217.38,125.84Z"/><polygon class="cls-9" points="219.76 143.24 219.76 127.94 225.96 131.54 225.96 146.71 219.76 143.24"/><polygon class="cls-10" points="218.53 127.25 218.53 144.33 225.96 148.74 225.96 146.71 219.76 143.24 219.76 127.94 218.53 127.25"/><path class="cls-11" d="M228.07,150l-1.07.42V130.66a12.43,12.43,0,0,0-9.62-4.82,12.29,12.29,0,0,1,10.69,4.67Z"/></g><g id="raam-12" data-name="raam"><path class="cls-8" d="M194.64,75.17l-.11,19.18,9.72,5.37V80a12.3,12.3,0,0,0-5.14-3.94A12.1,12.1,0,0,0,194.64,75.17Z"/><polygon class="cls-9" points="197.02 92.57 197.02 77.28 203.22 80.88 203.22 96.04 197.02 92.57"/><polygon class="cls-10" points="195.79 76.58 195.79 93.67 203.22 98.07 203.22 96.04 197.02 92.57 197.02 77.28 195.79 76.58"/><path class="cls-11" d="M205.33,99.3l-1.08.42V80a12.39,12.39,0,0,0-9.61-4.82,12.29,12.29,0,0,1,10.69,4.67Z"/></g><g id="raam-13" data-name="raam"><path class="cls-8" d="M171.22,61.72l-.11,19.18,9.72,5.37V66.54a12.3,12.3,0,0,0-5.14-3.94A12.1,12.1,0,0,0,171.22,61.72Z"/><polygon class="cls-9" points="173.6 79.12 173.6 63.83 179.8 67.42 179.8 82.59 173.6 79.12"/><polygon class="cls-10" points="172.37 63.13 172.37 80.22 179.8 84.62 179.8 82.59 173.6 79.12 173.6 63.83 172.37 63.13"/><path class="cls-11" d="M181.91,85.84l-1.08.43V66.54a12.39,12.39,0,0,0-9.61-4.82,12.29,12.29,0,0,1,10.69,4.67Z"/></g><g id="raam-14" data-name="raam"><path class="cls-8" d="M169.48,98.87l-.12,19.19,9.73,5.36V103.7A12.36,12.36,0,0,0,174,99.76,12.19,12.19,0,0,0,169.48,98.87Z"/><polygon class="cls-9" points="171.85 116.28 171.85 100.98 178.06 104.58 178.06 119.74 171.85 116.28"/><polygon class="cls-10" points="170.63 100.29 170.63 117.37 178.06 121.77 178.06 119.74 171.85 116.28 171.85 100.98 170.63 100.29"/><path class="cls-11" d="M180.16,123l-1.07.42V103.7a12.58,12.58,0,0,0-3.86-3.3,12.43,12.43,0,0,0-5.75-1.53,12.28,12.28,0,0,1,10.68,4.67Z"/></g><g id="raam-15" data-name="raam"><path class="cls-8" d="M147.3,48.46l-.12,19.19L156.91,73V53.29a12.36,12.36,0,0,0-5.14-3.94A12.19,12.19,0,0,0,147.3,48.46Z"/><polygon class="cls-9" points="149.67 65.87 149.67 50.57 155.88 54.17 155.88 69.34 149.67 65.87"/><polygon class="cls-10" points="148.44 49.88 148.44 66.96 155.88 71.36 155.88 69.34 149.67 65.87 149.67 50.57 148.44 49.88"/><path class="cls-11" d="M158,72.59l-1.07.42V53.29A12.52,12.52,0,0,0,153,50a12.66,12.66,0,0,0-5.74-1.53A12.26,12.26,0,0,1,158,53.14Z"/></g><g id="raam-16" data-name="raam"><path class="cls-8" d="M145.7,86.35l-.12,19.19,9.73,5.36V91.18a12.18,12.18,0,0,0-9.61-4.83Z"/><polygon class="cls-9" points="148.07 103.76 148.07 88.46 154.28 92.06 154.28 107.22 148.07 103.76"/><polygon class="cls-10" points="146.85 87.77 146.85 104.85 154.28 109.25 154.28 107.22 148.07 103.76 148.07 88.46 146.85 87.77"/><path class="cls-11" d="M156.38,110.48l-1.07.42V91.18a12.46,12.46,0,0,0-3.86-3.3,12.69,12.69,0,0,0-5.75-1.53A12.28,12.28,0,0,1,156.38,91Z"/></g><path class="cls-23" d="M137.12,26.57a40,40,0,0,0,12.39-9.5,39.57,39.57,0,0,0,4.17-5.76l78.94,45,12.8-7.82a52.14,52.14,0,0,0,5.49,8.6,52.41,52.41,0,0,0,11.18,10.53l-25.57,15.9Z"/><path class="cls-24" d="M167.42,0,246.6,46.39l-13.78,8.54L153.2,9.46Z"/><path class="cls-25" d="M246.6,46.39v1.54l-14,8.39L153.2,11.05V9.46l79.62,45.47Z"/><g id="voorkant-2" data-name="voorkant"><path class="cls-4" d="M184,142.82l28-15.11q-.18,24.24-.34,48.46l-28.73,17.55Q183.48,168.28,184,142.82Z"/><path class="cls-7" d="M184,142.82l-51.75-29.94q-.33,25.34-.65,50.68l51.31,30.16Q183.48,168.28,184,142.82Z"/><path class="cls-5" d="M132.28,112.88l27.93-13.49L212,127.71l-28,15.11Z"/></g><g id="dak-4" data-name="dak"><path class="cls-15" d="M220.21,133.67,184.69,154l-60.43-35.7-.13,1.84,60.29,35.59,35.8-20.27Z"/><path class="cls-12" d="M220.21,133.67,158,98l-33.75,20.32L184.69,154Z"/><path class="cls-14" d="M218.9,131.28v1.57Q201.85,142.93,184.8,153l-58.94-34.77v-1.54l58.94,34.43Z"/><path class="cls-13" d="M125.87,116.71,158,98l60.89,33.33-34.09,19.86Z"/></g><path class="cls-23" d="M134.94,119.71a47.42,47.42,0,0,0,17.2-22l19.47,11.63,17.16-10.41a55.76,55.76,0,0,0,8.32,16.77,54.56,54.56,0,0,0,7.1,8l-31.64,18.52Z"/><polygon class="cls-24" points="151.23 96.22 168.8 86.08 189.36 97.7 171.35 108.39 151.23 96.22"/><polygon class="cls-25" points="151.23 96.22 151.23 97.24 171.61 109.33 189.36 98.63 189.36 97.7 171.35 108.39 151.23 96.22"/><polygon class="cls-26" points="154.8 96.44 168.95 88.2 185.79 97.7 171.57 105.99 154.8 96.44"/><polygon class="cls-27" points="169.17 90.46 183.76 98.89 185.79 97.7 168.95 88.2 154.8 96.44 157.03 97.7 169.17 90.46"/><g id="raam-17" data-name="raam"><path class="cls-8" d="M138.14,138.13,138,157.32l9.73,5.36V143a12.53,12.53,0,0,0-5.14-3.94A12.35,12.35,0,0,0,138.14,138.13Z"/><polygon class="cls-9" points="140.51 155.53 140.51 140.24 146.72 143.84 146.72 159 140.51 155.53"/><polygon class="cls-10" points="139.29 139.55 139.29 156.63 146.72 161.03 146.72 159 140.51 155.53 140.51 140.24 139.29 139.55"/><path class="cls-11" d="M148.82,162.26l-1.07.42V143a12.72,12.72,0,0,0-3.86-3.3,12.52,12.52,0,0,0-5.75-1.52,12.28,12.28,0,0,1,10.68,4.67Z"/></g><g id="raam-18" data-name="raam"><path class="cls-8" d="M165.82,153.61l-.11,19.19,9.72,5.36V158.44a12.18,12.18,0,0,0-9.61-4.83Z"/><polygon class="cls-9" points="168.2 171.02 168.2 155.72 174.4 159.32 174.4 174.48 168.2 171.02"/><polygon class="cls-10" points="166.97 155.03 166.97 172.11 174.4 176.51 174.4 174.48 168.2 171.02 168.2 155.72 166.97 155.03"/><path class="cls-11" d="M176.51,177.74l-1.08.42V158.44a12.34,12.34,0,0,0-3.86-3.3,12.53,12.53,0,0,0-5.75-1.53,12.29,12.29,0,0,1,10.69,4.67Z"/></g></g></g></g></svg>