<svg xmlns="http://www.w3.org/2000/svg" viewBox="0 0 295.62 187.3"><defs><style>.cls-1{fill:#3a2966;}.cls-2{fill:#3a2561;}.cls-3{fill:#582345;}.cls-4{fill:#3284c6;}.cls-5{fill:#2a4e9c;}.cls-6{fill:#abb557;}.cls-7{fill:#934066;}.cls-8{fill:#e1c7d5;}.cls-9{fill:none;}.cls-10{fill:#878946;}.cls-11{fill:#9da351;}.cls-12{fill:#6a5c51;}.cls-13{fill:#9fa551;}.cls-14{fill:#e6bdd3;}.cls-15{fill:#895ba2;}.cls-16{fill:#542b80;}.cls-17{fill:#aa63a5;}.cls-18{fill:#6e2446;}.cls-19{fill:#ce80ac;}.cls-20{fill:#b66caa;}.cls-21{fill:#cb98c4;}.cls-22{fill:#8f518b;}.cls-23{fill:#b05c7e;}</style></defs><g id="Layer_2" data-name="Layer 2"><g id="Layer_1-2" data-name="Layer 1"><g id="park"><polygon class="cls-1" points="0 87.75 0 103.24 147.09 187.3 147.09 171.24 0 87.75"/><path class="cls-2" d="M295.62,87.75,239.17,119.6v11.76l-33.35,18.53q0-5.32-.08-10.66l-58.65,32V187.3L295.62,103Z"/><path class="cls-3" d="M106.17,31.12V26.48l30.19,17,1.92,2.63-2.12.88a99.37,99.37,0,0,1-12.74-5.16A100.47,100.47,0,0,1,106.17,31.12Z"/><path class="cls-3" d="M184.6,94.4l26.68,15h11.58l16.31,9.26v12.66l-33.35,18.53c0-.58,0-1.17,0-1.75l31.76-18.08v-8.55a18.08,18.08,0,0,1-3.22-.41c-6.54-1.44-10.59-6.26-12.32-8.64l-11.43.52q-2.49-1-5.05-2.2a98.56,98.56,0,0,1-20.91-13.27Z"/><g id="water"><path class="cls-4" d="M70.69,49.72l35.48-18.6a4.59,4.59,0,0,1,1.76,0,6.91,6.91,0,0,1,2.33,1.26c1.9,1.28,1.86,1.5,2.58,1.7a5.6,5.6,0,0,1,1.41.54,4.75,4.75,0,0,1,.8.56,21.64,21.64,0,0,0,2.48,1.47,14.52,14.52,0,0,1,1.91,1.44,19.38,19.38,0,0,0,3,2.24c3.25,2,5.39,1.89,8.75,3.44a21.9,21.9,0,0,1,5,3.16L142,60.3,105.47,86.15q-2.81-11.48-5.6-23l-8.43-3.89Z"/><path class="cls-5" d="M205.74,140.07l31.82-18.56v8.55L205.8,148.14Z"/><path class="cls-4" d="M205.74,135.57v4.5l31.82-18.56a5.07,5.07,0,0,1-2.08-.51c-1.06-.53-1.2-1.11-2.3-1.82a14.81,14.81,0,0,0-2.6-1,9.79,9.79,0,0,1-2.92-2c-2.93-3.5-5.3-4.23-7-4.22-1.36,0-1.85.52-4.13.81a21.32,21.32,0,0,1-6.15-.22c-2.19-.43-3.55-1.19-8.42-4.3-5.84-3.72-9.31-6.08-9.31-6.08-2.14-1.44-4.88-3.31-8.07-5.5l-3.92,1.58-5.77-3.5c-11.2,6.11-19.29,10.71-20.86,11.65a10.2,10.2,0,0,0-2.87,2.5,9.27,9.27,0,0,0-.59.86,21.12,21.12,0,0,0-2.2,5.34c-.57,1.86-1,3.38-1.32,4.41L158,121.51l26.29,1.58Z"/></g><path class="cls-6" d="M106.17,23.5,148.31,0l42,23.5L168.23,37.71l-.3,23.52-5.18,3.35L142,60.3c-.51-1.95-3.67-14.21-3.67-14.21h0l-.46-3.59Z"/><polygon class="cls-7" points="73.54 129.5 105.37 147.56 105.37 146.1 74.89 128.71 73.54 129.5"/><polygon class="cls-8" points="74.89 128.71 87.36 121.4 87.67 110.23 101.73 102.09 131.32 119.05 123.15 124.2 123.15 133.85 105.37 144.77 105.37 146.1 74.89 128.71"/><polygon class="cls-8" points="227.35 48.89 190.3 27.34 168.2 40.07 168.11 63.7 164.81 65.83 195.31 83.45 212.26 73.6 212.26 57.51 227.35 48.89"/><polygon class="cls-9" points="101.73 102.09 130.36 118.98 134.46 117.07 102.18 98.74 101.73 102.09"/><polygon class="cls-10" points="0 84.31 0 87.75 73.54 129.5 73.54 126.68 0 84.31"/><path class="cls-6" d="M73.54,126.68l13.89-7.85L87.67,108l14.23-8.24,4.27-14.43L99.87,63.2,64.3,46.77,0,84.31Z"/><path class="cls-11" d="M73.54,129.49l13.82-8.09.07-2.57-13.89,7.85Z"/><path class="cls-11" d="M87.62,110.42l14.11-8.33.17-2.38L87.67,108C87.65,108.78,87.64,109.6,87.62,110.42Z"/><path class="cls-10" d="M105.37,147.56v-2.79l41.83,23.6-.11,2.87Z"/><path class="cls-11" d="M147.2,168.37l58.54-32.8v3.66l-58.65,32C147.12,170.28,147.16,169.33,147.2,168.37Z"/><path class="cls-6" d="M105.37,144.77l17.78-10.92V124.2L135,116.72l1.33.83h0s6.14,1.06,10.75,1.89c2.7.49,6.44,1.18,10.95,2.07l26.29,1.58,21.41,12.48-58.54,32.8Z"/><path class="cls-12" d="M253.31,103.67l42.31-24.58v8.66L239.17,119.6v-2.67l14.22-9.24Z"/><polygon class="cls-10" points="226.47 87.75 253.31 103.67 253.39 107.69 226.47 92.83 226.47 87.75"/><polygon class="cls-13" points="250.57 52.94 295.62 79.09 253.31 103.67 226.47 87.75 226.47 66.51 250.57 52.94"/><polygon class="cls-10" points="106.17 23.5 137.82 42.5 138.28 46.09 136.36 43.46 106.17 26.48 106.17 23.5"/><polygon class="cls-10" points="239.17 118.7 222.86 109.44 211.28 109.44 184.6 94.4 184.6 92.19 211.89 107.69 223.43 107.69 239.17 116.93 239.17 118.7"/><polygon class="cls-6" points="184.58 91.13 195.64 85.46 195.31 83.45 212.26 73.6 212.26 57.51 230.73 46.96 245.74 55.66 226.47 66.51 226.47 92.83 253.39 107.69 239.17 116.93 223.43 107.69 211.89 107.69 184.6 92.19 184.58 91.13"/><polygon class="cls-11" points="162.75 64.58 164.81 65.83 168.11 63.7 167.93 61.23 162.75 64.58"/><polygon class="cls-11" points="190.3 23.5 190.3 27.34 168.2 40.07 168.23 37.71 190.3 23.5"/><path class="cls-5" d="M180.7,98.18l-32.13,16.38a32.59,32.59,0,0,1,1.22-3.22,11.34,11.34,0,0,1,1.53-2.65,8.91,8.91,0,0,1,1.5-1.49,15.12,15.12,0,0,1,1.59-1l.75-.45c.89-.52,5-2.82,10.5-5.93l9.27-5.09Z"/><g id="brug"><path class="cls-14" d="M162.75,64.58A59.63,59.63,0,0,0,125,78.13c-3.43,2.69-7,5.76-10.73,9.24a155.63,155.63,0,0,0-10.87,11.37l29.22,16.45c5.13-8.18,18.32-26.49,41.77-33.4A66,66,0,0,1,188,79.31Z"/><path class="cls-15" d="M100.92,82.46l2.07-4a130.6,130.6,0,0,1,10.94-11.22,132.27,132.27,0,0,1,10.51-8.6,85.35,85.35,0,0,1,10.34-6.83A57.4,57.4,0,0,1,148.7,46a53,53,0,0,1,14.35-1.69l-2.78-1.74A54.36,54.36,0,0,0,145.08,44a57,57,0,0,0-13.86,5.41c-8.4,4.34-13.9,9.14-18.78,13.48A129.88,129.88,0,0,0,99.18,76.54c-.5,1.37-1,2.74-1.51,4.11a10,10,0,0,0,1.68,1.13A10.36,10.36,0,0,0,100.92,82.46Z"/><path class="cls-15" d="M134.44,101.57l1.45-3.95c2.81-3.21,5.89-6.51,9.24-9.86q3.36-3.36,6.64-6.34a84.28,84.28,0,0,1,13.65-9.94,57.9,57.9,0,0,1,12.32-5.74A54.07,54.07,0,0,1,187,63.65l9.18-.48-3.35-2a53.61,53.61,0,0,0-14.06,1.32,58.72,58.72,0,0,0-16.34,6.72,92.48,92.48,0,0,0-16.3,11.85,133.1,133.1,0,0,0-11.68,11.36L132,95.51l-1.67,3.88Z"/><path class="cls-16" d="M100.92,82.46l2.07-4a119.8,119.8,0,0,1,16.1-16c1.75-1.44,15.68-12.75,27.73-16a72.42,72.42,0,0,1,10.39-1.87c2.32-.22,4.31-.28,5.84-.28l2.11,1.82L164,47.82l-2.27-1.13a35.09,35.09,0,0,0-4.17-.13c-1.47,0-5.63.26-12.83,2.8a74.2,74.2,0,0,0-13.87,6.55,79.75,79.75,0,0,0-10.36,7.56A102.69,102.69,0,0,0,109.6,74q-2.91,2.85-5.84,5.68l-1.17,3.37Z"/><path class="cls-17" d="M162.75,59.89a74,74,0,0,0-15.34,2.66,73.13,73.13,0,0,0-13.89,5.54A100.11,100.11,0,0,0,103.58,94l-3.69-2.4a126.81,126.81,0,0,1,21.93-20.52c3.1-2.28,6.15-4.31,9.11-6.11a56.43,56.43,0,0,1,28.26-7.11Z"/><path class="cls-16" d="M134.44,101.57l1.45-3.95c2.67-3.06,5.62-6.24,8.88-9.46A172.67,172.67,0,0,1,158,76.35a58.31,58.31,0,0,1,17.34-9.78,59.08,59.08,0,0,1,20.82-3.4L198,65l-1.28,1.7-1.69-1.48h0a56.51,56.51,0,0,0-6.28.18c-1.36.13-2.35.3-3.42.5a68.89,68.89,0,0,0-8,2c-3.92,1.28-12.86,5.6-23.23,13.5-2.45,2-5,4.23-7.56,6.7A131.45,131.45,0,0,0,137,98.26l-1.28,3.31Z"/><path class="cls-17" d="M132.59,110.27a93.06,93.06,0,0,1,18.58-18.52c6.1-4.55,15.39-11.33,29.2-14.14a63.22,63.22,0,0,1,11.54-1.26l3.4,2.45h0a70,70,0,0,0-15,1.93,45.85,45.85,0,0,0-9.21,3.71,97.5,97.5,0,0,0-17.95,11.82,131.58,131.58,0,0,0-16.77,16.2Z"/><polygon class="cls-18" points="103.78 89.92 103.76 79.72 107.71 75.77 107.71 86.31 103.78 89.92"/><polygon class="cls-18" points="112.06 81.37 112.06 71.37 116.41 67.07 116.41 78.47 112.06 81.37"/><polygon class="cls-18" points="120.77 74.04 120.83 63.18 124.97 59.88 124.97 71.67 120.77 74.04"/><polygon class="cls-18" points="129.36 68.09 129.36 56.83 133.51 54.37 133.51 66.61 129.36 68.09"/><polygon class="cls-18" points="137.82 63.55 137.82 52.18 141.95 50.4 141.95 62.48 137.82 63.55"/><polygon class="cls-18" points="146.24 60.63 146.24 48.84 150.37 47.65 150.37 60.12 146.24 60.63"/><polygon class="cls-18" points="154.7 59.05 154.85 46.78 159.19 46.55 159.19 59.05 154.7 59.05"/><polygon class="cls-18" points="136.34 108.35 136.49 99.51 140.74 94.01 140.74 105.38 136.34 108.35"/><path class="cls-18" d="M144.84,100.36c0-3.58.11-7.17.16-10.75l4.39-4.15-.23,11.66Z"/><polygon class="cls-18" points="153.62 92.42 153.62 81.81 157.68 78.78 157.68 90.42 153.62 92.42"/><polygon class="cls-18" points="162.16 86.7 162.16 75.75 166.23 73.25 166.23 85.19 162.16 86.7"/><polygon class="cls-18" points="170.49 81.99 170.49 70.9 174.78 68.87 174.78 80.8 170.49 81.99"/><polygon class="cls-18" points="179.13 79.02 179.13 67.34 183.31 66.29 183.31 78.75 179.13 79.02"/><polygon class="cls-18" points="187.59 77.73 187.59 65.52 191.91 65.2 191.91 77.73 187.59 77.73"/><path class="cls-19" d="M162.75,64.58V59.89a72.84,72.84,0,0,0-30.47,8.91A100,100,0,0,0,103.58,94l-.21,4.73c1.29-1.47,3.2-3.6,5.62-6.09,5.74-5.9,12-12.38,21.46-18.23a61.7,61.7,0,0,1,15.19-7.31A57.35,57.35,0,0,1,162.75,64.58Z"/><path class="cls-19" d="M195.31,78.8v4.65a60.5,60.5,0,0,0-15,2.07c-9.56,2.57-15.94,6.83-21.12,10.35a99.63,99.63,0,0,0-22.89,21.68v-5.09a122.3,122.3,0,0,1,21.5-19.83c7.09-5.11,13.61-9.71,23.51-12.19A55.66,55.66,0,0,1,195.31,78.8Z"/><path class="cls-20" d="M102.37,98.1c1.53.89,3.61,2.1,6.09,3.51,1.7,1,3.37,1.9,5.33,3,9.91,5.52,12.95,7,18.8,10.59,1.06.66,1.91,1.2,2.42,1.53l-3.69,2.33-29.59-17a9.53,9.53,0,0,1,.17-2.38A9.78,9.78,0,0,1,102.37,98.1Z"/><path class="cls-21" d="M147.09,119.44c.15-.55.39-1.35.68-2.31s.66-2.17,1-3.07a15.89,15.89,0,0,1,2.57-5.37,10.44,10.44,0,0,1,2.75-2.36q5.7-3.28,11.59-6.56,6.79-3.8,13.47-7.35.78,2.88,1.57,5.76l3.93-.67,0-6.38,11.06-5.67-.33-2a62.81,62.81,0,0,0-15,2.07c-15.13,4-25.06,12.72-31.56,18.56a99.79,99.79,0,0,0-12.45,13.47Z"/><path class="cls-22" d="M103.37,98.74,100,96.57c0-1.65,0-3.31-.07-5l3.69,2.4Z"/><polygon class="cls-22" points="132.59 115.19 132.59 110.27 136.34 112.46 136.34 117.55 132.59 115.19"/><polygon class="cls-23" points="174.93 94.67 179.13 92.42 180.69 98.18 174.93 94.67"/></g></g></g></g></svg>