<svg xmlns="http://www.w3.org/2000/svg" viewBox="0 0 295.62 255.16"><defs><style>.cls-1{fill:#e1c7d5;}.cls-2{fill:#d2bec9;}.cls-3{fill:#c1aab9;}.cls-4{fill:#292b60;}.cls-5{fill:#394283;}.cls-6{fill:#a43c7b;}.cls-7{fill:#ad4d81;}.cls-8{fill:#b8618a;}.cls-9{fill:#b2656e;}.cls-10{fill:#ba757d;}.cls-11{fill:#cc869f;}.cls-12{fill:#c58c8b;}.cls-13{fill:#dfb5bb;}.cls-14{fill:#f6eff0;}.cls-15{fill:#cec1d0;}.cls-16{fill:#c9b8c9;}.cls-17{fill:#d4c5c4;}.cls-18{fill:#dcd0ce;}.cls-19{fill:#69559a;}.cls-20{fill:#5d4c9a;}.cls-21{fill:#68569d;}.cls-22{fill:#ad84ba;}.cls-23{fill:#894487;}.cls-24{fill:#cb8fa1;}.cls-25{fill:#a75173;}.cls-26{fill:#c89ba9;}.cls-27{fill:#b06981;}.cls-28{fill:#e9c3b3;}.cls-29{fill:#aa5a77;}.cls-30{fill:#ddaf94;}.cls-31{fill:#d6a991;}.cls-32{fill:#d7a285;}.cls-33{fill:#bb6696;}.cls-34{fill:#c27393;}.cls-35{fill:#d28f93;}.cls-36{fill:#e2aaa2;}.cls-37{fill:#ae546d;}.cls-38{fill:#b75995;}.cls-39{fill:#772c84;}.cls-40{fill:#7c4695;}.cls-41{fill:#864795;}.cls-42{fill:#8f589d;}.cls-43{fill:#ad7b9d;}.cls-44{fill:#cb8ebd;}.cls-45{fill:#c492a2;}.cls-46{fill:#d297ba;}.cls-47{fill:#c88a96;}.cls-48{fill:#c693c0;}.cls-49{fill:#cf93bd;}.cls-50{fill:#6a398d;}.cls-51{fill:#a8748e;}.cls-52{fill:#262855;}.cls-53{fill:#323777;}.cls-54{fill:#414f94;}.cls-55{fill:#3f4a94;}.cls-56{fill:#a14479;}.cls-57{fill:#945178;}.cls-58{fill:#a62066;}</style></defs><g id="Layer_2" data-name="Layer 2"><g id="Layer_1-2" data-name="Layer 1"><g id="restaurant"><path class="cls-1" d="M0,155.61,148.31,71.3l147.31,79.08L147.09,239.1Z"/><polygon class="cls-2" points="0 155.61 0 171.1 147.09 255.16 147.09 239.1 0 155.61"/><path class="cls-3" d="M147.09,239.1l148.53-88.72-.37,14L147.09,255.16Z"/><path class="cls-4" d="M22.84,148.36q0,3.72-.07,7.44L124.24,97.42V90.08Z"/><path class="cls-5" d="M124.17,90.12,22.84,148.36H21.35L123.14,89.55Z"/><polygon class="cls-5" points="22.77 155.8 21.35 155.8 21.35 148.37 22.84 148.36 22.77 155.8"/><g id="huis"><g id="muur"><polygon class="cls-6" points="128.03 56.16 131.39 57.44 129.81 52.56 128.03 56.16"/><polygon class="cls-7" points="126.85 58.54 133.08 62.43 131.39 57.44 128.03 56.16 126.85 58.54"/><path class="cls-8" d="M124.38,63.49l5.32,2.94.15-5,3.41,1.61-.18-.66-6.23-3.89Z"/><polygon class="cls-9" points="122.05 68.19 129.7 72.37 129.7 66.43 124.38 63.49 122.05 68.19"/><polygon class="cls-10" points="119.65 73.01 140.52 85.03 137.44 75.34 137.44 80 129.7 75.89 129.7 72.37 122.05 68.19 119.65 73.01"/><polygon class="cls-8" points="117.24 77.85 143.13 92.66 140.52 85.03 119.65 73.01 117.24 77.85"/><path class="cls-11" d="M116.31,83.58l29.53,16.63-2.71-7.55L117.24,77.85l-.88,1.77C116.34,80.94,116.33,82.26,116.31,83.58Z"/><path class="cls-10" d="M148.24,107.67l-2.4-7.46L116.31,83.58c0,2,0,4.06-.08,6.09Z"/><path class="cls-12" d="M116.15,95.69l34.2,19.84v-4.65l-2.11-3.21-32-18Z"/><path class="cls-10" d="M116.08,101.78l34.27,19.75v-6l-34.2-19.84Z"/><path class="cls-8" d="M116,107.77l34.17,19.75.18-6-34.27-19.75Q116,104.76,116,107.77Z"/><polygon class="cls-11" points="131.35 76.77 131.51 62.26 129.85 61.48 129.7 75.89 131.35 76.77"/><path class="cls-13" d="M114.59,83.17q-.12,11.83-.26,23.66l1.67.94.36-28.15Z"/></g><g id="schoorsteen"><polygon class="cls-14" points="133.99 7.2 146.09 0 153.39 4.33 141.4 11.52 133.99 7.2"/><polygon class="cls-15" points="133.99 14.76 141.45 18.72 153.08 12.25 153.39 4.33 141.4 11.52 133.99 7.2 133.99 14.76"/><path class="cls-16" d="M136.55,38.33a16.37,16.37,0,0,0-.06-4.17,15.5,15.5,0,0,0-.78-3.19V15.67l5.74,3,10.61-5.9-.24,4.39-6.72,2.92-6.42,18.2Z"/><polygon class="cls-17" points="139.36 7.43 146.22 3.21 146.22 6.11 141.45 8.82 139.36 7.43"/><polygon class="cls-18" points="149.05 4.33 146.22 3.21 146.22 6.11 149.05 4.33"/></g><g id="dak"><polygon class="cls-19" points="138.68 38.33 147.39 13.43 162.98 23.42 138.68 38.33"/><path class="cls-20" d="M163,23.42,127.5,43.62l23.33,67.08,13.34-8h0S163.77,76.28,163,23.42Z"/><polygon class="cls-21" points="220.27 57.57 196.61 127.78 160.23 105.06 162.98 23.42 220.27 57.57"/><polygon class="cls-22" points="241.56 99.15 220.27 57.57 196.61 127.78 197.93 128.46 220.27 60.92 240.13 100.25 241.56 99.15"/><polygon class="cls-23" points="233.96 96.51 240.13 100.25 220.27 60.92 219.08 64.52 234.18 94.08 233.96 96.51"/><polygon class="cls-24" points="108.81 87.47 129.08 48.18 127.88 44.72 107.59 86.15 108.81 87.47"/><polygon class="cls-25" points="114.09 84.17 130.29 51.63 129.08 48.18 108.81 87.47 114.09 84.17"/><polygon class="cls-21" points="127.5 43.63 106.59 85.03 107.59 86.15 127.88 44.72 127.5 43.63"/></g><path class="cls-24" d="M150.83,110.7l-1.42.53L128.64,49l.44-.86Z"/><g id="deur"><polygon class="cls-26" points="122.72 85.86 122.89 113.62 137.96 122.33 137.96 94.3 122.72 85.86"/><polygon class="cls-27" points="124.22 88.31 124.44 112.34 136.48 119.56 136.26 95.3 124.22 88.31"/><path class="cls-28" d="M139.31,93.86l-14.76-8.55-1.83.55L138,94.3Z"/><polygon class="cls-29" points="137.96 122.33 139.76 121.5 139.31 93.86 137.96 94.3 137.96 122.33"/><path class="cls-30" d="M129.33,113.84l.29-22.39L125.38,89v22.54Z"/><path class="cls-31" d="M133.43,93.66v22.71l-4.1-2.53.29-22.39Z"/><path class="cls-32" d="M136.47,117.94l-.21-22.64-2.83-1.64v22.71Z"/></g><g id="muur-2" data-name="muur"><path class="cls-33" d="M151.14,116.87l12-7.25v-2.77l-2.86-1.78-9.09,5.44Z"/><path class="cls-34" d="M151.14,122.89l11.92-7.15,0-6.12-12,7.25Z"/><path class="cls-35" d="M151.08,128,163,121.13l.06-5.39-11.92,7.15Z"/><polygon class="cls-36" points="163 121.13 197.53 140.95 197.53 135.02 163.06 115.74 163 121.13"/><polygon class="cls-37" points="163.09 109.62 197.53 129.33 197.53 135.02 163.06 115.74 163.09 109.62"/><path class="cls-38" d="M163.09,109.62l34.44,19.71.4-.87-34.84-21.61Z"/><path class="cls-13" d="M150.17,127.52l.91.44.06-17.45-.79.37Z"/></g><g id="muur-3" data-name="muur"><polygon class="cls-39" points="217.73 68.6 220.27 66.84 219.08 64.52 217.73 68.6"/><polygon class="cls-40" points="215.57 75.13 222.46 71.13 220.27 66.84 217.73 68.6 215.57 75.13"/><polygon class="cls-41" points="215.11 76.53 218.63 74.39 218.63 79.07 224.83 75.78 222.46 71.13 215.57 75.13 215.11 76.53"/><polygon class="cls-42" points="218.85 85.55 227.29 80.59 224.83 75.78 218.63 79.07 218.85 85.55"/><polygon class="cls-43" points="211.33 87.96 211.33 94.42 218.85 90 218.85 85.55 227.29 80.59 229.7 85.32 208.01 97.98 211.33 87.96"/><path class="cls-44" d="M200.48,120.74l32.07-18.64V96L203,113.08Z"/><path class="cls-45" d="M197.93,128.46l34.62-20.21V102.1l-32.07,18.64Z"/><path class="cls-46" d="M197.53,135l35-20.45v-6.32l-35,20.44Z"/><path class="cls-47" d="M197.53,141l35-20.48,0-5.9-35,20.45Z"/><path class="cls-48" d="M205.36,106,208,98,229.7,85.32l2.73,5.34Z"/><path class="cls-49" d="M203,113.08l1.75-1v-3.2l21.48-12.63v3.36L232.54,96l-.11-5.35L205.36,106Z"/><polygon class="cls-50" points="218.63 74.39 218.85 90 211.33 94.42 211.33 92.76 217.36 89.28 217.31 75.19 218.63 74.39"/><polygon class="cls-48" points="234.18 94.08 232.43 90.66 232.52 120.47 233.91 119.58 234.18 94.08"/></g><g id="raam"><polygon class="cls-51" points="204.77 108.9 226.25 96.27 226.25 119.51 204.87 131.48 204.77 108.9"/><path class="cls-4" d="M204.81,117l9-5.29v6.13l-8.94,5.47Z"/><path class="cls-4" d="M204.8,115.39l9-5v-6.24l-9,5.33Z"/><polygon class="cls-4" points="214.88 103.66 224.52 97.98 224.52 104.13 214.88 109.74 214.88 103.66"/><polygon class="cls-4" points="214.88 111.15 224.52 105.76 224.52 111.99 214.88 117.28 214.88 111.15"/><path class="cls-4" d="M214.88,118.85l9.64-5.55v7.18l-9.61,5.38Z"/><path class="cls-4" d="M204.84,124.48l8.94-5,.05,7-9,5Z"/><polygon class="cls-4" points="215.11 76.53 217.31 75.19 217.36 89.28 211.33 92.76 211.33 87.96 215.11 76.53"/><polygon class="cls-52" points="133.26 63.09 131.51 62.26 131.35 76.77 137.44 80 137.44 75.34 133.26 63.09"/></g></g><path class="cls-53" d="M197.53,141,232,160.23c0-2.4.05-4.8.08-7.2l-34.53-19.1Z"/><path class="cls-5" d="M197.53,133.93l.62-.39,34.92,18.92-1,.57Z"/><path class="cls-4" d="M130.73,211.27q0,3.72-.07,7.44L232.09,160.4l0-7.37Z"/><path class="cls-5" d="M232.06,153,130.73,211.27h-1.48L231,152.46Z"/><polygon class="cls-5" points="130.66 218.71 129.25 218.71 129.25 211.28 130.73 211.27 130.66 218.71"/><path class="cls-54" d="M233.07,152.46l0,7.49-1,.47V153Z"/><path class="cls-53" d="M95,199.46l34.46,19.28c0-2.4.05-4.8.08-7.21L95,192.43Z"/><path class="cls-5" d="M95,192.43l.63-.39L130.51,211l-1,.57Z"/><path class="cls-53" d="M21.35,155.67,55.81,175c0-2.4,0-4.8.08-7.2l-34.54-19.1Z"/><path class="cls-5" d="M21.35,148.65l.63-.4L56.9,167.18l-1,.57Z"/><polygon class="cls-55" points="56.9 167.18 56.9 174.17 55.81 174.95 55.89 167.75 56.9 167.18"/><g id="tafelset"><g id="tafel"><path id="tafelblad" class="cls-53" d="M91.68,123.93l8.64,4.95,8.25-4.75-8.6-5Z"/><g id="poot"><path class="cls-53" d="M91.67,131l.5.28,0-7h0l-.55-.29Z"/><path class="cls-55" d="M92.17,131.23l.56-.24q0-3.26,0-6.51l-.5-.27Z"/></g><g id="poot-2" data-name="poot"><path class="cls-53" d="M99.77,135.59l.5.28,0-7-.54-.32C99.78,130.9,99.77,133.25,99.77,135.59Z"/><path class="cls-55" d="M100.27,135.87l.55-.23c0-2.34,0-4.69,0-7l-.49.27Z"/></g><g id="poot-3" data-name="poot"><path class="cls-55" d="M108.05,131.5l.56-.23q0-3.57,0-7.14l-.46.27Z"/><path class="cls-53" d="M107.56,131.23l.5.27q0-3.5,0-7v-.1l-.54.3Q107.56,128,107.56,131.23Z"/></g></g><g id="parasol"><rect class="cls-56" x="90.12" y="115.2" width="2.01" height="20.67"/><rect class="cls-57" x="91.17" y="115.2" width="1.01" height="20.67"/><path class="cls-58" d="M109,108.1l-3.57-3.18L91.09,92.15l-15,13.29-3,2.66a3.69,3.69,0,0,0-.28,1.9c.6,4.42,10.51,7.25,18.24,7.18,8.27-.08,18.17-3.53,18.38-7.49A2.89,2.89,0,0,0,109,108.1Z"/></g><g id="tafel-2" data-name="tafel"><path id="tafelblad-2" data-name="tafelblad" class="cls-53" d="M75.29,134l8.64,5,8.26-4.75-8.6-5Z"/><g id="poot-4" data-name="poot"><path class="cls-53" d="M75.28,141l.5.28,0-7h0l-.55-.29Z"/><path class="cls-55" d="M75.78,141.25l.56-.23V134.5l-.51-.27Z"/></g><g id="poot-5" data-name="poot"><path class="cls-53" d="M83.39,145.61l.5.28,0-7-.55-.32Z"/><path class="cls-55" d="M83.88,145.89l.56-.23,0-7-.48.27Z"/></g><g id="poot-6" data-name="poot"><path class="cls-55" d="M91.67,141.53l.56-.24q0-3.57,0-7.14l-.47.27C91.7,136.79,91.69,139.16,91.67,141.53Z"/><path class="cls-53" d="M91.17,141.25l.5.28q0-3.51,0-7v-.11l-.54.3C91.18,136.89,91.17,139.07,91.17,141.25Z"/></g></g></g><g id="tafelset-2" data-name="tafelset"><g id="tafel-3" data-name="tafel"><path id="tafelblad-3" data-name="tafelblad" class="cls-53" d="M164.7,151.47l8.64,4.95,8.26-4.75-8.6-5Z"/><g id="poot-7" data-name="poot"><path class="cls-53" d="M164.69,158.49l.5.28.05-7h0l-.55-.29Z"/><path class="cls-55" d="M165.19,158.77l.56-.23V152l-.51-.27Z"/></g><g id="poot-8" data-name="poot"><path class="cls-53" d="M172.8,163.14l.5.28,0-7-.55-.32Z"/><path class="cls-55" d="M173.29,163.42l.56-.23,0-7.05-.48.28Z"/></g><g id="poot-9" data-name="poot"><path class="cls-55" d="M181.08,159.05l.56-.23c0-2.38,0-4.77,0-7.15l-.47.27Q181.1,155.5,181.08,159.05Z"/><path class="cls-53" d="M180.58,158.77l.5.28c0-2.33,0-4.67,0-7v-.11l-.54.3C180.59,154.42,180.58,156.59,180.58,158.77Z"/></g></g><g id="parasol-2" data-name="parasol"><rect class="cls-56" x="163.14" y="142.75" width="2.01" height="20.67"/><rect class="cls-57" x="164.19" y="142.75" width="1.01" height="20.67"/><path class="cls-58" d="M182.07,135.64l-3.58-3.18-14.38-12.77-15,13.29-3,2.66a3.71,3.71,0,0,0-.29,1.9c.6,4.42,10.52,7.25,18.25,7.18,8.26-.08,18.17-3.52,18.37-7.48A2.82,2.82,0,0,0,182.07,135.64Z"/></g><g id="tafel-4" data-name="tafel"><path id="tafelblad-4" data-name="tafelblad" class="cls-53" d="M148.31,161.49l8.65,4.95,8.25-4.75-8.6-5Z"/><g id="poot-10" data-name="poot"><path class="cls-53" d="M148.31,168.51l.5.28.05-7h0l-.55-.29Z"/><path class="cls-55" d="M148.81,168.79l.55-.23v-6.51l-.5-.27Z"/></g><g id="poot-11" data-name="poot"><path class="cls-53" d="M156.41,173.16l.5.28.05-7-.55-.32Z"/><path class="cls-55" d="M156.9,173.44l.56-.23q0-3.53,0-7.05l-.49.28Z"/></g><g id="poot-12" data-name="poot"><path class="cls-55" d="M164.69,169.07l.56-.23c0-2.38,0-4.77,0-7.15l-.47.27Q164.72,165.52,164.69,169.07Z"/><path class="cls-53" d="M164.19,168.79l.5.28c0-2.33,0-4.67.05-7V162l-.53.3C164.2,164.44,164.2,166.61,164.19,168.79Z"/></g></g></g><g id="tafelset-3" data-name="tafelset"><g id="tafel-5" data-name="tafel"><path id="tafelblad-5" data-name="tafelblad" class="cls-53" d="M110.3,166.39l8.64,5,8.26-4.75-8.6-5Z"/><g id="poot-13" data-name="poot"><path class="cls-53" d="M110.29,173.41l.5.28,0-7h0l-.55-.29Z"/><path class="cls-55" d="M110.79,173.69l.56-.23V167l-.51-.27Z"/></g><g id="poot-14" data-name="poot"><path class="cls-53" d="M118.4,178.06l.5.28,0-7-.55-.32Z"/><path class="cls-55" d="M118.89,178.34l.56-.23,0-7.05-.48.28Z"/></g><g id="poot-15" data-name="poot"><path class="cls-55" d="M126.68,174l.56-.23c0-2.38,0-4.77,0-7.15l-.47.27C126.71,169.23,126.7,171.6,126.68,174Z"/><path class="cls-53" d="M126.18,173.69l.5.28c0-2.33,0-4.67,0-7v-.11l-.54.3C126.19,169.34,126.18,171.51,126.18,173.69Z"/></g></g><g id="parasol-3" data-name="parasol"><rect class="cls-56" x="108.74" y="157.67" width="2.01" height="20.67"/><rect class="cls-57" x="109.79" y="157.67" width="1.01" height="20.67"/><path class="cls-58" d="M127.67,150.56q-1.78-1.59-3.58-3.17l-14.38-12.78-15,13.29-3,2.66a3.71,3.71,0,0,0-.29,1.9c.6,4.42,10.52,7.26,18.25,7.18,8.26-.08,18.17-3.52,18.37-7.48A2.87,2.87,0,0,0,127.67,150.56Z"/></g><g id="tafel-6" data-name="tafel"><path id="tafelblad-6" data-name="tafelblad" class="cls-53" d="M93.92,176.42l8.64,4.94,8.25-4.75-8.6-5Z"/><g id="poot-16" data-name="poot"><path class="cls-53" d="M93.91,183.43l.5.28,0-7h0l-.55-.29Z"/><path class="cls-55" d="M94.41,183.71l.55-.23V177l-.5-.27Z"/></g><g id="poot-17" data-name="poot"><path class="cls-53" d="M102,188.08l.5.28,0-7L102,181Z"/><path class="cls-55" d="M102.5,188.36l.56-.23q0-3.52,0-7l-.49.27Z"/></g><g id="poot-18" data-name="poot"><path class="cls-55" d="M110.29,184l.56-.23c0-2.38,0-4.77,0-7.15l-.47.27Q110.32,180.44,110.29,184Z"/><path class="cls-53" d="M109.79,183.71l.5.28c0-2.33,0-4.67,0-7v-.11l-.53.3C109.8,179.36,109.8,181.53,109.79,183.71Z"/></g></g></g></g></g></g></svg>