<svg xmlns="http://www.w3.org/2000/svg" xmlns:xlink="http://www.w3.org/1999/xlink" viewBox="0 0 291.24 232.85"><defs><style>.cls-1,.cls-37,.cls-38,.cls-39{fill:none;}.cls-2{fill:#33922e;}.cls-3{fill:url(#linear-gradient);}.cls-4{fill:url(#radial-gradient);}.cls-5{fill:url(#linear-gradient-2);}.cls-6{fill:#fdc300;}.cls-7{fill:url(#linear-gradient-3);}.cls-8{fill:url(#linear-gradient-4);}.cls-9{fill:url(#radial-gradient-2);}.cls-10{fill:url(#linear-gradient-5);}.cls-11{fill:url(#radial-gradient-3);}.cls-12{fill:url(#linear-gradient-6);}.cls-13{fill:url(#linear-gradient-7);}.cls-14{fill:url(#linear-gradient-8);}.cls-15{fill:url(#linear-gradient-9);}.cls-16{fill:url(#linear-gradient-10);}.cls-17{fill:url(#linear-gradient-11);}.cls-18{fill:url(#radial-gradient-4);}.cls-19{fill:url(#linear-gradient-12);}.cls-20{fill:url(#linear-gradient-13);}.cls-21{fill:url(#linear-gradient-14);}.cls-22{fill:url(#linear-gradient-15);}.cls-23{fill:url(#radial-gradient-5);}.cls-24{fill:url(#linear-gradient-16);}.cls-25{fill:#ddccd0;}.cls-26{fill:#1f93b4;}.cls-27{fill:#017fab;}.cls-28{fill:#147fa8;}.cls-29{fill:#e8dfcc;}.cls-30{fill:#dac9d3;}.cls-31{fill:#ceb9b4;}.cls-32{fill:#3d9977;}.cls-33{fill:#42b38e;}.cls-34{fill:#17a180;}.cls-35{fill:#bf408f;}.cls-36{fill:#c75497;}.cls-37{stroke:#fff;}.cls-37,.cls-38,.cls-39{stroke-miterlimit:10;}.cls-38{stroke:#000;stroke-width:0.25px;}.cls-39{stroke:#f5e837;}.cls-40{fill:#fd0;}.cls-41{fill:url(#Foliage);}.cls-42{fill:#cf7d4c;}.cls-43{fill:#c97d5b;}.cls-44{fill:#bf8a6c;}.cls-45{fill:#c98a61;}.cls-46{fill:#b36569;}.cls-47{fill:#a5756b;}.cls-48{fill:#955c69;}.cls-49{fill:#aed28c;}</style><linearGradient id="linear-gradient" x1="-38892.45" y1="-52899.07" x2="-38915.74" y2="-52891.14" gradientTransform="matrix(1, 0, 0, -1, 39260.56, -52670.32)" gradientUnits="userSpaceOnUse"><stop offset="0.23" stop-color="#f7a600"/><stop offset="0.76" stop-color="#fdc300"/></linearGradient><radialGradient id="radial-gradient" cx="-38813.92" cy="-52929.51" r="133.44" gradientTransform="matrix(1, 0, 0, -1, 39260.56, -52670.32)" gradientUnits="userSpaceOnUse"><stop offset="0.35" stop-color="#5ea62b"/><stop offset="0.76" stop-color="#86bc25"/></radialGradient><linearGradient id="linear-gradient-2" x1="54974.19" y1="-52843.25" x2="54974.19" y2="-52815.15" gradientTransform="translate(55391.87 -52670.32) rotate(180)" xlink:href="#linear-gradient"/><linearGradient id="linear-gradient-3" x1="55313.34" y1="-52899.07" x2="55290.05" y2="-52891.14" gradientTransform="translate(55391.87 -52670.32) rotate(180)" xlink:href="#linear-gradient"/><linearGradient id="linear-gradient-4" x1="-39231.59" y1="-52843.25" x2="-39231.59" y2="-52815.15" xlink:href="#linear-gradient"/><radialGradient id="radial-gradient-2" cx="-39260.56" cy="-52929.51" r="133.44" xlink:href="#radial-gradient"/><linearGradient id="linear-gradient-5" x1="54910.19" y1="37026.94" x2="54910.19" y2="37055.05" gradientTransform="matrix(-1, 0, 0, 1, 55327.87, -36940.69)" xlink:href="#linear-gradient"/><radialGradient id="radial-gradient-3" cx="-38813.92" cy="-52670.32" r="133.44" xlink:href="#radial-gradient"/><linearGradient id="linear-gradient-6" x1="-38892.45" y1="36985.66" x2="-38915.74" y2="36993.6" gradientTransform="translate(39260.56 -36955.23)" xlink:href="#linear-gradient"/><linearGradient id="linear-gradient-7" x1="55133.51" y1="37156.53" x2="55133.51" y2="37184.64" gradientTransform="matrix(-1, 0, 0, 1, 55327.87, -36940.69)" xlink:href="#linear-gradient"/><linearGradient id="linear-gradient-8" x1="-38944.27" y1="37156.53" x2="-38944.27" y2="37184.64" gradientTransform="translate(39196.56 -36940.69)" xlink:href="#linear-gradient"/><linearGradient id="linear-gradient-9" x1="55090.02" y1="-52769.48" x2="55066.73" y2="-52761.54" gradientTransform="translate(55391.87 -52670.32) rotate(180)" xlink:href="#linear-gradient"/><linearGradient id="linear-gradient-10" x1="-39115.77" y1="-52769.48" x2="-39139.06" y2="-52761.54" xlink:href="#linear-gradient"/><linearGradient id="linear-gradient-11" x1="-39008.27" y1="-52713.66" x2="-39008.27" y2="-52685.55" xlink:href="#linear-gradient"/><radialGradient id="radial-gradient-4" cx="-39037.24" cy="-52799.91" r="133.44" xlink:href="#radial-gradient"/><linearGradient id="linear-gradient-12" x1="55090.02" y1="37115.25" x2="55066.73" y2="37123.19" gradientTransform="matrix(-1, 0, 0, 1, 55391.87, -36955.23)" xlink:href="#linear-gradient"/><linearGradient id="linear-gradient-13" x1="-39115.77" y1="37115.25" x2="-39139.06" y2="37123.19" gradientTransform="translate(39260.56 -36955.23)" xlink:href="#linear-gradient"/><linearGradient id="linear-gradient-14" x1="55197.51" y1="-52713.66" x2="55197.51" y2="-52685.55" gradientTransform="translate(55391.87 -52670.32) rotate(180)" xlink:href="#linear-gradient"/><linearGradient id="linear-gradient-15" x1="-39167.59" y1="37026.94" x2="-39167.59" y2="37055.05" gradientTransform="translate(39196.56 -36940.69)" xlink:href="#linear-gradient"/><radialGradient id="radial-gradient-5" cx="-39260.56" cy="-52670.32" r="133.44" xlink:href="#radial-gradient"/><linearGradient id="linear-gradient-16" x1="55313.34" y1="36985.66" x2="55290.05" y2="36993.6" gradientTransform="matrix(-1, 0, 0, 1, 55391.87, -36955.23)" xlink:href="#linear-gradient"/><pattern id="Foliage" data-name="Foliage" width="446.64" height="259.18" patternTransform="translate(247.12 -28.33) rotate(-90) scale(0.7)" patternUnits="userSpaceOnUse" viewBox="0 0 446.64 259.18"><rect class="cls-1" width="446.64" height="259.18"/><path class="cls-2" d="M378.84,190.69a32.84,32.84,0,0,1,11.44,22.75c1.08-10.23,3.2-18.13,8.21-24,0,0-6.32,3.09-8.61,9.15C386.92,193.38,378.84,190.69,378.84,190.69Z"/><path class="cls-2" d="M364.84,139.81c1.22,6,6.31,11.17,12.92,13.73a21.14,21.14,0,0,1,2.16-19.79,21.48,21.48,0,0,0,5.78,18,18.19,18.19,0,0,1,1.08-13.87c-.94,8.48,6.17,12.79,15.62,18.44,12.66,7.58,17.27,16,19.25,27.23-3.46-6.87-9.91-13.14-27.86-17.29C371.49,161.14,363.39,153.88,364.84,139.81Z"/><path class="cls-3" d="M365.11,232c-4.69-4.59-6.91-12.18-7.27-21.72-.47-12.52-5.41-17.65-13.33-18.52,11.8,4.57,4.45,17.11,7.95,25.84-6.45-4.78-4.39-20.68-17.64-21.4,9.78,3.19,2.84,16.67,9.29,24.5-7.81-.11-11.4,6.12-21.54,3.23,4.72,3.63,10,5.92,18.85,5.92-6.26,3.86-9,8.63-11.31,15.35C340.24,234.61,355,230.54,365.11,232Z"/><path class="cls-4" d="M482.48,266.46c29.44,4,46.23,20.79,49.15,36.55-3.92-9.25-13-15.22-23.6-18.63,10.62,14,7.19,31.87,21.12,41.7-10.37-11-7.22-24.47-14.91-36.73,12.26,6.89,14.12,16.67,17,27.15,4.39,15.84,11.55,20.08,17.23,22.17-11.7.45-28.66-4.53-36.79-20.1-8.61-16.51-1.45-34.41-22.48-43.77,9.61,8.05,14.73,19.52,8.7,34.42,2.25-21.92-20.63-25.51-24.31-40.45-.63,11.53,7.18,21.22,14.55,25.9-10.29-3.37-19.22-9-23.42-21.82-6.93,21.39,5.31,38.45,12.9,38.45,2.62,0,4.53-1.67,4.53-4.16,0-6.45-11.64-6.45-14.59-18.86,5.32,10.83,25.55,8.88,25.55,20.76,0,9.74-13.64,14-22.36,8,6.39,8.34,21.26,8.62,25.55-1.42.66,4.3-1.31,10.75-7.45,13.13-7,2.7-13.49-2.49-13.49-2.49,7.64,11,20.94,3.67,34.07,3.91,10.87.19,18.11,5.82,21.29,11.17a15.32,15.32,0,0,0-7.63-1.95,21.13,21.13,0,0,1,9,21.47c-1.3-6.25-8.57-10.68-22.35-11.63-15.56-1.08-23.81-3.57-29.1-9.3,11.2,4.95,28.93-1.91,41,6-7.45-8.54-23.93-6.09-35.71-8-20.71-3.33-33.33-38.29-31.71-53.64-5.66,23.43,9.46,36.21,12.79,49.14,3.63,14.13-3.37,23.82-9.95,28.8,10.28-15.4-7.42-24.63-4.61-44.36-5.23,19.19,4.43,24.67,4.43,34.6,0,9.76-8.58,13-10.29,25.55-1.71-12.55-10.29-15.79-10.29-25.55,0-9.93,9.66-15.41,4.43-34.6,2.81,19.73-14.89,29-4.61,44.36-6.58-5-13.58-14.67-9.95-28.8,3.33-12.93,18.45-25.71,12.79-49.14,1.62,15.35-11,50.31-31.71,53.64-11.78,1.89-28.26-.56-35.71,8,12.05-7.94,29.78-1.08,41-6-5.29,5.73-13.54,8.22-29.09,9.3-13.79.95-21.06,5.38-22.36,11.63a21.13,21.13,0,0,1,9.05-21.47,15.32,15.32,0,0,0-7.63,1.95c3.18-5.35,10.42-11,21.29-11.17,13.13-.24,26.42,7.11,34.07-3.91,0,0-6.5,5.19-13.49,2.49-6.14-2.38-8.11-8.83-7.45-13.13,4.29,10,19.16,9.76,25.55,1.42-8.72,6.05-22.36,1.75-22.36-8,0-11.88,20.23-9.93,25.55-20.76-2.95,12.41-14.59,12.41-14.59,18.86,0,2.49,1.91,4.16,4.53,4.16,7.59,0,19.83-17.06,12.9-38.45-4.2,12.83-13.13,18.45-23.42,21.82,7.37-4.68,15.18-14.37,14.55-25.9-3.68,14.94-26.56,18.53-24.31,40.45-6-14.9-.91-26.37,8.7-34.42-21,9.36-13.87,27.26-22.48,43.77-8.13,15.57-25.09,20.55-36.79,20.1,5.68-2.09,12.84-6.33,17.23-22.17,2.89-10.48,4.76-20.26,17-27.15-7.69,12.26-4.54,25.69-14.9,36.73,13.92-9.83,10.49-27.69,21.11-41.7-10.62,3.41-19.68,9.38-23.6,18.63,2.92-15.76,19.71-32.53,49.15-36.55-30.33-1.29-36.17,15.55-51.46,16.16-9.68.39-18.13-8.39-28-13.68,12.11,3.08,31.11,11.33,41.16-2.13,0,0-6.19,5.27-18.27,3.73-12.27-1.56-23.46-9.4-54.12-11.35,30.66-2,41.85-9.8,54.12-11.36,12.08-1.54,18.27,3.72,18.27,3.72-10.05-13.45-29.05-5.19-41.16-2.12,9.9-5.29,18.35-14.06,28-13.68,15.29.61,21.13,17.45,51.46,16.16-29.44-4-46.23-20.79-49.15-36.55,3.92,9.25,13,15.22,23.6,18.63-10.62-14-7.19-31.87-21.11-41.7,10.36,11,7.21,24.47,14.9,36.73-12.26-6.89-14.13-16.67-17-27.14-4.39-15.85-11.55-20.09-17.23-22.18,11.7-.45,28.66,4.53,36.79,20.1,8.61,16.51,1.44,34.41,22.48,43.77-9.61-8.06-14.73-19.52-8.7-34.42-2.25,21.92,20.63,25.5,24.31,40.45.63-11.53-7.18-21.22-14.55-25.9,10.29,3.37,19.22,9,23.42,21.82,6.93-21.39-5.31-38.45-12.9-38.45-2.62,0-4.53,1.67-4.53,4.16,0,6.45,11.64,6.45,14.59,18.86-5.32-10.83-25.55-8.87-25.55-20.76,0-9.74,13.64-14,22.36-8-6.39-8.34-21.26-8.62-25.55,1.42-.66-4.3,1.31-10.75,7.45-13.13,7-2.7,13.49,2.49,13.49,2.49-7.65-11-20.94-3.67-34.07-3.91C373,188,365.72,182.39,362.54,177a15.32,15.32,0,0,0,7.63,2,21.13,21.13,0,0,1-9.05-21.47c1.3,6.25,8.57,10.68,22.36,11.63,15.55,1.08,23.8,3.57,29.09,9.31-11.2-5-28.93,1.9-41-6,7.45,8.54,23.93,6.09,35.71,8C428,183.73,440.63,218.69,439,234c5.66-23.42-9.46-36.2-12.79-49.13-3.63-14.13,3.37-23.83,9.95-28.8-10.28,15.4,7.42,24.63,4.61,44.36,5.23-19.19-4.43-24.67-4.43-34.6,0-9.76,8.58-13,10.29-25.55,1.71,12.55,10.29,15.79,10.29,25.55,0,9.93-9.66,15.41-4.43,34.6-2.81-19.73,14.89-29,4.61-44.36,6.58,5,13.58,14.67,9.95,28.8-3.33,12.93-18.45,25.71-12.79,49.13-1.62-15.34,11-50.3,31.71-53.63,11.78-1.89,28.26.56,35.71-8-12.05,7.94-29.78,1.08-41,6,5.29-5.74,13.54-8.23,29.1-9.31,13.78-1,21.05-5.38,22.35-11.63a21.13,21.13,0,0,1-9,21.47,15.32,15.32,0,0,0,7.63-2c-3.18,5.35-10.42,11-21.29,11.17-13.13.24-26.43-7.11-34.07,3.91,0,0,6.5-5.19,13.49-2.49,6.14,2.38,8.11,8.83,7.45,13.13-4.29-10-19.16-9.76-25.55-1.42,8.72-6.05,22.36-1.75,22.36,8,0,11.89-20.23,9.93-25.55,20.76,2.95-12.41,14.59-12.41,14.59-18.86,0-2.49-1.91-4.16-4.53-4.16-7.59,0-19.83,17.06-12.9,38.45,4.2-12.83,13.13-18.45,23.42-21.82-7.37,4.68-15.18,14.37-14.55,25.9,3.68-14.95,26.56-18.53,24.31-40.45,6,14.9.91,26.36-8.7,34.42,21-9.36,13.87-27.26,22.48-43.77,8.13-15.57,25.09-20.55,36.79-20.1-5.68,2.09-12.84,6.33-17.23,22.18-2.9,10.47-4.76,20.25-17,27.14,7.69-12.26,4.54-25.69,14.91-36.73C515.22,202.12,518.65,220,508,234c10.62-3.41,19.68-9.38,23.6-18.63-2.92,15.76-19.71,32.53-49.15,36.55,30.33,1.29,36.17-15.55,51.45-16.16,9.69-.38,18.14,8.39,28,13.68-12.11-3.07-31.11-11.33-41.16,2.12,0,0,6.19-5.26,18.27-3.72,12.27,1.56,23.46,9.4,54.12,11.36-30.66,1.95-41.85,9.79-54.12,11.35-12.08,1.54-18.27-3.73-18.27-3.73,10.05,13.46,29.05,5.21,41.16,2.13-9.9,5.29-18.35,14.07-28,13.68C518.65,282,512.81,265.17,482.48,266.46Zm33.36-7.27c4.61,1.24,8.63,3.77,14.49,3.77,7.11,0,11.07-2.76,16.74-3.77-5.67-1-9.63-3.77-16.74-3.77C524.47,255.42,520.45,257.94,515.84,259.19Zm-72.22-90.32c0,5.13,3,8.4,3,12.13,0-3.73,3-7,3-12.13,0-4.56-2.25-6.65-3-11.43C445.87,162.22,443.62,164.31,443.62,168.87Zm-66.18,90.32c-4.61-1.25-8.63-3.77-14.49-3.77-7.11,0-11.07,2.75-16.74,3.77,5.67,1,9.63,3.77,16.74,3.77C368.81,263,372.83,260.43,377.44,259.19Zm72.22,90.31c0-5.13-3-8.4-3-12.13,0,3.73-3,7-3,12.13,0,4.56,2.25,6.65,3,11.43C447.41,356.15,449.66,354.06,449.66,349.5Zm42-90.31c-9.94,0-24.09-5-35-3a24.73,24.73,0,0,0,7.46-6.74c-4.41.43-6.76.79-10.12,2.3,2.66-6,3.2-9.4,3.73-15.43a31.42,31.42,0,0,0-6.57,10.64c.71-12.42-4.25-15.24-4.61-31.76-.36,16.52-5.32,19.34-4.61,31.76a31.42,31.42,0,0,0-6.57-10.64c.53,6,1.07,9.42,3.73,15.43-3.36-1.51-5.71-1.87-10.12-2.3a24.73,24.73,0,0,0,7.46,6.74c-10.87-2-25,3-35,3,9.94,0,24.09,5,35,3a24.73,24.73,0,0,0-7.46,6.74c4.41-.43,6.76-.79,10.12-2.3-2.66,6-3.2,9.4-3.73,15.43A31.42,31.42,0,0,0,442,271.43c-.71,12.42,4.25,15.24,4.61,31.76.36-16.52,5.32-19.34,4.61-31.76a31.42,31.42,0,0,0,6.57,10.64c-.53-6-1.07-9.42-3.73-15.43,3.36,1.51,5.71,1.87,10.12,2.3a24.73,24.73,0,0,0-7.46-6.74C467.62,264.17,481.77,259.19,491.71,259.19Z"/><path class="cls-5" d="M391.76,137.92c2.64,13.83,25.37,16.26,30.29,34.06,3.77-19.12,21.29-19.87,21.54-33.12-3.18,7.8-10.84,5.79-15.89,12.12.85-6.15,4.64-11.89,12.39-15.08-7.67-1.07-15.63,1.83-19.12,9.56-2.55-4.17-2.81-8.45-.67-13.87a15.2,15.2,0,0,0-5.65,16.56C407.38,140.88,396.74,144.92,391.76,137.92Z"/><path class="cls-6" d="M464.86,259.19c-4.26-.67-9.39-3.21-14.13-1.22,2.32-1.81,1.14-3.52,2.53-5.2-1.92,1.39-3.51.5-5,2.74,1.54-5.31-.53-8.14-1.63-14.11-1.1,6-3.17,8.8-1.63,14.11-1.48-2.24-3.07-1.35-5-2.74,1.39,1.68.21,3.39,2.53,5.2-4.74-2-9.87.55-14.13,1.22,4.26.66,9.39,3.19,14.13,1.21-2.32,1.81-1.14,3.52-2.53,5.2,1.92-1.39,3.51-.5,5-2.74-1.54,5.31.53,8.14,1.63,14.12,1.1-6,3.17-8.81,1.63-14.12,1.48,2.24,3.07,1.35,5,2.74-1.39-1.68-.21-3.39-2.53-5.2C455.47,262.38,460.6,259.85,464.86,259.19Z"/><path class="cls-7" d="M81.53,232c4.69-4.59,6.91-12.18,7.27-21.72.47-12.52,5.41-17.65,13.33-18.52-11.8,4.57-4.45,17.11-7.95,25.84,6.44-4.78,4.39-20.68,17.64-21.4-9.78,3.19-2.84,16.67-9.29,24.5,7.81-.11,11.4,6.12,21.54,3.23-4.72,3.63-10,5.92-18.85,5.92,6.26,3.86,9,8.63,11.31,15.35C106.4,234.61,91.68,230.54,81.53,232Z"/><path class="cls-2" d="M67.8,190.69a32.84,32.84,0,0,0-11.44,22.75c-1.08-10.23-3.2-18.13-8.21-24,0,0,6.32,3.09,8.61,9.15C59.72,193.38,67.8,190.69,67.8,190.69Z"/><path class="cls-2" d="M81.8,139.81c-1.22,6-6.31,11.17-12.92,13.73a21.14,21.14,0,0,0-2.16-19.79,21.46,21.46,0,0,1-5.79,18,18.14,18.14,0,0,0-1.07-13.87c.94,8.48-6.17,12.79-15.62,18.44C31.58,163.94,27,172.41,25,183.59c3.45-6.87,9.91-13.14,27.86-17.29C75.15,161.14,83.25,153.88,81.8,139.81Z"/><path class="cls-8" d="M54.88,137.92C52.24,151.75,29.51,154.18,24.59,172c-3.77-19.12-21.3-19.87-21.54-33.12,3.18,7.8,10.84,5.79,15.89,12.12-.85-6.15-4.64-11.89-12.39-15.08,7.67-1.07,15.63,1.83,19.12,9.56,2.55-4.17,2.81-8.45.67-13.87A15.2,15.2,0,0,1,32,148.15C39.26,140.88,49.9,144.92,54.88,137.92Z"/><path class="cls-9" d="M35.84,266.46c29.44,4,46.23,20.79,49.15,36.55-3.92-9.25-13-15.22-23.6-18.63,10.61,14,7.19,31.87,21.11,41.7-10.36-11-7.21-24.47-14.9-36.73,12.26,6.89,14.12,16.67,17,27.15,4.39,15.84,11.55,20.08,17.22,22.17-11.69.45-28.66-4.53-36.78-20.1-8.61-16.51-1.45-34.41-22.48-43.77,9.6,8.05,14.73,19.52,8.7,34.42C53.53,287.3,30.65,283.71,27,268.77c-.63,11.53,7.18,21.22,14.55,25.9-10.29-3.37-19.22-9-23.42-21.82C11.17,294.24,23.41,311.3,31,311.3c2.62,0,4.53-1.67,4.53-4.16,0-6.45-11.64-6.45-14.59-18.86,5.32,10.83,25.55,8.88,25.55,20.76,0,9.74-13.64,14-22.36,8,6.39,8.34,21.26,8.62,25.55-1.42.66,4.3-1.31,10.75-7.45,13.13-7,2.7-13.49-2.49-13.49-2.49,7.64,11,20.94,3.67,34.07,3.91,10.87.19,18.11,5.82,21.29,11.17a15.32,15.32,0,0,0-7.63-1.95,21.14,21.14,0,0,1,9,21.47c-1.3-6.25-8.57-10.68-22.35-11.63-15.56-1.08-23.81-3.57-29.1-9.3,11.2,4.95,28.93-1.91,41,6-7.45-8.54-23.93-6.09-35.71-8C18.63,334.64,6,299.68,7.63,284.33,2,307.76,17.09,320.54,20.42,333.47c3.63,14.13-3.37,23.82-10,28.8,10.28-15.4-7.42-24.63-4.62-44.36-5.22,19.19,4.44,24.67,4.44,34.6,0,9.76-8.58,13-10.29,25.55-1.71-12.55-10.29-15.79-10.29-25.55,0-9.93,9.66-15.41,4.43-34.6,2.81,19.73-14.89,29-4.61,44.36-6.58-5-13.58-14.67-10-28.8C-17.09,320.54-2,307.76-7.63,284.33c1.62,15.35-11,50.31-31.71,53.64-11.78,1.89-28.26-.56-35.71,8,12-7.94,29.78-1.08,41-6-5.29,5.73-13.54,8.22-29.09,9.3-13.79.95-21.06,5.38-22.36,11.63a21.13,21.13,0,0,1,9-21.47,15.32,15.32,0,0,0-7.63,1.95c3.18-5.35,10.42-11,21.29-11.17,13.13-.24,26.42,7.11,34.07-3.91,0,0-6.5,5.19-13.49,2.49-6.14-2.38-8.11-8.83-7.45-13.13,4.29,10,19.16,9.76,25.55,1.42-8.72,6.05-22.36,1.75-22.36-8,0-11.88,20.23-9.93,25.55-20.76-2.95,12.41-14.59,12.41-14.59,18.86,0,2.49,1.91,4.16,4.53,4.16,7.59,0,19.83-17.06,12.9-38.45-4.2,12.83-13.13,18.45-23.42,21.82C-34.15,290-26.34,280.3-27,268.77c-3.68,14.94-26.56,18.53-24.31,40.45-6-14.9-.91-26.37,8.7-34.42-21,9.36-13.87,27.26-22.49,43.77-8.12,15.57-25.08,20.55-36.78,20.1,5.68-2.09,12.84-6.33,17.23-22.17,2.89-10.48,4.76-20.26,17-27.15-7.69,12.26-4.54,25.69-14.9,36.73,13.92-9.83,10.49-27.69,21.11-41.7C-72,287.79-81.07,293.76-85,303c2.91-15.76,19.71-32.53,49.15-36.55C-66.17,265.17-72,282-87.3,282.62c-9.68.39-18.13-8.39-28-13.68,12.11,3.08,31.11,11.33,41.16-2.13,0,0-6.19,5.27-18.27,3.73-12.27-1.56-23.46-9.4-54.12-11.35,30.66-2,41.85-9.8,54.12-11.36,12.08-1.54,18.27,3.72,18.27,3.72-10-13.45-29-5.19-41.16-2.12,9.9-5.29,18.35-14.06,28-13.68,15.29.61,21.13,17.45,51.46,16.16-29.44-4-46.24-20.79-49.15-36.55,3.92,9.25,13,15.22,23.6,18.63-10.62-14-7.19-31.87-21.11-41.7,10.36,11,7.21,24.47,14.9,36.73-12.26-6.89-14.13-16.67-17-27.14C-89,186-96.17,181.79-101.85,179.7c11.7-.45,28.66,4.53,36.78,20.1,8.62,16.51,1.45,34.41,22.49,43.77-9.61-8.06-14.73-19.52-8.7-34.42-2.25,21.92,20.63,25.5,24.31,40.45.63-11.53-7.18-21.22-14.55-25.9,10.29,3.37,19.22,9,23.42,21.82,6.93-21.39-5.31-38.45-12.9-38.45-2.62,0-4.53,1.67-4.53,4.16,0,6.45,11.64,6.45,14.59,18.86-5.32-10.83-25.55-8.87-25.55-20.76,0-9.74,13.64-14,22.36-8-6.39-8.34-21.26-8.62-25.55,1.42-.66-4.3,1.31-10.75,7.45-13.13,7-2.7,13.49,2.49,13.49,2.49-7.65-11-20.94-3.67-34.07-3.91C-73.68,188-80.92,182.39-84.1,177a15.32,15.32,0,0,0,7.63,2,21.13,21.13,0,0,1-9-21.47c1.3,6.25,8.57,10.68,22.36,11.63,15.55,1.08,23.8,3.57,29.09,9.31-11.2-5-28.93,1.9-41-6,7.45,8.54,23.93,6.09,35.71,8C-18.63,183.73-6,218.69-7.63,234c5.65-23.42-9.46-36.2-12.79-49.13-3.63-14.13,3.37-23.83,10-28.8C-20.75,171.5-3,180.73-5.86,200.46c5.23-19.19-4.43-24.67-4.43-34.6,0-9.76,8.58-13,10.29-25.55,1.71,12.55,10.29,15.79,10.29,25.55,0,9.93-9.66,15.41-4.44,34.6-2.8-19.73,14.9-29,4.62-44.36,6.58,5,13.58,14.67,10,28.8C17.09,197.83,2,210.61,7.63,234c-1.62-15.34,11-50.3,31.71-53.63,11.78-1.89,28.26.56,35.71-8-12,7.94-29.78,1.08-41,6,5.29-5.74,13.54-8.23,29.1-9.31,13.78-1,21-5.38,22.35-11.63a21.14,21.14,0,0,1-9,21.47,15.32,15.32,0,0,0,7.63-2c-3.18,5.35-10.42,11-21.29,11.17-13.13.24-26.43-7.11-34.07,3.91,0,0,6.5-5.19,13.49-2.49,6.14,2.38,8.11,8.83,7.45,13.13-4.29-10-19.16-9.76-25.55-1.42,8.72-6.05,22.36-1.75,22.36,8,0,11.89-20.23,9.93-25.55,20.76,2.95-12.41,14.59-12.41,14.59-18.86,0-2.49-1.91-4.16-4.53-4.16-7.59,0-19.83,17.06-12.9,38.45,4.2-12.83,13.13-18.45,23.42-21.82-7.37,4.68-15.18,14.37-14.55,25.9,3.68-14.95,26.56-18.53,24.31-40.45,6,14.9.9,26.36-8.7,34.42,21-9.36,13.87-27.26,22.48-43.77,8.12-15.57,25.09-20.55,36.78-20.1C96.17,181.79,89,186,84.62,201.88c-2.9,10.47-4.76,20.25-17,27.14,7.69-12.26,4.54-25.69,14.9-36.73C68.58,202.12,72,220,61.39,234,72,230.58,81.07,224.61,85,215.36c-2.92,15.76-19.71,32.53-49.15,36.55C66.17,253.2,72,236.36,87.29,235.75c9.69-.38,18.14,8.39,28,13.68-12.11-3.07-31.11-11.33-41.16,2.12,0,0,6.19-5.26,18.27-3.72,12.27,1.56,23.46,9.4,54.12,11.36-30.66,1.95-41.85,9.79-54.12,11.35-12.08,1.54-18.27-3.73-18.27-3.73,10,13.46,29.05,5.21,41.16,2.13-9.9,5.29-18.35,14.07-28,13.68C72,282,66.17,265.17,35.84,266.46Zm33.36-7.27c4.61,1.24,8.63,3.77,14.48,3.77,7.12,0,11.08-2.76,16.74-3.77-5.66-1-9.62-3.77-16.74-3.77C77.83,255.42,73.81,257.94,69.2,259.19ZM-3,168.87c0,5.13,3,8.4,3,12.13,0-3.73,3-7,3-12.13,0-4.56-2.25-6.65-3-11.43C-.77,162.22-3,164.31-3,168.87ZM-69.2,259.19c-4.61-1.25-8.63-3.77-14.49-3.77-7.11,0-11.07,2.75-16.74,3.77,5.67,1,9.63,3.77,16.74,3.77C-77.83,263-73.81,260.43-69.2,259.19ZM3,349.5c0-5.13-3-8.4-3-12.13,0,3.73-3,7-3,12.13,0,4.56,2.25,6.65,3,11.43C.77,356.15,3,354.06,3,349.5Zm42.05-90.31c-9.94,0-24.09-5-35-3a24.73,24.73,0,0,0,7.46-6.74c-4.41.43-6.76.79-10.12,2.3,2.66-6,3.2-9.4,3.73-15.43a31.42,31.42,0,0,0-6.57,10.64C5.32,234.52.35,231.7,0,215.18c-.36,16.52-5.32,19.34-4.61,31.76a31.42,31.42,0,0,0-6.57-10.64c.53,6,1.07,9.42,3.73,15.43-3.36-1.51-5.71-1.87-10.12-2.3a24.73,24.73,0,0,0,7.46,6.74c-10.87-2-25,3-35,3,9.94,0,24.09,5,35,3a24.73,24.73,0,0,0-7.46,6.74c4.41-.43,6.76-.79,10.12-2.3-2.66,6-3.2,9.4-3.73,15.43a31.42,31.42,0,0,0,6.57-10.64C-5.32,283.85-.36,286.67,0,303.19c.35-16.52,5.32-19.34,4.61-31.76a31.42,31.42,0,0,0,6.57,10.64c-.53-6-1.07-9.42-3.73-15.43,3.36,1.51,5.71,1.87,10.12,2.3a24.73,24.73,0,0,0-7.46-6.74C21,264.17,35.13,259.19,45.07,259.19Z"/><path class="cls-6" d="M18.22,259.19C14,258.52,8.83,256,4.09,258c2.32-1.81,1.14-3.52,2.53-5.2-1.92,1.39-3.51.5-5,2.74C3.17,250.2,1.1,247.37,0,241.4c-1.1,6-3.17,8.8-1.63,14.11-1.48-2.24-3.07-1.35-5-2.74,1.39,1.68.21,3.39,2.53,5.2-4.74-2-9.87.55-14.13,1.22,4.26.66,9.39,3.19,14.13,1.21-2.32,1.81-1.14,3.52-2.53,5.2,1.92-1.39,3.51-.5,5-2.74C-3.17,268.17-1.1,271,0,277c1.1-6,3.17-8.81,1.63-14.12,1.48,2.24,3.07,1.35,5,2.74-1.39-1.68-.21-3.39-2.53-5.2C8.83,262.38,14,259.85,18.22,259.19Z"/><path class="cls-10" d="M391.76,121.26c2.64-13.83,25.37-16.25,30.29-34.05,3.77,19.11,21.29,19.87,21.54,33.11-3.18-7.8-10.84-5.78-15.89-12.11.85,6.15,4.64,11.89,12.39,15.07-7.67,1.08-15.63-1.83-19.12-9.56-2.55,4.18-2.81,8.45-.67,13.87A15.19,15.19,0,0,1,414.65,111C407.38,118.3,396.74,114.26,391.76,121.26Z"/><path class="cls-2" d="M378.84,68.5a32.84,32.84,0,0,0,11.44-22.75c1.08,10.23,3.2,18.13,8.21,24,0,0-6.32-3.1-8.61-9.16C386.92,65.8,378.84,68.5,378.84,68.5Z"/><path class="cls-2" d="M364.84,119.38c1.22-6,6.31-11.18,12.92-13.73a21.14,21.14,0,0,0,2.16,19.79,21.47,21.47,0,0,1,5.78-18,18.16,18.16,0,0,0,1.08,13.86c-.94-8.48,6.17-12.78,15.62-18.44,12.66-7.58,17.27-16,19.25-27.22-3.46,6.86-9.91,13.13-27.86,17.29C371.49,98.05,363.39,105.3,364.84,119.38Z"/><path class="cls-11" d="M482.48,7.27c29.44,4,46.23,20.79,49.15,36.56-3.92-9.26-13-15.23-23.6-18.64,10.62,14,7.19,31.87,21.12,41.7-10.37-11-7.22-24.46-14.91-36.73,12.26,6.9,14.12,16.67,17,27.15,4.39,15.84,11.55,20.09,17.23,22.18-11.7.45-28.66-4.53-36.79-20.1-8.61-16.51-1.45-34.41-22.48-43.78,9.61,8.06,14.73,19.52,8.7,34.43,2.25-21.93-20.63-25.51-24.31-40.46-.63,11.53,7.18,21.22,14.55,25.91-10.29-3.38-19.22-9-23.42-21.83-6.93,21.39,5.31,38.46,12.9,38.46,2.62,0,4.53-1.67,4.53-4.17,0-6.45-11.64-6.45-14.59-18.85,5.32,10.82,25.55,8.87,25.55,20.76,0,9.74-13.64,14-22.36,8,6.39,8.34,21.26,8.62,25.55-1.42.66,4.31-1.31,10.76-7.45,13.13-7,2.7-13.49-2.48-13.49-2.48,7.64,11,20.94,3.67,34.07,3.9,10.87.19,18.11,5.82,21.29,11.18a15.11,15.11,0,0,0-7.63-2,21.12,21.12,0,0,1,9,21.47C530.86,95.42,523.59,91,509.81,90c-15.56-1.07-23.81-3.57-29.1-9.3,11.2,5,28.93-1.91,41,6-7.45-8.54-23.93-6.09-35.71-8-20.71-3.32-33.33-38.28-31.71-53.63-5.66,23.42,9.46,36.2,12.79,49.13,3.63,14.14-3.37,23.83-9.95,28.81,10.28-15.4-7.42-24.63-4.61-44.36-5.23,19.19,4.43,24.66,4.43,34.6,0,9.76-8.58,13-10.29,25.55-1.71-12.56-10.29-15.79-10.29-25.55,0-9.94,9.66-15.41,4.43-34.6,2.81,19.73-14.89,29-4.61,44.36-6.58-5-13.58-14.67-9.95-28.81,3.33-12.93,18.45-25.71,12.79-49.13,1.62,15.35-11,50.31-31.71,53.63-11.78,1.89-28.26-.56-35.71,8,12.05-7.94,29.78-1.07,41-6C407.28,86.46,399,89,383.48,90c-13.79,1-21.06,5.39-22.36,11.64a21.12,21.12,0,0,1,9.05-21.47,15.11,15.11,0,0,0-7.63,2c3.18-5.36,10.42-11,21.29-11.18,13.13-.23,26.42,7.11,34.07-3.9,0,0-6.5,5.18-13.49,2.48-6.14-2.37-8.11-8.82-7.45-13.13,4.29,10,19.16,9.76,25.55,1.42-8.72,6-22.36,1.76-22.36-8,0-11.89,20.23-9.94,25.55-20.76C422.75,41.5,411.11,41.5,411.11,48c0,2.5,1.91,4.17,4.53,4.17,7.59,0,19.83-17.07,12.9-38.46-4.2,12.84-13.13,18.45-23.42,21.83,7.37-4.69,15.18-14.38,14.55-25.91C416,24.53,393.11,28.11,395.36,50c-6-14.91-.91-26.37,8.7-34.43C383,25,390.19,42.88,381.58,59.39c-8.13,15.57-25.09,20.55-36.79,20.1,5.68-2.09,12.84-6.34,17.23-22.18,2.89-10.48,4.76-20.25,17-27.15-7.69,12.27-4.54,25.69-14.9,36.73,13.92-9.83,10.49-27.68,21.11-41.7-10.62,3.41-19.68,9.38-23.6,18.64,2.92-15.77,19.71-32.53,49.15-36.56C380.47,6,374.63,22.83,359.34,23.44c-9.68.38-18.13-8.4-28-13.68,12.11,3.07,31.11,11.33,41.16-2.13,0,0-6.19,5.26-18.27,3.73C341.93,9.8,330.74,2,300.08,0c30.66-2,41.85-9.8,54.12-11.36,12.08-1.53,18.27,3.73,18.27,3.73-10.05-13.46-29.05-5.2-41.16-2.13,9.9-5.29,18.35-14.06,28-13.68C374.63-22.83,380.47-6,410.8-7.28c-29.44-4-46.23-20.79-49.15-36.54,3.92,9.24,13,15.22,23.6,18.62-10.62-14-7.19-31.86-21.11-41.69,10.36,11,7.21,24.46,14.9,36.73-12.26-6.9-14.13-16.67-17-27.15-4.39-15.85-11.55-20.09-17.23-22.18,11.7-.45,28.66,4.53,36.79,20.1C390.19-42.87,383-25,404.06-15.62c-9.61-8.05-14.73-19.51-8.7-34.42C393.11-28.11,416-24.53,419.67-9.58c.63-11.53-7.18-21.22-14.55-25.91,10.29,3.37,19.22,9,23.42,21.83,6.93-21.39-5.31-38.46-12.9-38.46-2.62,0-4.53,1.67-4.53,4.17,0,6.45,11.64,6.45,14.59,18.85-5.32-10.82-25.55-8.87-25.55-20.76,0-9.74,13.64-14,22.36-8-6.39-8.34-21.26-8.62-25.55,1.42-.66-4.31,1.31-10.76,7.45-13.13,7-2.7,13.49,2.48,13.49,2.48-7.65-11-20.94-3.67-34.07-3.9-10.87-.19-18.11-5.82-21.29-11.18a15.11,15.11,0,0,0,7.63,2,21.13,21.13,0,0,1-9.05-21.47c1.3,6.25,8.57,10.68,22.36,11.64,15.55,1.07,23.8,3.57,29.09,9.3-11.2-5-28.93,1.91-41-6,7.45,8.54,23.93,6.09,35.71,8C428-75.46,440.63-40.5,439-25.15c5.66-23.42-9.46-36.2-12.79-49.14-3.63-14.13,3.37-23.82,9.95-28.8-10.28,15.4,7.42,24.63,4.61,44.36,5.23-19.19-4.43-24.66-4.43-34.6,0-9.76,8.58-13,10.29-25.55,1.71,12.56,10.29,15.79,10.29,25.55,0,9.94-9.66,15.41-4.43,34.6-2.81-19.73,14.89-29,4.61-44.36,6.58,5,13.58,14.67,9.95,28.8-3.33,12.94-18.45,25.72-12.79,49.14-1.62-15.35,11-50.31,31.71-53.63,11.78-1.89,28.26.56,35.71-8-12.05,7.94-29.78,1.07-41,6C486-86.46,494.25-89,509.81-90c13.78-1,21.05-5.39,22.35-11.64a21.13,21.13,0,0,1-9,21.47,15.11,15.11,0,0,0,7.63-2c-3.18,5.36-10.42,11-21.29,11.18-13.13.23-26.43-7.11-34.07,3.9,0,0,6.5-5.18,13.49-2.48,6.14,2.37,8.11,8.82,7.45,13.13-4.29-10-19.16-9.76-25.55-1.42,8.72-6,22.36-1.76,22.36,8,0,11.89-20.23,9.94-25.55,20.76,2.95-12.4,14.59-12.4,14.59-18.85,0-2.5-1.91-4.17-4.53-4.17-7.59,0-19.83,17.07-12.9,38.46,4.2-12.84,13.13-18.46,23.42-21.83C480.79-30.8,473-21.11,473.61-9.58c3.68-14.95,26.56-18.53,24.31-40.46,6,14.91.91,26.37-8.7,34.42,21-9.36,13.87-27.25,22.48-43.77,8.13-15.57,25.09-20.55,36.79-20.1-5.68,2.09-12.84,6.33-17.23,22.18-2.9,10.48-4.76,20.25-17,27.15,7.69-12.27,4.54-25.69,14.91-36.73C515.22-57.06,518.65-39.21,508-25.2c10.62-3.4,19.68-9.38,23.6-18.62-2.92,15.75-19.71,32.52-49.15,36.54,30.33,1.3,36.17-15.55,51.45-16.16,9.69-.38,18.14,8.39,28,13.68-12.11-3.07-31.11-11.33-41.16,2.13,0,0,6.19-5.26,18.27-3.73C551.35-9.8,562.54-2,593.2,0c-30.66,2-41.85,9.8-54.12,11.36C527,12.89,520.81,7.63,520.81,7.63c10.05,13.46,29.05,5.2,41.16,2.13-9.9,5.28-18.35,14.06-28,13.68C518.65,22.83,512.81,6,482.48,7.27ZM515.84,0c4.61,1.24,8.63,3.77,14.49,3.77C537.44,3.77,541.4,1,547.07,0c-5.67-1-9.63-3.77-16.74-3.77C524.47-3.77,520.45-1.24,515.84,0ZM443.62-90.31c0,5.12,3,8.4,3,12.12,0-3.72,3-7,3-12.12,0-4.57-2.25-6.65-3-11.44C445.87-97,443.62-94.88,443.62-90.31ZM377.44,0c-4.61-1.24-8.63-3.77-14.49-3.77C355.84-3.77,351.88-1,346.21,0c5.67,1,9.63,3.77,16.74,3.77C368.81,3.77,372.83,1.24,377.44,0Zm72.22,90.31c0-5.12-3-8.4-3-12.12,0,3.72-3,7-3,12.12,0,4.57,2.25,6.65,3,11.43C447.41,97,449.66,94.88,449.66,90.31ZM491.71,0c-9.94,0-24.09-5-35-3a24.73,24.73,0,0,0,7.46-6.74c-4.41.43-6.76.8-10.12,2.31,2.66-6,3.2-9.4,3.73-15.44a31.47,31.47,0,0,0-6.57,10.65C452-24.66,447-27.49,446.64-44c-.36,16.51-5.32,19.34-4.61,31.76a31.47,31.47,0,0,0-6.57-10.65c.53,6,1.07,9.42,3.73,15.44-3.36-1.51-5.71-1.88-10.12-2.31A24.73,24.73,0,0,0,436.53-3c-10.87-2-25,3-35,3,9.94,0,24.09,5,35,3a24.6,24.6,0,0,0-7.46,6.74c4.41-.43,6.76-.8,10.12-2.31-2.66,6-3.2,9.4-3.73,15.44A31.47,31.47,0,0,0,442,12.24c-.71,12.42,4.25,15.25,4.61,31.76.36-16.51,5.32-19.34,4.61-31.76a31.47,31.47,0,0,0,6.57,10.65c-.53-6-1.07-9.42-3.73-15.44,3.36,1.51,5.71,1.88,10.12,2.31A24.6,24.6,0,0,0,456.75,3C467.62,5,481.77,0,491.71,0Z"/><path class="cls-12" d="M365.11,27.17c-4.69,4.6-6.91,12.19-7.27,21.72-.47,12.53-5.41,17.66-13.33,18.53,11.8-4.58,4.45-17.12,7.95-25.85C346,46.36,348.07,62.25,334.82,63c9.78-3.2,2.84-16.68,9.29-24.5-7.81.1-11.4-6.13-21.54-3.23,4.72-3.64,10-5.93,18.85-5.93-6.26-3.86-9-8.62-11.31-15.34C340.24,24.57,355,28.64,365.11,27.17Z"/><path class="cls-6" d="M464.86,0c-4.26-.66-9.39-3.2-14.13-1.22,2.32-1.8,1.14-3.51,2.53-5.2-1.92,1.39-3.51.51-5,2.75,1.54-5.31-.53-8.14-1.63-14.12-1.1,6-3.17,8.81-1.63,14.12-1.48-2.24-3.07-1.36-5-2.75,1.39,1.69.21,3.4,2.53,5.2-4.74-2-9.87.56-14.13,1.22,4.26.67,9.39,3.2,14.13,1.22-2.32,1.8-1.14,3.51-2.53,5.2,1.92-1.39,3.51-.5,5-2.75-1.54,5.31.53,8.14,1.63,14.12,1.1-6,3.17-8.81,1.63-14.12,1.48,2.25,3.07,1.36,5,2.75-1.39-1.69-.21-3.4-2.53-5.2C455.47,3.2,460.6.67,464.86,0Z"/><path class="cls-13" d="M168.44,250.86c2.64-13.83,25.37-16.26,30.29-34.06,3.77,19.11,21.29,19.87,21.54,33.11-3.18-7.8-10.84-5.78-15.89-12.11.85,6.15,4.64,11.89,12.39,15.07-7.68,1.08-15.63-1.83-19.12-9.55-2.56,4.17-2.81,8.45-.67,13.86a15.18,15.18,0,0,1-5.65-16.55C184.06,247.89,173.42,243.86,168.44,250.86Z"/><path class="cls-14" d="M278.2,250.86c-2.64-13.83-25.37-16.26-30.29-34.06-3.77,19.11-21.3,19.87-21.54,33.11,3.18-7.8,10.84-5.78,15.89-12.11-.85,6.15-4.64,11.89-12.39,15.07C237.54,254,245.5,251,249,243.32c2.55,4.17,2.81,8.45.67,13.86a15.18,15.18,0,0,0,5.65-16.55C262.58,247.89,273.22,243.86,278.2,250.86Z"/><path class="cls-15" d="M304.85,102.42c4.69-4.59,6.91-12.18,7.27-21.72.47-12.53,5.41-17.66,13.33-18.53C313.65,66.75,321,79.29,317.5,88c6.44-4.79,4.39-20.68,17.64-21.4-9.78,3.19-2.84,16.67-9.29,24.49,7.81-.1,11.4,6.13,21.54,3.24-4.72,3.63-10,5.92-18.85,5.92,6.26,3.86,9,8.63,11.31,15.34C329.72,105,315,101,304.85,102.42Z"/><path class="cls-2" d="M155.52,61.1A32.82,32.82,0,0,1,167,83.85c1.08-10.23,3.2-18.14,8.21-24,0,0-6.33,3.1-8.61,9.16C163.6,63.79,155.52,61.1,155.52,61.1Z"/><path class="cls-2" d="M141.52,10.21c1.22,6,6.31,11.18,12.92,13.73A21.14,21.14,0,0,1,156.6,4.15a21.46,21.46,0,0,0,5.78,18,18.17,18.17,0,0,1,1.08-13.86c-.94,8.48,6.17,12.79,15.62,18.44,12.66,7.58,17.27,16,19.25,27.23-3.46-6.87-9.91-13.14-27.86-17.29C148.17,31.54,140.07,24.29,141.52,10.21Z"/><path class="cls-16" d="M141.79,102.42c-4.69-4.59-6.91-12.18-7.27-21.72-.47-12.53-5.41-17.66-13.33-18.53,11.8,4.58,4.45,17.12,7.94,25.85-6.44-4.79-4.38-20.68-17.63-21.4,9.78,3.19,2.83,16.67,9.29,24.49-7.81-.1-11.4,6.13-21.54,3.24,4.71,3.63,10,5.92,18.85,5.92-6.26,3.86-9,8.63-11.31,15.34C116.92,105,131.64,101,141.79,102.42Z"/><path class="cls-2" d="M291.12,61.1a32.82,32.82,0,0,0-11.44,22.75c-1.08-10.23-3.2-18.14-8.21-24,0,0,6.32,3.1,8.61,9.16C283,63.79,291.12,61.1,291.12,61.1Z"/><path class="cls-2" d="M305.12,10.21c-1.22,6-6.31,11.18-12.92,13.73A21.14,21.14,0,0,0,290,4.15a21.41,21.41,0,0,1-5.79,18,18.12,18.12,0,0,0-1.07-13.86c.94,8.48-6.17,12.79-15.62,18.44-12.66,7.58-17.27,16-19.25,27.23,3.45-6.87,9.91-13.14,27.86-17.29C298.47,31.54,306.57,24.29,305.12,10.21Z"/><path class="cls-17" d="M278.2,8.33c-2.64,13.83-25.37,16.25-30.29,34.05-3.77-19.11-21.3-19.87-21.54-33.11,3.18,7.8,10.84,5.79,15.89,12.12-.85-6.16-4.64-11.9-12.39-15.08,7.67-1.08,15.63,1.83,19.12,9.56,2.55-4.18,2.81-8.45.67-13.87a15.2,15.2,0,0,1,5.65,16.56C262.58,11.29,273.22,15.33,278.2,8.33Z"/><path class="cls-2" d="M155.52,198.09A32.84,32.84,0,0,0,167,175.34c1.08,10.23,3.2,18.13,8.21,24,0,0-6.33-3.1-8.61-9.15C163.6,195.4,155.52,198.09,155.52,198.09Z"/><path class="cls-2" d="M141.52,249c1.22-6,6.31-11.18,12.92-13.73A21.14,21.14,0,0,0,156.6,255a21.47,21.47,0,0,1,5.78-18,18.19,18.19,0,0,0,1.08,13.87c-.94-8.48,6.17-12.79,15.62-18.45,12.66-7.57,17.27-16,19.25-27.22-3.46,6.86-9.91,13.14-27.86,17.29C148.17,227.64,140.07,234.9,141.52,249Z"/><path class="cls-18" d="M259.16,136.87c29.44,4,46.23,20.79,49.15,36.55-3.92-9.25-13-15.23-23.6-18.63,10.62,14,7.19,31.86,21.12,41.69-10.37-11-7.22-24.46-14.91-36.73,12.26,6.9,14.12,16.68,17,27.15,4.39,15.85,11.55,20.09,17.23,22.18-11.7.45-28.67-4.53-36.79-20.1-8.61-16.51-1.45-34.41-22.48-43.77,9.6,8,14.73,19.51,8.7,34.42,2.25-21.93-20.63-25.51-24.31-40.46-.63,11.53,7.18,21.23,14.55,25.91-10.29-3.37-19.22-9-23.42-21.83-6.93,21.4,5.31,38.46,12.9,38.46,2.62,0,4.53-1.67,4.53-4.17,0-6.44-11.64-6.44-14.59-18.85,5.32,10.82,25.55,8.87,25.55,20.76,0,9.74-13.64,14-22.36,8,6.39,8.34,21.26,8.62,25.55-1.42.66,4.31-1.31,10.76-7.45,13.13-7,2.7-13.49-2.48-13.49-2.48,7.64,11,20.94,3.67,34.07,3.9,10.87.2,18.11,5.82,21.29,11.18a15.32,15.32,0,0,0-7.63-2,21.14,21.14,0,0,1,9,21.47c-1.3-6.25-8.57-10.68-22.35-11.63-15.56-1.08-23.81-3.57-29.1-9.31,11.2,5,28.93-1.91,41,6-7.45-8.54-23.93-6.09-35.71-8C242,205.05,229.33,170.09,231,154.74c-5.66,23.42,9.46,36.2,12.79,49.14,3.63,14.13-3.37,23.82-10,28.8,10.28-15.4-7.42-24.63-4.62-44.36-5.22,19.19,4.44,24.66,4.44,34.6,0,9.76-8.58,13-10.29,25.55C221.61,235.91,213,232.68,213,222.92c0-9.94,9.66-15.41,4.43-34.6,2.81,19.73-14.89,29-4.61,44.36-6.58-5-13.58-14.67-9.95-28.8,3.33-12.94,18.44-25.72,12.79-49.14,1.62,15.35-11,50.31-31.71,53.63-11.78,1.9-28.26-.55-35.71,8,12-8,29.78-1.08,41-6-5.29,5.74-13.54,8.23-29.09,9.31-13.79,1-21.06,5.38-22.36,11.63a21.13,21.13,0,0,1,9-21.47,15.32,15.32,0,0,0-7.63,2c3.18-5.36,10.42-11,21.29-11.18,13.13-.23,26.42,7.11,34.07-3.9,0,0-6.5,5.18-13.49,2.48-6.14-2.37-8.11-8.82-7.45-13.13,4.29,10,19.16,9.76,25.55,1.42-8.72,6.06-22.36,1.76-22.36-8,0-11.89,20.23-9.94,25.55-20.76-2.95,12.41-14.59,12.41-14.59,18.85,0,2.5,1.91,4.17,4.53,4.17,7.59,0,19.83-17.06,12.9-38.46-4.2,12.84-13.13,18.46-23.42,21.83,7.37-4.68,15.18-14.38,14.55-25.91-3.68,15-26.56,18.53-24.31,40.46-6-14.91-.91-26.37,8.7-34.42-21,9.36-13.87,27.26-22.49,43.77-8.12,15.57-25.08,20.55-36.78,20.1,5.68-2.09,12.84-6.33,17.23-22.18,2.89-10.47,4.76-20.25,17-27.15-7.69,12.27-4.54,25.69-14.9,36.73,13.92-9.83,10.49-27.68,21.11-41.69-10.62,3.4-19.68,9.38-23.6,18.63,2.92-15.76,19.71-32.53,49.15-36.55C157.15,135.58,151.31,152.42,136,153c-9.68.38-18.13-8.39-28-13.68,12.11,3.07,31.11,11.33,41.16-2.13,0,0-6.19,5.26-18.27,3.73-12.27-1.56-23.46-9.4-54.12-11.36,30.66-2,41.85-9.79,54.12-11.35C143,116.7,149.15,122,149.15,122c-10.05-13.46-29.05-5.2-41.16-2.13,9.9-5.28,18.35-14.06,28-13.67,15.29.6,21.13,17.45,51.46,16.16-29.44-4-46.23-20.79-49.15-36.55,3.92,9.25,13,15.22,23.6,18.63-10.62-14-7.19-31.87-21.11-41.7,10.36,11,7.21,24.46,14.9,36.73-12.26-6.9-14.13-16.67-17-27.15-4.39-15.84-11.55-20.09-17.23-22.18,11.7-.45,28.66,4.53,36.78,20.11,8.62,16.51,1.45,34.41,22.49,43.77-9.61-8.06-14.73-19.52-8.7-34.42-2.25,21.92,20.63,25.5,24.31,40.45.63-11.53-7.18-21.22-14.55-25.9,10.29,3.37,19.22,9,23.42,21.82,6.93-21.39-5.31-38.46-12.9-38.46-2.62,0-4.53,1.68-4.53,4.17,0,6.45,11.64,6.45,14.59,18.85-5.32-10.82-25.55-8.87-25.55-20.75,0-9.74,13.64-14,22.36-8-6.39-8.34-21.26-8.62-25.55,1.42C173,68.86,175,62.41,181.09,60c7-2.7,13.49,2.48,13.49,2.48-7.65-11-20.94-3.67-34.07-3.9-10.87-.19-18.11-5.82-21.29-11.18a15.11,15.11,0,0,0,7.63,2,21.1,21.1,0,0,1-9-21.46c1.3,6.24,8.57,10.67,22.36,11.63,15.55,1.07,23.8,3.57,29.09,9.3-11.2-5-28.93,1.91-41-6,7.45,8.54,23.93,6.09,35.71,8,20.71,3.32,33.33,38.29,31.71,53.63,5.65-23.42-9.46-36.2-12.79-49.13-3.63-14.14,3.37-23.83,9.95-28.8-10.28,15.39,7.42,24.62,4.61,44.35C222.69,51.67,213,46.2,213,36.26c0-9.75,8.58-13,10.29-25.55,1.71,12.56,10.29,15.8,10.29,25.55,0,9.94-9.66,15.41-4.44,34.6-2.8-19.73,14.9-29,4.62-44.35,6.58,5,13.58,14.66,10,28.8C240.41,68.24,225.29,81,231,104.44c-1.62-15.34,11-50.31,31.71-53.63,11.78-1.89,28.26.56,35.71-8-12.05,7.94-29.78,1.07-41,6,5.29-5.73,13.54-8.23,29.1-9.3,13.78-1,21.05-5.39,22.35-11.63a21.12,21.12,0,0,1-9,21.46,15.11,15.11,0,0,0,7.63-2c-3.18,5.36-10.42,11-21.29,11.18-13.13.23-26.43-7.11-34.07,3.9,0,0,6.5-5.18,13.49-2.48,6.14,2.37,8.11,8.82,7.45,13.13-4.29-10-19.16-9.76-25.55-1.42,8.72-6,22.36-1.75,22.36,8,0,11.88-20.23,9.93-25.55,20.75,3-12.4,14.59-12.4,14.59-18.85,0-2.49-1.91-4.17-4.53-4.17-7.59,0-19.83,17.07-12.9,38.46,4.2-12.84,13.13-18.45,23.42-21.82-7.37,4.68-15.18,14.37-14.55,25.9,3.68-15,26.56-18.53,24.31-40.45,6,14.9.9,26.36-8.7,34.42,21-9.36,13.87-27.26,22.48-43.77,8.12-15.58,25.09-20.56,36.79-20.11-5.68,2.09-12.84,6.34-17.23,22.18-2.9,10.48-4.76,20.25-17,27.15,7.69-12.27,4.54-25.69,14.91-36.73-13.93,9.83-10.5,27.68-21.12,41.7,10.62-3.41,19.68-9.38,23.6-18.63-2.92,15.76-19.71,32.53-49.15,36.55,30.33,1.29,36.17-15.56,51.45-16.16,9.69-.39,18.14,8.39,28,13.67-12.11-3.07-31.11-11.33-41.16,2.13,0,0,6.19-5.26,18.27-3.72,12.27,1.56,23.46,9.39,54.12,11.35-30.66,2-41.85,9.8-54.12,11.36-12.08,1.53-18.27-3.73-18.27-3.73,10.05,13.46,29.05,5.2,41.16,2.13-9.9,5.29-18.35,14.06-28,13.68C295.33,152.42,289.49,135.58,259.16,136.87Zm33.36-7.28c4.61,1.24,8.63,3.77,14.48,3.77,7.12,0,11.08-2.75,16.75-3.77-5.67-1-9.63-3.77-16.75-3.77C301.15,125.82,297.13,128.35,292.52,129.59ZM220.3,39.28c0,5.12,3,8.4,3,12.12,0-3.72,3-7,3-12.12,0-4.57-2.25-6.65-3-11.43C222.55,32.63,220.3,34.71,220.3,39.28Zm-66.18,90.31c-4.61-1.24-8.63-3.77-14.49-3.77-7.11,0-11.07,2.76-16.74,3.77,5.67,1,9.63,3.77,16.74,3.77C145.49,133.36,149.51,130.83,154.12,129.59Zm72.22,90.31c0-5.12-3-8.4-3-12.12,0,3.72-3,7-3,12.12,0,4.57,2.25,6.66,3,11.44C224.09,226.56,226.34,224.47,226.34,219.9Zm42-90.31c-9.94,0-24.09-5-35-3a24.76,24.76,0,0,0,7.46-6.75c-4.41.44-6.76.8-10.12,2.31,2.66-6,3.2-9.4,3.73-15.44a31.47,31.47,0,0,0-6.57,10.65c.71-12.42-4.26-15.25-4.61-31.76-.36,16.51-5.32,19.34-4.61,31.76a31.47,31.47,0,0,0-6.57-10.65c.53,6,1.07,9.42,3.73,15.44-3.36-1.51-5.71-1.87-10.12-2.31a24.76,24.76,0,0,0,7.46,6.75c-10.87-2-25,3-35,3,9.94,0,24.09,5,35,3a24.73,24.73,0,0,0-7.46,6.74c4.41-.43,6.76-.8,10.12-2.31-2.66,6-3.2,9.4-3.73,15.44a31.37,31.37,0,0,0,6.57-10.65c-.71,12.42,4.25,15.25,4.61,31.76.35-16.51,5.32-19.34,4.61-31.76a31.37,31.37,0,0,0,6.57,10.65c-.53-6-1.07-9.42-3.73-15.44,3.36,1.51,5.71,1.88,10.12,2.31a24.73,24.73,0,0,0-7.46-6.74C244.3,134.57,258.45,129.59,268.39,129.59Z"/><path class="cls-2" d="M291.12,198.09a32.84,32.84,0,0,1-11.44-22.75c-1.08,10.23-3.2,18.13-8.21,24,0,0,6.32-3.1,8.61-9.15C283,195.4,291.12,198.09,291.12,198.09Z"/><path class="cls-2" d="M305.12,249c-1.22-6-6.31-11.18-12.92-13.73A21.14,21.14,0,0,1,290,255a21.42,21.42,0,0,0-5.79-18,18.14,18.14,0,0,1-1.07,13.87c.94-8.48-6.17-12.79-15.62-18.45-12.66-7.57-17.27-16-19.25-27.22,3.45,6.86,9.91,13.14,27.86,17.29C298.47,227.64,306.57,234.9,305.12,249Z"/><path class="cls-19" d="M304.85,156.76c4.69,4.6,6.91,12.19,7.27,21.72.47,12.53,5.41,17.66,13.33,18.53-11.8-4.58-4.45-17.11-7.95-25.85,6.44,4.79,4.39,20.68,17.64,21.41-9.78-3.2-2.84-16.68-9.29-24.5,7.81.11,11.4-6.13,21.54-3.23-4.72-3.64-10-5.93-18.85-5.93,6.26-3.85,9-8.62,11.31-15.34C329.72,154.16,315,158.24,304.85,156.76Z"/><path class="cls-20" d="M141.79,156.76c-4.69,4.6-6.91,12.19-7.27,21.72-.47,12.53-5.41,17.66-13.33,18.53,11.8-4.58,4.45-17.11,7.94-25.85-6.44,4.79-4.38,20.68-17.63,21.41,9.78-3.2,2.83-16.68,9.29-24.5-7.81.11-11.4-6.13-21.54-3.23,4.71-3.64,10-5.93,18.85-5.93-6.26-3.85-9-8.62-11.31-15.34C116.92,154.16,131.64,158.24,141.79,156.76Z"/><path class="cls-21" d="M168.44,8.33c2.64,13.83,25.37,16.25,30.29,34.05C202.5,23.27,220,22.51,220.27,9.27c-3.18,7.8-10.84,5.79-15.89,12.12.85-6.16,4.64-11.9,12.39-15.08-7.68-1.08-15.63,1.83-19.12,9.56C195.09,11.69,194.84,7.42,197,2a15.2,15.2,0,0,0-5.65,16.56C184.06,11.29,173.42,15.33,168.44,8.33Z"/><path class="cls-6" d="M241.54,129.59c-4.26-.66-9.39-3.2-14.13-1.22,2.32-1.8,1.14-3.51,2.53-5.19-1.92,1.38-3.51.5-5,2.74,1.54-5.31-.53-8.14-1.63-14.12-1.1,6-3.17,8.81-1.63,14.12-1.48-2.24-3.07-1.36-5-2.74,1.39,1.68.21,3.39,2.53,5.19-4.74-2-9.87.56-14.13,1.22,4.26.67,9.39,3.2,14.13,1.22-2.32,1.81-1.14,3.52-2.53,5.2,1.92-1.39,3.51-.5,5-2.74-1.54,5.3.53,8.14,1.63,14.11,1.1-6,3.17-8.81,1.63-14.11,1.48,2.24,3.07,1.35,5,2.74-1.39-1.68-.21-3.39-2.53-5.2C232.15,132.79,237.28,130.26,241.54,129.59Z"/><path class="cls-22" d="M54.88,121.26C52.24,107.43,29.51,105,24.59,87.21c-3.77,19.11-21.3,19.87-21.54,33.11,3.18-7.8,10.84-5.78,15.89-12.11-.85,6.15-4.64,11.89-12.39,15.07,7.67,1.08,15.63-1.83,19.12-9.56,2.55,4.18,2.81,8.45.67,13.87A15.19,15.19,0,0,0,32,111C39.26,118.3,49.9,114.26,54.88,121.26Z"/><path class="cls-23" d="M35.84,7.27C65.28,11.3,82.07,28.06,85,43.83c-3.92-9.26-13-15.23-23.6-18.64,10.61,14,7.19,31.87,21.11,41.7-10.36-11-7.21-24.46-14.9-36.73,12.26,6.9,14.12,16.67,17,27.15C89,73.15,96.17,77.4,101.84,79.49c-11.69.45-28.66-4.53-36.78-20.1C56.45,42.88,63.61,25,42.58,15.61c9.6,8.06,14.73,19.52,8.7,34.43C53.53,28.11,30.65,24.53,27,9.58c-.63,11.53,7.18,21.22,14.55,25.91-10.29-3.38-19.22-9-23.42-21.83C11.17,35.05,23.41,52.12,31,52.12c2.62,0,4.53-1.67,4.53-4.17,0-6.45-11.64-6.45-14.59-18.85C26.26,39.92,46.49,38,46.49,49.86c0,9.74-13.64,14-22.36,8,6.39,8.34,21.26,8.62,25.55-1.42.66,4.31-1.31,10.76-7.45,13.13-7,2.7-13.49-2.48-13.49-2.48,7.64,11,20.94,3.67,34.07,3.9,10.87.19,18.11,5.82,21.29,11.18a15.11,15.11,0,0,0-7.63-2,21.14,21.14,0,0,1,9,21.47C84.22,95.42,77,91,63.17,90c-15.56-1.07-23.81-3.57-29.1-9.3,11.2,5,28.93-1.91,41,6-7.45-8.54-23.93-6.09-35.71-8C18.63,75.46,6,40.5,7.63,25.15,2,48.57,17.09,61.35,20.42,74.28c3.63,14.14-3.37,23.83-10,28.81,10.28-15.4-7.42-24.63-4.62-44.36-5.22,19.19,4.44,24.66,4.44,34.6,0,9.76-8.58,13-10.29,25.55-1.71-12.56-10.29-15.79-10.29-25.55,0-9.94,9.66-15.41,4.43-34.6,2.81,19.73-14.89,29-4.61,44.36-6.58-5-13.58-14.67-10-28.81C-17.09,61.35-2,48.57-7.63,25.15-6,40.5-18.63,75.46-39.34,78.78c-11.78,1.89-28.26-.56-35.71,8,12-7.94,29.78-1.07,41-6C-39.36,86.46-47.61,89-63.16,90c-13.79,1-21.06,5.39-22.36,11.64a21.12,21.12,0,0,1,9-21.47,15.11,15.11,0,0,0-7.63,2c3.18-5.36,10.42-11,21.29-11.18,13.13-.23,26.42,7.11,34.07-3.9,0,0-6.5,5.18-13.49,2.48-6.14-2.37-8.11-8.82-7.45-13.13,4.29,10,19.16,9.76,25.55,1.42-8.72,6-22.36,1.76-22.36-8,0-11.89,20.23-9.94,25.55-20.76C-23.89,41.5-35.53,41.5-35.53,48c0,2.5,1.91,4.17,4.53,4.17,7.59,0,19.83-17.07,12.9-38.46C-22.3,26.5-31.23,32.11-41.52,35.49-34.15,30.8-26.34,21.11-27,9.58c-3.68,15-26.56,18.53-24.31,40.46-6-14.91-.91-26.37,8.7-34.43-21,9.37-13.87,27.27-22.49,43.78C-73.19,75-90.15,79.94-101.85,79.49-96.17,77.4-89,73.15-84.62,57.31c2.89-10.48,4.76-20.25,17-27.15-7.69,12.27-4.54,25.69-14.9,36.73C-68.58,57.06-72,39.21-61.39,25.19-72,28.6-81.07,34.57-85,43.83-82.08,28.06-65.28,11.3-35.84,7.27-66.17,6-72,22.83-87.3,23.44c-9.68.38-18.13-8.4-28-13.68,12.11,3.07,31.11,11.33,41.16-2.13,0,0-6.19,5.26-18.27,3.73C-104.71,9.8-115.9,2-146.56,0c30.66-2,41.85-9.8,54.12-11.36,12.08-1.53,18.27,3.73,18.27,3.73-10-13.46-29-5.2-41.16-2.13,9.9-5.29,18.35-14.06,28-13.68C-72-22.83-66.17-6-35.84-7.28-65.28-11.3-82.08-28.07-85-43.82c3.92,9.24,13,15.22,23.6,18.62C-72-39.21-68.58-57.06-82.5-66.89c10.36,11,7.21,24.46,14.9,36.73-12.26-6.9-14.13-16.67-17-27.15C-89-73.16-96.17-77.4-101.85-79.49c11.7-.45,28.66,4.53,36.78,20.1C-56.45-42.87-63.62-25-42.58-15.62c-9.61-8.05-14.73-19.51-8.7-34.42C-53.53-28.11-30.65-24.53-27-9.58c.63-11.53-7.18-21.22-14.55-25.91,10.29,3.37,19.22,9,23.42,21.83C-11.17-35-23.41-52.12-31-52.12c-2.62,0-4.53,1.67-4.53,4.17,0,6.45,11.64,6.45,14.59,18.85C-26.26-39.92-46.49-38-46.49-49.86c0-9.74,13.64-14,22.36-8-6.39-8.34-21.26-8.62-25.55,1.42-.66-4.31,1.31-10.76,7.45-13.13,7-2.7,13.49,2.48,13.49,2.48-7.65-11-20.94-3.67-34.07-3.9-10.87-.19-18.11-5.82-21.29-11.18a15.11,15.11,0,0,0,7.63,2,21.13,21.13,0,0,1-9-21.47C-84.22-95.42-76.95-91-63.16-90c15.55,1.07,23.8,3.57,29.09,9.3-11.2-5-28.93,1.91-41-6,7.45,8.54,23.93,6.09,35.71,8C-18.63-75.46-6-40.5-7.63-25.15-2-48.57-17.09-61.35-20.42-74.29c-3.63-14.13,3.37-23.82,10-28.8C-20.75-87.69-3-78.46-5.86-58.73c5.23-19.19-4.43-24.66-4.43-34.6,0-9.76,8.58-13,10.29-25.55,1.71,12.56,10.29,15.79,10.29,25.55,0,9.94-9.66,15.41-4.44,34.6-2.8-19.73,14.9-29,4.62-44.36,6.58,5,13.58,14.67,10,28.8C17.09-61.35,2-48.57,7.63-25.15,6-40.5,18.63-75.46,39.34-78.78c11.78-1.89,28.26.56,35.71-8-12,7.94-29.78,1.07-41,6C39.36-86.46,47.61-89,63.17-90c13.78-1,21-5.39,22.35-11.64a21.14,21.14,0,0,1-9,21.47,15.11,15.11,0,0,0,7.63-2c-3.18,5.36-10.42,11-21.29,11.18-13.13.23-26.43-7.11-34.07,3.9,0,0,6.5-5.18,13.49-2.48,6.14,2.37,8.11,8.82,7.45,13.13-4.29-10-19.16-9.76-25.55-1.42,8.72-6,22.36-1.76,22.36,8,0,11.89-20.23,9.94-25.55,20.76,2.95-12.4,14.59-12.4,14.59-18.85,0-2.5-1.91-4.17-4.53-4.17-7.59,0-19.83,17.07-12.9,38.46C22.3-26.5,31.23-32.12,41.52-35.49,34.15-30.8,26.34-21.11,27-9.58,30.65-24.53,53.53-28.11,51.28-50c6,14.91.9,26.37-8.7,34.42,21-9.36,13.87-27.25,22.48-43.77C73.18-75,90.15-79.94,101.84-79.49,96.17-77.4,89-73.16,84.62-57.31c-2.9,10.48-4.76,20.25-17,27.15,7.69-12.27,4.54-25.69,14.9-36.73C68.58-57.06,72-39.21,61.39-25.2,72-28.6,81.07-34.58,85-43.82,82.07-28.07,65.28-11.3,35.84-7.28,66.17-6,72-22.83,87.29-23.44c9.69-.38,18.14,8.39,28,13.68-12.11-3.07-31.11-11.33-41.16,2.13,0,0,6.19-5.26,18.27-3.73C104.71-9.8,115.9-2,146.56,0,115.9,2,104.71,9.8,92.44,11.36,80.36,12.89,74.17,7.63,74.17,7.63c10,13.46,29.05,5.2,41.16,2.13C105.43,15,97,23.82,87.29,23.44,72,22.83,66.17,6,35.84,7.27ZM69.2,0c4.61,1.24,8.63,3.77,14.48,3.77C90.8,3.77,94.76,1,100.42,0,94.76-1,90.8-3.77,83.68-3.77,77.83-3.77,73.81-1.24,69.2,0ZM-3-90.31c0,5.12,3,8.4,3,12.12,0-3.72,3-7,3-12.12C3-94.88.77-97,0-101.75-.77-97-3-94.88-3-90.31ZM-69.2,0c-4.61-1.24-8.63-3.77-14.49-3.77C-90.8-3.77-94.76-1-100.43,0c5.67,1,9.63,3.77,16.74,3.77C-77.83,3.77-73.81,1.24-69.2,0ZM3,90.31c0-5.12-3-8.4-3-12.12,0,3.72-3,7-3,12.12C-3,94.88-.77,97,0,101.74.77,97,3,94.88,3,90.31ZM45.07,0C35.13,0,21-5,10.11-3a24.73,24.73,0,0,0,7.46-6.74c-4.41.43-6.76.8-10.12,2.31,2.66-6,3.2-9.4,3.73-15.44A31.47,31.47,0,0,0,4.61-12.24C5.32-24.66.35-27.49,0-44-.36-27.49-5.32-24.66-4.61-12.24a31.47,31.47,0,0,0-6.57-10.65c.53,6,1.07,9.42,3.73,15.44C-10.81-9-13.16-9.33-17.57-9.76A24.73,24.73,0,0,0-10.11-3c-10.87-2-25,3-35,3,9.94,0,24.09,5,35,3a24.6,24.6,0,0,0-7.46,6.74c4.41-.43,6.76-.8,10.12-2.31-2.66,6-3.2,9.4-3.73,15.44A31.47,31.47,0,0,0-4.61,12.24C-5.32,24.66-.36,27.49,0,44,.35,27.49,5.32,24.66,4.61,12.24a31.47,31.47,0,0,0,6.57,10.65c-.53-6-1.07-9.42-3.73-15.44C10.81,9,13.16,9.33,17.57,9.76A24.6,24.6,0,0,0,10.11,3C21,5,35.13,0,45.07,0Z"/><path class="cls-2" d="M67.8,68.5A32.84,32.84,0,0,1,56.36,45.75c-1.08,10.23-3.2,18.13-8.21,24,0,0,6.32-3.1,8.61-9.16C59.72,65.8,67.8,68.5,67.8,68.5Z"/><path class="cls-2" d="M81.8,119.38c-1.22-6-6.31-11.18-12.92-13.73a21.14,21.14,0,0,1-2.16,19.79,21.45,21.45,0,0,0-5.79-18,18.11,18.11,0,0,1-1.07,13.86c.94-8.48-6.17-12.78-15.62-18.44C31.58,95.24,27,86.78,25,75.6c3.45,6.86,9.91,13.13,27.86,17.29C75.15,98.05,83.25,105.3,81.8,119.38Z"/><path class="cls-24" d="M81.53,27.17c4.69,4.6,6.91,12.19,7.27,21.72.47,12.53,5.41,17.66,13.33,18.53-11.8-4.58-4.45-17.12-7.95-25.85,6.44,4.79,4.39,20.68,17.64,21.41-9.78-3.2-2.84-16.68-9.29-24.5,7.81.1,11.4-6.13,21.54-3.23-4.72-3.64-10-5.93-18.85-5.93,6.26-3.86,9-8.62,11.31-15.34C106.4,24.57,91.68,28.64,81.53,27.17Z"/><path class="cls-6" d="M18.22,0C14-.66,8.83-3.2,4.09-1.22,6.41-3,5.23-4.73,6.62-6.42,4.7-5,3.11-5.91,1.63-3.67,3.17-9,1.1-11.81,0-17.79-1.1-11.81-3.17-9-1.63-3.67-3.11-5.91-4.7-5-6.62-6.42c1.39,1.69.21,3.4,2.53,5.2C-8.83-3.2-14-.66-18.22,0-14,.67-8.83,3.2-4.09,1.22-6.41,3-5.23,4.73-6.62,6.42c1.92-1.39,3.51-.5,5-2.75C-3.17,9-1.1,11.81,0,17.79,1.1,11.81,3.17,9,1.63,3.67,3.11,5.92,4.7,5,6.62,6.42,5.23,4.73,6.41,3,4.09,1.22,8.83,3.2,14,.67,18.22,0Z"/></pattern></defs><g id="Layer_2" data-name="Layer 2"><g id="Layer_1-2" data-name="Layer 1"><g id="strand"><path class="cls-25" d="M146.06,224.29,122.19,209,112,201.56l-6.5-7.25,43.7-28.51c1.62-.38,3.28-.71,5-1a81.85,81.85,0,0,1,33.37,1.62q5.79-10.41,11.59-20.83l6.27-8a52.22,52.22,0,0,1,21.18-10.92L250,120.74l5.09,5.86,36.17,24.77Z"/><path class="cls-26" d="M110,195.53l35.5,17.68L286.7,142.77l-37.88-19.22c-10.89,3.72-16,6-18.62,7.47a32.64,32.64,0,0,1-4,2.09c-3.22,1.34-4.9,1.25-6.79,3-.51.46-1.29,1.28-1.77,1.8-1.16,1.22-1.68,1.87-2.07,2.3-1.53,1.62-2.8,1.53-4.93,2.71-.6.33-5.09,2.83-5.81,6.83-.37,2,.62,2.18.31,4.4-.55,4-4.25,6.64-4.67,6.93-2.15,1.47-3.18,1-5.31,2.88-1.43,1.25-1.44,1.86-2.56,2.85-1.91,1.69-4.22,2-6.9,2.21-9,.78-13.44,1.17-16.93.94-1.62-.11-4-.34-6,1.08a26.3,26.3,0,0,1-2.34,1.85,10.78,10.78,0,0,1-3.91,1.36c-4.76.78-13.77,3-16.75,3.91-2.73.83-3.39,1.45-12.25,6.9C123.44,187.52,117.46,191.15,110,195.53Z"/><polygon class="cls-27" points="286.7 150.9 145.47 221.48 145.47 213.21 286.7 142.77 286.7 150.9"/><path class="cls-28" d="M110,195.53l35.5,17.68v8.27c-1.18-.6-3.19-1.65-5.62-3.06-5.48-3.21-7.34-4.95-18.6-12.89l-6.57-4.62h0Z"/><path class="cls-29" d="M.23,140.14,145.7,60.43l104.51,60.25c-3.09.8-7.71,2-13.36,3.41-9.2,2.32-8.43,2.07-9.3,2.33,0,0-13.62,4.13-23.83,15.09-3.31,3.56-3.95,5.65-3.92,7.33,0,1.34.47,2.21.2,4.15a9.86,9.86,0,0,1-1.77,4.5c-1.21,1.62-2.35,1.9-4.29,3.15-4.19,2.72-3.43,4.4-6.12,5.73-2.16,1.07-3.06.18-11.78-.65-.91-.09-3.29-.25-8-.58-6.25-.43-9.37-.64-10.08-.63-7,.12-12.23,3.71-21.9,10.31-2.38,1.62-1,.84-9.74,7.19-6.41,4.69-9.43,7.08-13.8,9.11l-6.74,3.13Z"/><polygon class="cls-30" points="0 140.19 0 160.84 146.03 232.85 146.06 224.29 112 201.56 105.51 194.31 0 140.19"/><polygon class="cls-31" points="291.24 151.37 291.24 160.95 146.03 232.85 146.06 224.29 291.24 151.37"/><g id="groen_surfboard" data-name="groen surfboard"><path class="cls-32" d="M173.9,96.72,175,84.34l3.36-13.84,2.52-6,5.65-8.34c-.14,3.25-.43,8-1.12,13.77-.18,1.53-.27,2.31-.44,3.46a121.57,121.57,0,0,1-3.8,16.12c-.42,1.49-.64,2.26-1,3.33a92.31,92.31,0,0,1-3.44,9.18Z"/><path class="cls-33" d="M172.89,96.72c.1-2.58.32-6.09.89-10.27.24-1.76.47-3.11.58-3.74a97.34,97.34,0,0,1,3-12.21A27.6,27.6,0,0,1,179.22,66a27.94,27.94,0,0,1,1.9-3.09,61.77,61.77,0,0,1,5.38-6.75q-1.16,7.95-2.29,15.9L179.7,91.37l-3,10.62Z"/><polygon class="cls-34" points="172.98 98.44 174.82 95.44 174.82 99.25 172.98 98.44"/></g><g id="roze_surfboard" data-name="roze surfboard"><path class="cls-35" d="M185.69,104.61l-4.38-22.35-2.55-15.79c1.4,2.16,2.82,4.47,4.23,6.94A41.26,41.26,0,0,1,185.5,78a29.13,29.13,0,0,1,1.14,3c.61,1.88,1.49,4.78,2.37,8.72a76.88,76.88,0,0,1,1.85,9.89c.16,1.4.24,2.47.27,2.8a60.78,60.78,0,0,1,.09,7.39Z"/><path class="cls-36" d="M185.13,104.61l-4.37-22.35c-.07-.52-2-15.74-2-15.74v0l0,0a74.13,74.13,0,0,1,6,11.21c.73,1.73,1.21,3.09,1.37,3.52a59.76,59.76,0,0,1,2.32,8.52c.93,4.1,1.48,7.42,1.83,9.78.21,1.49.34,2.58.38,2.94.34,3,.49,5.52.55,7.36Z"/></g><g id="beach_volletball" data-name="beach volletball"><path class="cls-37" d="M10.67,145.2l61-33.44,57.66,32.7q-21.1,12.36-42.77,24.62-7,4-14,7.85-15.42-7.49-31.28-15.6Q25.64,153.29,10.67,145.2Z"/><path class="cls-38" d="M10.45,122.19,73,152.13M10.67,124.88l62.59,29.94M10.45,123.49,73,153.43M10.56,126.18l62.58,29.94M10.78,128.88l62.59,29.94M10.56,127.48l62.58,29.94m-62.47-27.3,62.59,29.94M10.67,131.42l62.59,29.94m-61-39.75v11.84M14,122.26l0,11.84m1.67-11.37v11.84m1.53,1V123.78m1.51.82,0,11.83m1.54-11.49v11.83m1.78-10.66V138m1.63-10.55v11.83M25.26,128v11.84m1.57-11.2v11.84m1.64.66V129.31m1.64.77v11.84m1.42-11.61v11.84M33,131.24v11.83m1.67-10.53v11.83m1.54-11.83v11.83m1.46-10.44,0,11.84m1.42-11.49v11.83m1.42-10.88v11.84m1.51-11V147.9m1.62-11.65v11.84m1.7-11.15v11.84m1.54.87,0-11.84m1.59.62v11.84m1.53-11.1V151m1.43-11.14V151.7m1.54-11.1,0,11.84m1.5-10.72v11.83M56,142l0,11.83m1.28-10.69V155m1.52-11.63V155.2m1.51-10.64V156.4m1.52-11.57,0,11.84m1.49-10.89,0,11.83m1.38-11.39v11.84m1.38-11.18v11.84m1.35-10.78v11.83m1.55.82,0-11.83m1.4.74v11.84m1.3-11.77v11.84"/><path class="cls-37" d="M72.84,162.1v0Z"/><path class="cls-37" d="M10.45,132.57q.11,6.31.22,12.63Q10.57,138.89,10.45,132.57Z"/><path class="cls-39" d="M10.45,120.74,73,150.63c-.06,3.82-.13,7.64-.19,11.47L10.45,132.57Z"/></g><g id="handoek"><path class="cls-40" d="M143.68,90.13l27.43,15.81-12.17,7.91L131.13,97Z"/><path class="cls-41" d="M143.68,90.13l27.43,15.81-12.17,7.91L131.13,97Z"/></g><g id="palmboom"><g id="stam"><path class="cls-42" d="M120,64.93l-1.6,1c.41,1.93.83,3.86,1.24,5.79l3.72-1.66,3.07-.17,1.6-2.37-1.36-.35Z"/><path class="cls-43" d="M116.14,92.33q.12-6.73.23-13.48l1-.79,2.31,3.46,1.77,1.19,1.81.35,1.8-2.48.16-.72.65.5V81.9l-1,5.55-1.91,7.84-4.07-1.73-1.92-.25Z"/><polygon class="cls-44" points="117.16 79.93 118.4 65.93 119.64 71.72 123.36 70.06 126.44 69.89 128.03 67.53 125.02 80.58 123.22 83.06 121.41 82.71 119.64 81.52 117.99 81.52 117.16 79.93"/><path class="cls-45" d="M115.46,100.65l-.8-6.6c.5-1.6,1-3.21,1.48-4.81v3.09l.74,1,1.92.25,4.07,1.73.92,5.36-5.36.93Z"/><polygon class="cls-46" points="122 54.19 119.54 67 121.13 70.23 123.22 69.26 125.64 69.26 126.67 67.17 129.48 57.16 129.48 54.91 127.28 57.73 123.58 59.16 122 54.19"/><polygon class="cls-42" points="122.97 53.32 129.48 54.91 127.28 57.73 123.58 59.16 122 54.19 122.97 53.32"/><path class="cls-47" d="M124.79,44.94l1.24-.83h0L126,48l2.93-.82h1.23l1.15-1.82.36,1.41h0l-2.93,9.06-1.51,1.29h-.71l-2.26,1.18-1.23-3V52.75Z"/><polygon class="cls-48" points="128.56 36.73 129.82 40.26 133.61 37.92 131.01 46.32 130.15 47.22 128.91 47.22 125.99 48.04 126.04 43.53 128.56 36.73"/><polygon class="cls-44" points="134.19 22.66 137.46 24.01 133.14 38.22 129.82 40.26 128.56 36.73 134.19 22.66"/></g><path class="cls-49" d="M135,24.34,123.54,12.4,112.85,4,103.5.66h2.77l5.63,1.82,5.43,3.05,4.87,4,3.82,4L131,19l4.48,4.87L137,19.46l2.86-7.16,2.58-6,3-4.58L148.53.19l-2.67,2.48-3.15,4.77-2.76,7-3.63,9.92,12.21-1.24L160.75,23l11,2.38,7.35,4.39-8.18-4-10.64-2.19H149l-9.09,1.1-3.61.25,1.61,2.2,1.35,6.31.52,6.26-1.09-5.8-1.36-5.1-1.81-3.48-4.35,4.13-4.48,7.35-3.29,8.31L124.58,39l3.56-6.32,3-4.32,3.58-3.48-6.86.19-7.32-.38L113,26.32l-6.51,2.84-5.93,3.35-4.71,3.67L101.26,31l9.28-4.53,7.35-1.87,6.32-.58,7.67.07Z"/><path class="cls-49" d="M110.71,3.24l-6,.17L94.14,7.91l9.74-5.36L110,3Z"/><path class="cls-49" d="M113.38,4.42l-5.71.11L97.13,9l9.74-5.37,6,.34Z"/><path class="cls-49" d="M115,5.66h-5.68l-10.54,4.5,9.74-5.37,6,.44Z"/><path class="cls-49" d="M116.42,6.81h-5.78l-10.55,4.5,9.74-5.37,6.13.41Z"/><path class="cls-49" d="M117.81,7.9l-5.6.11-10.54,4.5,9.74-5.37,6.08.44Z"/><path class="cls-49" d="M119.39,9.14l-5.52.17-10.54,4.5,9.74-5.36,5.9.36Z"/><path class="cls-49" d="M121.56,10.84,116,11l-10.54,4.5,9.74-5.36,5.95.32Z"/><path class="cls-49" d="M123.72,12.59l-5.85.12-10.54,4.5,9.74-5.37,6.4.38Z"/><path class="cls-49" d="M125.23,14.16l-5.7.05L109,18.71l9.74-5.36,6.14.37Z"/><path class="cls-49" d="M126.92,15.91l-5.84,0-10.55,4.51,9.75-5.37,6.25.33Z"/><path class="cls-49" d="M128.4,17.45l-5.6.06L112.26,22,122,16.65l6,.42Z"/><path class="cls-49" d="M110.17,0,113,3.14l.84.43L112.08.44Z"/><path class="cls-49" d="M124.41,11.86l-.51-6L125.17,7l-.24,5.46Z"/><path class="cls-49" d="M126,13.54c-.1-1.67-.19-3.35-.28-5l1.53-.6-.56,6.39Z"/><path class="cls-49" d="M127.48,15.14l0-4.74.74-1.18.57.66L128.28,16Z"/><path class="cls-49" d="M128.93,16.74l.12-4.41,1.81-1.57-.54,2.69c-.3,1.28-.59,2.56-.89,3.84Z"/><path class="cls-49" d="M122.91,10.28c-.32-1.73-.63-3.45-1-5.17l1.44,1.21v4.47Z"/><path class="cls-49" d="M119.7,3.64c.53,1.79,1,3.59,1.58,5.39l.64.27c-.12-1.51-.23-3-.34-4.53Z"/><path class="cls-49" d="M117.7,2.67l1.6,4.48.83.68-1.08-4.35Z"/><path class="cls-49" d="M113.27.92c.66,1.15,1.32,2.3,2,3.44l.83.47-1.16-3.42Z"/><path class="cls-49" d="M115.65,1.36l1.8,4.41.73.46c-.3-1.38-.6-2.76-.91-4.13Z"/><path class="cls-49" d="M129.66,18.75l-5.85.11-10.54,4.5L123,18l6.4.37Z"/><path class="cls-49" d="M131.27,20.31l-5.7.05L115,24.86l9.75-5.36,6.13.37Z"/><path class="cls-49" d="M132.91,22.06l-5.83,0-10.55,4.5,9.74-5.37,6.26.34Z"/><path class="cls-49" d="M134.51,23.6l-5.6.06-10.54,4.5,9.74-5.36,6,.42Z"/><path class="cls-49" d="M132.66,20.93c.46-1.62.92-3.23,1.39-4.85l1.64-.06-2.62,5.85Z"/><path class="cls-49" d="M131.17,19.38l1.93-4.89.58,1.79-2.37,3.8Z"/><path class="cls-49" d="M131.34,12.51,130.11,18l.42.54,1.9-4.12Z"/><path class="cls-49" d="M135.41,18c-.39,1.55-.77,3.09-1.15,4.63l.33.8c.56-1.29,1.13-2.58,1.7-3.87Z"/><polygon class="cls-49" points="139.97 24.71 143.31 27.32 147.56 33.45 144.85 26.98 141.41 24.71 139.97 24.71"/><polygon class="cls-49" points="142.69 24.89 145.83 27.27 151.1 36.13 146.9 26.54 143.77 24.71 142.69 24.89"/><polygon class="cls-49" points="144.85 24.71 148.11 27.03 154.19 35.93 149.43 26.05 145.83 24.16 144.85 24.71"/><polygon class="cls-49" points="147.19 23.86 150.67 26.98 155.41 34.08 151.97 25.71 148.55 23.67 147.19 23.86"/><polygon class="cls-49" points="149.43 23.67 153.03 26.1 159.79 37.59 154.19 25.32 150.79 23.47 149.43 23.67"/><polygon class="cls-49" points="151.71 23.47 155.7 26.49 162.76 36.91 156.48 25.52 153.03 23.47 151.71 23.47"/><polygon class="cls-49" points="153.83 23.22 157.95 26.25 164.99 36.58 158.9 25.41 155.41 23.22 153.83 23.22"/><polygon class="cls-49" points="156.21 23.22 160.68 26.75 167.99 36.76 161.5 26 157.24 23.03 156.21 23.22"/><polygon class="cls-49" points="159.13 23.47 163.41 27.11 170.69 37.75 164.14 26.39 160.22 23.47 159.13 23.47"/><polygon class="cls-49" points="161.34 23.67 165.85 27.51 173.29 38.34 166.64 26.85 162.56 23.67 161.34 23.67"/><polygon class="cls-49" points="163.71 24.02 168.58 28.5 176.41 39.16 169.37 27.61 164.57 24.02 163.71 24.02"/><polygon class="cls-49" points="165.91 24.71 170.85 28.56 178.56 39.82 171.64 27.84 167.1 24.71 165.91 24.71"/><polygon class="cls-49" points="168.58 25.27 173.29 29.25 180.27 39.82 173.95 28.59 169.87 25.27 168.58 25.27"/><polygon class="cls-49" points="171.02 25.83 175.59 30.04 182.41 40.12 176.41 29.48 171.02 25.83"/><polygon class="cls-49" points="173.72 27.18 178.78 31.82 184.48 40.38 185.8 43.8 184.91 39.69 179.15 31 173.72 27.18"/><polygon class="cls-49" points="138.14 24.03 142.85 21.36 145.46 21.36 139.5 24.03 138.14 24.03"/><polygon class="cls-49" points="141.8 23.67 145.83 21.36 147.39 21.36 143.77 23.67 141.8 23.67"/><polygon class="cls-49" points="144.59 23.67 148.54 20.92 150.52 20.92 145.83 23.67 144.59 23.67"/><polygon class="cls-49" points="146.77 23.47 151.01 20.61 152.44 20.61 147.72 23.56 146.77 23.47"/><polygon class="cls-49" points="148.86 23.36 153.08 20.38 154.88 20.38 149.99 23.36 148.86 23.36"/><polygon class="cls-49" points="151.87 22.7 155.26 20.52 157.39 20.52 153.21 22.7 151.87 22.7"/><polygon class="cls-49" points="154.79 22.29 157.95 20.61 159.79 21.01 155.68 22.39 154.79 22.29"/><path class="cls-49" d="M156.68,22.38l3.45-1.15,2.06.38-2.4.48Z"/><polygon class="cls-49" points="161.34 22.79 165.91 22.39 167.99 23.36 164.26 23.47 161.34 22.79"/><polygon class="cls-49" points="159.13 22.39 163.28 21.61 165.17 22.39 160.48 22.61 159.13 22.39"/><polygon class="cls-49" points="166.33 23.67 170.51 23.76 172.24 24.81 169.13 24.71 166.33 23.67"/><polygon class="cls-49" points="171.64 25.27 174.29 26.1 176.41 27.34 173.09 26.16 171.2 25.27 171.64 25.27"/><polygon class="cls-49" points="139.84 14.08 143.43 11.96 151.1 14.27 143.58 13.12 139.55 14.81 139.84 14.08"/><polygon class="cls-49" points="139.23 15.74 143.02 13.73 150.67 15.98 142.99 14.86 139.03 16.51 139.23 15.74"/><polygon class="cls-49" points="138.72 17.55 142.46 15.6 150.23 17.55 142.43 16.78 138.55 18.32 138.72 17.55"/><polygon class="cls-49" points="138.05 19.14 141.95 17.43 149.43 19.53 141.84 18.61 137.76 20.06 138.05 19.14"/><polygon class="cls-49" points="137.34 21.09 141.16 19.32 148.34 21.09 141.04 20.39 137.05 21.89 137.34 21.09"/><polygon class="cls-49" points="136.81 23.02 140.71 22.07 145.83 22.54 140.74 20.92 136.81 22.22 136.81 23.02"/><polygon class="cls-49" points="140.36 12.49 144.39 10.24 151.97 12.49 144.39 11.37 139.97 13.39 140.36 12.49"/><polygon class="cls-49" points="140.86 10.9 145 9 152.21 11.13 144.85 10.07 140.86 11.69 140.86 10.9"/><polygon class="cls-49" points="141.66 9.3 145.8 7.58 152.89 9.3 145.56 8.59 141.39 10.04 141.66 9.3"/><polygon class="cls-49" points="142.37 7.73 146.24 6.17 153.63 8.38 146.12 7.14 142.07 8.38 142.37 7.73"/><polygon class="cls-49" points="143.14 6.31 147.14 5.04 153.78 7.44 146.68 5.9 142.66 7.08 143.14 6.31"/><polygon class="cls-49" points="143.76 5.04 147.48 3.89 154.4 6.4 147.28 4.69 143.49 5.72 143.76 5.04"/><polygon class="cls-49" points="144.5 4.16 148.07 2.8 154.4 5.58 147.85 3.5 144.11 4.75 144.5 4.16"/><polygon class="cls-49" points="145.33 3 148.49 2.12 153.96 4.89 148.37 2.8 144.85 3.68 145.33 3"/><polygon class="cls-49" points="145.71 2.38 148.94 2.12 153.63 4.36 148.94 1.38 146.09 1.85 145.71 2.38"/><polygon class="cls-49" points="137.76 18.14 134.54 14.27 132.59 13.39 134.92 13.01 138.14 17.43 137.76 18.14"/><polygon class="cls-49" points="133.32 11.82 136.81 12.13 138.72 15.38 138.14 16.51 135.84 13.01 133.32 11.82"/><polygon class="cls-49" points="134.35 10.59 137.44 10.48 139.3 13.73 138.72 14.81 136.57 11.18 134.35 10.59"/><polygon class="cls-49" points="135.5 8.81 138.4 9 139.86 11.82 139.3 13.01 137.3 9.66 135.5 8.81"/><polygon class="cls-49" points="136.65 7.58 138.9 7.58 140.28 10.65 139.86 11.29 138.14 8.23 136.65 7.58"/><polygon class="cls-49" points="137.86 6.24 139.86 6.24 141.01 9.19 140.59 10.04 139.03 7.16 137.86 6.24"/><polygon class="cls-49" points="138.55 5.28 141.01 5.15 141.77 7.58 141.39 8.14 139.97 5.95 138.55 5.28"/><polygon class="cls-49" points="140.16 4.18 141.39 3.65 142.66 6.17 142.07 6.99 140.86 4.58 140.16 4.18"/><polygon class="cls-49" points="141.77 3.14 143.06 3 143.06 5.15 142.66 5.78 141.77 3.14"/><polygon class="cls-49" points="142.66 2.12 143.96 1.93 143.96 4.01 143.31 4.89 142.66 2.12"/><polygon class="cls-49" points="137.05 20.06 134.57 16.96 131.77 15.58 134.77 15.58 137.5 18.95 137.05 20.06"/><polygon class="cls-49" points="136.33 21.55 134.07 18.75 131.77 17.43 134.63 17.55 136.81 20.38 136.33 21.55"/><polygon class="cls-49" points="129.19 30.04 129.88 26.5 132.13 24.71 131.09 26.91 130.23 29.62 129.19 30.04"/><polygon class="cls-49" points="126.7 31.99 127.74 26.5 129.77 24.94 130.66 24.94 129.19 27.08 126.7 31.99"/><polygon class="cls-49" points="123.76 33.72 125.49 26.62 127.69 24.94 126.7 27.38 123.76 33.72"/><polygon class="cls-49" points="121.39 36.13 123.76 26.33 125.72 24.71 124.8 26.85 121.39 36.13"/><polygon class="cls-49" points="119.02 36.78 121.39 26.16 124.28 24.71 122.72 26.62 119.02 36.78"/><polygon class="cls-49" points="116.02 37.42 119.25 26.56 121.39 24.71 122.03 24.71 120.58 26.85 116.02 37.42"/><polygon class="cls-49" points="113.59 38.4 117.18 27.02 120.35 24.71 118.39 27.38 113.59 38.4"/><polygon class="cls-49" points="110.65 39.09 114.69 27.83 118.27 24.94 116.02 28.18 110.65 39.09"/><polygon class="cls-49" points="108.34 40.48 112.15 28.87 116.02 25.35 113.59 29.33 108.34 40.48"/><polygon class="cls-49" points="105.05 41.69 109.9 30.04 113.59 25.93 111 30.42 105.05 41.69"/><polygon class="cls-49" points="102.16 42.62 107.3 30.42 111 27.02 108.63 30.91 102.16 42.62"/><polygon class="cls-49" points="99.73 44.12 105.05 31.99 108.34 28.06 105.97 32.02 99.73 44.12"/><polygon class="cls-49" points="94.77 46.77 100.37 34.53 105.05 29.56 101.35 34.82 94.77 46.77"/><polygon class="cls-49" points="97.42 45.1 102.97 32.91 107.24 28.47 104.04 33.2 97.42 45.1"/><polygon class="cls-49" points="91.48 48.97 97.02 36.78 102.16 31.55 98.23 37.42 91.48 48.97"/><polygon class="cls-49" points="86.51 53.82 88.24 48.97 94.08 38.8 97.71 34.82 94.77 39.55 89.05 49.45 86.51 53.82"/><polygon class="cls-49" points="102.63 29.33 108.91 27.02 108.02 27.73 100.63 31.3 102.63 29.33"/><polygon class="cls-49" points="107.24 26.84 111.96 25.35 114.93 25.35 106.01 27.84 107.24 26.84"/><polygon class="cls-49" points="112.18 24.71 116.02 23.68 120.54 24.19 114.46 24.94 112.18 24.71"/><polygon class="cls-49" points="120.17 23.27 125.22 24.31 121.25 24.31 118.27 23.42 120.17 23.27"/><polygon class="cls-49" points="125.22 23.79 131.09 24.31 127.38 24.31 123.4 23.68 125.22 23.79"/><path class="cls-49" d="M132.77,48.22c.19-1.54.44-3.15.77-4.84a69.41,69.41,0,0,1,2.05-7.9L138,30.91v.88l-1.87,4.4c-.36,1.71-.79,3.51-1.3,5.36C134.2,43.93,133.5,46.15,132.77,48.22Z"/><polygon class="cls-49" points="133.77 49.77 136.98 37.36 138.38 33.39 138.02 32.26 136.07 36.54 133.77 49.77"/><polygon class="cls-49" points="137.71 30.04 134.57 35.23 131.7 45.75 135.59 35.48 137.86 30.53 137.71 30.04"/><polygon class="cls-49" points="130.66 42.73 134.78 31.99 137.43 28.47 137.71 29.33 135.39 32.84 130.66 42.73"/><polygon class="cls-49" points="130.17 41.43 134.41 30.53 137 27.54 137.26 28.1 134.92 31.13 130.17 41.43"/><polygon class="cls-49" points="135 50.85 136.87 38.4 138.38 34.08 138.72 35.14 137.71 38.69 135 50.85"/><polygon class="cls-49" points="136.53 52.95 137.71 40.63 138.89 35.6 138.89 37.16 138.38 41.02 136.53 52.95"/><polygon class="cls-49" points="129.51 39.83 134.29 29.33 136.81 26.94 136.86 27.38 134.78 29.87 129.51 39.83"/><polygon class="cls-49" points="129.19 38.59 133.77 28.88 136.36 26.43 136.53 26.94 134.01 29.48 129.19 38.59"/><polygon class="cls-49" points="139.66 36.76 144.72 52.72 141.4 39.39 139.66 35.45 139.66 36.76"/><polygon class="cls-49" points="139.25 32.71 142.19 36.13 146.34 48.22 141.5 36.58 139.25 33.39 139.25 32.71"/><polygon class="cls-49" points="139.42 34.08 141.95 38.34 145.9 50.26 141.4 38.34 139.42 35.03 139.42 34.08"/><polygon class="cls-49" points="138.89 31.19 142.4 35.17 147.35 43.41 141.91 35.45 138.89 32.26 138.89 31.19"/><polygon class="cls-49" points="138.72 30.04 143.26 34.08 147.97 42.17 142.66 34.48 138.72 30.61 138.72 30.04"/><polygon class="cls-49" points="138.72 29.08 144.51 34.08 147.97 40.26 144.09 34.3 138.72 29.7 138.72 29.08"/><polygon class="cls-49" points="139.06 38.59 139.42 40.46 138.53 55.97 138.38 43.76 139.06 38.59"/><polygon class="cls-49" points="138.38 27.81 143.35 31.99 148.42 39.36 143.77 31.19 137.86 26.94 138.38 27.81"/><polygon class="cls-49" points="136.07 25.98 133.19 28.26 128.45 36.78 133.71 28.62 136.32 26.23 136.07 25.98"/><polygon class="cls-49" points="137.26 26.43 143.12 30.04 147.75 36.42 150.34 38.59 143.35 29.33 137.17 26.14 136.86 25.98 137.26 26.43"/></g></g></g></g></svg>