<svg xmlns="http://www.w3.org/2000/svg" viewBox="0 0 1174 577"><defs><style>.cls-1{fill:#191919;}.cls-2{fill:#606060;}.cls-3{fill:#d3d3d3;}.cls-4{fill:#fea05d;}</style></defs><g id="i"><rect class="cls-1" x="227" y="248" width="57" height="193"/><circle class="cls-1" cx="255.5" cy="188.5" r="30.5"/></g><g id="n2"><path class="cls-1" d="M878,578.5q.5,57,1,114H826v-108c-2-33-16-45-36-45-21.44-2-43,16.38-44,41.24,0,1.24,0,2.49,0,3.76v108H686v-193h60V514c1-.86,2-1.68,3-2.49,20.87-16.41,71-20.68,100.48.16S878,578.5,878,578.5Z" transform="translate(-373 -251.5)"/></g><g id="n"><path class="cls-1" d="M1095,578.5q.49,57,1,114h-53v-108c-2-33-16-45-36-45-21.44-2-43,16.38-44,41.24,0,1.24,0,2.49,0,3.76v108H903v-193h60V514c1-.86,2-1.68,3-2.49,20.87-16.41,71-20.68,100.48.16S1095,578.5,1095,578.5Z" transform="translate(-373 -251.5)"/></g><g id="circkel"><path class="cls-2" d="M1051,522.86a8.36,8.36,0,0,1-6.64,8.14,9.18,9.18,0,0,1-1.67.17,8.29,8.29,0,0,1-8.07-6.39,1.22,1.22,0,0,1-.06-.26,8.3,8.3,0,1,1,16.44-1.66Z" transform="translate(-373 -251.5)"/></g><g id="pin"><rect class="cls-3" x="1066.01" y="422.8" width="16.64" height="103.21" transform="translate(53.32 -756.55) rotate(32.69)"/><polygon class="cls-3" points="656.6 292.62 661.53 277.23 666.46 261.85 673.46 266.34 680.46 270.83 668.53 281.73 656.6 292.62"/><path class="cls-4" d="M1170.22,475.63l-132.48-85c16.11-24.17,58.26-25,94.58-1.66S1185.47,450.92,1170.22,475.63Z" transform="translate(-373 -251.5)"/><path class="cls-4" d="M1157.42,251.5l89.4,57.36c-9.85,14.72-37.48,14-62-1.75S1148.15,266.59,1157.42,251.5Z" transform="translate(-373 -251.5)"/><rect class="cls-4" x="1124.56" y="288.76" width="65.27" height="122.86" transform="translate(-0.63 -820.97) rotate(32.69)"/></g><g id="overlay"><path class="cls-1" d="M1048.44,528.84V546.5h-19a5.61,5.61,0,0,0-1.46-1.19V524.78h6.62a8.29,8.29,0,0,0,8.07,6.39,9.18,9.18,0,0,0,1.67-.17A8.25,8.25,0,0,0,1048.44,528.84Z" transform="translate(-373 -251.5)"/></g><g id="e"><path class="cls-1" d="M1311.77,571a98.57,98.57,0,0,0-5.32-14.07,99.92,99.92,0,1,0,9.39,41.3l-47,21.92c-3.4,12.9-13.62,25.11-28.44,32s-30.74,6.89-42.81,1.21c-.78-.37-1.53-.76-2.28-1.17a35.82,35.82,0,0,1-4.87-3.24,32.54,32.54,0,0,1-9-11c-.15-.29-.29-.58-.43-.88a32.54,32.54,0,0,1-1.64-4.33Zm-121.39-26.81c23.26-10.85,49.14-4.68,58.06,13.75l-84.85,39.56C1155.22,578.78,1167.13,555,1190.38,544.15Z" transform="translate(-373 -251.5)"/></g><g id="d"><path class="cls-1" d="M1490,412.5V515.68a96.5,96.5,0,1,0,0,160.64V692.5h57v-280ZM1437.5,640a44,44,0,1,1,44-44A44,44,0,0,1,1437.5,640Z" transform="translate(-373 -251.5)"/></g><g id="p"><path class="cls-1" d="M479.5,499.5A96,96,0,0,0,432,512V499.5H373v329h59V680A96.51,96.51,0,1,0,479.5,499.5Zm1,140.5a44,44,0,1,1,44-44A44,44,0,0,1,480.5,640Z" transform="translate(-373 -251.5)"/></g></svg>