<svg xmlns="http://www.w3.org/2000/svg" viewBox="0 0 2114.02 1421.72"><defs><style>.cls-1{fill:#bdbcbc;}.cls-2{fill:#a2a1a1;}.cls-3{fill:#737373;}.cls-4{fill:#454545;}</style></defs><g id="Layer_2" data-name="Layer 2"><g id="Layer_1-2" data-name="Layer 1"><g id="Fabriek"><path class="cls-1" d="M2016.6,0V94.94h-406V0h-99.11V94.94l-411.75-3.6V0h-82.89V94.94l-910-1.21V0H0V1421.72H106.87V815.79l408.53-1.46-7.3,607.39h87.43l2.71-607.39,416.81,1.46v605.93h67.2V817.25l428.06,1.35v603.12h83.18L1593,818.86l419.54,1.32-11.33,601.54H2114V0ZM303.22,626.4H107V474.56H303.22Zm0-172.57H107v-152H303.22Zm0-175.9H107V130.19H303.22ZM519.4,626.4H322.08V474.56H519.4Zm0-172.57H322.08V299.66H519.4Zm0-175.9H322.08V130.19H519.4ZM799.65,626.81H603.39V475H799.65Zm0-172.57H603.39v-152H799.65Zm0-175.89H603.39V130.61H799.65Zm216.18,348.46H818.5V475h197.33Zm0-172.57H818.5V300.08h197.33Zm0-175.89H818.5V130.61h197.33Zm276.8,348.46H1098.32V475h194.31Zm0-172.57H1098.32V300.08h194.31Zm0-169.57H1098.32V130.61h194.31Zm217.68,342.14H1313.08V475h197.23Zm0-172.57H1313.08V300.08h197.23Zm0-169.57H1313.08V130.61h197.23ZM1789.08,626H1592.82V474.14h196.26Zm0-172.57H1592.82v-152h196.26Zm0-175.89H1592.82V129.78h196.26ZM2005.26,626H1807.94V474.14h197.32Zm0-172.57H1807.94V299.24h197.32Zm0-175.89H1807.94V129.78h197.32Z"/><path class="cls-2" d="M881.89,714.15l-77.16-.39.4-54.44L814.92,626l-.39-87.73-25.85.78.39-38h-5.49L784.37,0H774.19V501.09h-7.45l.79,38.39-57.18-.79V500.31H703.3L703.69,0h-9v501.1h-5.47v38.81h-23v96.76l8.2,30.61v48.82l-76.22-1.28v23.38l48.22,55.71-6.84,411.16,41.66.28v-24.87h-7.69l3-341.26,30.37.15,70.38,263.34h25.23v18.17l3.31-.15V1180h-8.14l.25,19.11h58.17V1180h-7.87v-61h4.31v-16.51h13.72v-86.62h8.89v-9.4h-8.89l-.25-8.12-28.23.52L838,840.27H848.6l-.78-31.33h8.61l-2.35-51.31,27.81-21.15Zm-79.6,281.52h-9.47l.15-20.53H780.38l-.49-108.27h4.48v-19.4h11.2V839h6.72Z"/><path class="cls-2" d="M1537.3,0l-.66,50.25,12.86.33.33,474.14-6.26.33.66,36.59-24.73.33v95l9.56,24.07-.66,53.42h-76.49v21.76l26,18.46-.33,54.41h7.59l-.66,29.34,10.88-.33v153h-9.89V1016l-17.81-.33v6.6h-8.57v9.89h8.24v50.11a86.39,86.39,0,0,0-64.74,42.61v105.53l295.09.22,13.43-176.89-2.29-276.11,25.89-20.18V736.14h-75V683.23l10-30.08-1.41-91.34-24.52.17V524.85l-5.92,0V50.46l2.5-.1V63.82l71.77-.29.36,451.06-19.07,19.72,18.1,21.17h-4.85v23.27l16.16.16,1.14,10.8c.79.16,5,1.13,7,5,.14.26,2.51,5,.11,7.4-1.52,1.51-4.13,1.31-5.78.6a7.3,7.3,0,0,1-4.05-7.09l-5.07-3.75c-1.24,9.55,3.51,17.22,9.43,18.54a10.84,10.84,0,0,0,9.92-3.24c5.23-5.65,1-14.69.71-15.3a17.11,17.11,0,0,0-6.21-6.86v-5.53h17.69l.37-24.69h-4.8l17-19.53-16.59-19.9-.37-450.72,93.61.56V50.64l30-.94V92.8h48.26V50.64H1941V0ZM1467,1124.15l-52,.6a80.62,80.62,0,0,1,52-30Zm179.74-265.43h10.56v81.6h-10.56Zm-94.41,133.84-11.08-.4v19.75h-11.09V858.72h6.45V868l12.09-.41v18.14h3.63Zm76.64-467.08h-5.51v37.35h-59V525.48h-6.79V51h71.73Zm107.19-20.23-9.37-9.37-7.81,9.37,1.5-441.15h15.68Z"/><path class="cls-2" d="M267.67,0V43.94a38.89,38.89,0,0,0-9.31,8.7,40.79,40.79,0,0,0-8.12,22.83V322.76h-6.63v47.3H212.45V482.9l11.76,43.34.23,62H129.33v24.85l33.13,28.15-1.66,64h64.08l.47,123.39h11.83L237.56,933H226.74l.37-58.19-44.39,39.54V933H170v8.21H148.39v44.44L265,1057.07,388.67,1073v50h72.86V930.58l-35.12-179.9V740H439.8l-1.12-35.11h9.47V638.56l32.32-25.63V586.74l-96.4-.55,1.12-59.63,12.26-42.34v-10l-.56-105.87-30.09.55.56-46.8h-8.92l-.55-144.88a29,29,0,0,1,22.84-15.6h73.76L454.3,343l-18.52,21.21,16.83,17.84v2.72h-3.43v23.91h16v10.94c4.43.83,7.43,3.82,7.49,6.8a5.72,5.72,0,0,1-2,4.39,5.38,5.38,0,0,1-4.26,1.23c-2.95-.61-5.28-5.56-5-12.28a5.62,5.62,0,0,0-3.82,1.55c-3.16,3.31-1.27,12.35,4.66,16.29,4.83,3.22,12.2,3,16.42-1.55,5-5.33,2.71-13.57-.65-17.91a15.13,15.13,0,0,0-6-4.56c-.05-1.67-.1-3.34-.16-5l18.43.15V385l-3.85.08-.08-3.24,15.89-18.43-18.66-21.2.84-180.62h65.16a34.21,34.21,0,0,0,16.84-10.82,33.12,33.12,0,0,0,6-10.91V52.43h23v41.3h50v-44h25.31V0ZM460.35,64.76h18.29v29H460.35ZM264.89,62.6A39.46,39.46,0,0,1,275,51.1h18V93.73H261C260,89.86,257.17,76,264.89,62.6Zm98.33,713.45V751.5h13.06v-9.41h7.31L383,930.58H370.84l.69-20.25h-17.2V776.05ZM454.5,151.9l-78.23,1.88a27.46,27.46,0,0,0-12.18,3.12c-10.31,5.47-13.44,15.93-14.06,18.16V320.47h-8.21l-.7,48.6H268.24l1-47.19-9.57.07v-205H454.53Zm0-58.17H341.82V51.1h30.06v14h82.65Zm23.19,244L469,325.23,460.38,336l0-174.42h18.15Zm.83-186.36-18.2.44V116.9h18.36Zm5.08-57.59v-29h80.85v29Zm80.09,43.64a13.05,13.05,0,0,1-1.75,6c-2.43,4-6.76,5.57-9.08,6.2l-68.43,1.64.16-34.27h79.86A200.49,200.49,0,0,1,563.72,137.37Z"/><path class="cls-2" d="M891.89,1161.93V1119.1h19.5c.6-5.51,8-66,49.85-83.21,4.25-1.75,14.81-6,27.93-4.14,28.66,3.94,45.3,33.2,50.77,42.82a106.77,106.77,0,0,1,9.36,21.84h-10.49a76.72,76.72,0,0,0-10.9-28c-4.56-7.1-14.29-22.23-33-27.39a47.86,47.86,0,0,0-23.6-.5c-13.49,3.2-21.69,11.66-27.29,17.58-20,21.18-24.5,48.46-25.75,60.41l16.18.28v43.68Z"/><path class="cls-2" d="M1213.31,1114.09v-55.81h23.26c.9-2.79,11.66-34.39,40.54-41.56a49.31,49.31,0,0,1,26,.6c17.36,5.32,26.35,19.33,34.12,31.42a111,111,0,0,1,14.54,34.53h23.61v125.15H1326l-2.86-125.15h19a132.89,132.89,0,0,0-14.1-32.67c-6.83-11.33-11.35-18.6-20.75-23.3a40,40,0,0,0-23.83-3.54c-15.11,2.49-24.12,13.41-29.59,20a68.67,68.67,0,0,0-9.4,15h44.72v56.52Z"/><path class="cls-3" d="M777.33,975.92l-26.2.38V806l-57.4.77v34.68l-33.14-.39V708.54h6.55V649.59h-8.86V429.22c-1.54-11.85-10.63-72.7-64.11-110.14a149.78,149.78,0,0,0-66.88-25.48H194.42a481.18,481.18,0,0,0-1.94-57.33C187.61,184,183.07,135.41,148.69,98.5,141,90.28,127.8,78.25,106.57,68.22H.36v36.6H106.19a97.22,97.22,0,0,1,13.37,9.3c11.74,9.72,26,26.28,37.6,65.7,12.62,43.07,13.24,83.68,11.44,111.86H.36L0,301.31H168.6l-.38,38.53H.36v8.88H169l-.39,463.46A188.84,188.84,0,0,1,154,878.07a185.23,185.23,0,0,1-8.46,17.32V840.3l4.62.39-.38-40.46h-17l.39,40.46h5.39l-.38,30H110.43v22.73l-26.2.38v-49.7L90,826.82v-99l-74-.38.38,99,6.17,20.81-.77,45.84H.36L0,979.38H19.12v16.49h67V980.15l20-1.15,7.32-2.7v9.32h24.27v-24a234.2,234.2,0,0,0,31.43-47c22.29-44.13,25.54-85.66,25.36-110.28-.44-62.65,3.92-230,0-455.66l95.54.57s12.88,2.64,19,4.25a94.31,94.31,0,0,1,29,13.42c2.45,1.64,13.31,9.11,25.11,24.72,20.12,26.61,28.35,57.56,31.71,73.59l1.4,185.55H387v58h7.47l-1.25,167.15h8v10.34l5.62.09V997.88h31.61V886.36l8.17-.65v-9.78h33.91V1101H609.05l-.35,17.44h11.62v44h-7.65V1260h15.05l.32-55,20.22.13.39-43.52-6.55-.39.39-41.61,10.78-.38v-45.85l18.5-.39-.39,61.65H694.5l-.38,70.79,13.55.09v-59l42.69-.19-.38-12.07,27.35-.38Zm-162.48,36.33h-6l-.4,23.5H576.2v-161h32.68v10.76h6ZM609.78,750.5l-.38,33.28H572.68l-.38-63.5,8-34.8.38-140.38L474,545.87l1.15,141.9,8.41,33.28v62.73H445.7l-.39-33.28-40.16.38V709.19h8l-.39-59.28h-9.56l-1.53-186.66c-.9-11.64-5.28-49.21-35.57-82.23a138.13,138.13,0,0,0-70.76-40.93l-101,.39V302.23l334.3.76a147.45,147.45,0,0,1,52.8,20.23c53.7,33.83,67.12,92.51,70,106.76l-.38,220.31h-7.65l-.76,58.9h7.26V750.5ZM695.3,976.18H672.06l-.46,90.14H653.48v-54.83L646,1012q.12-62.78.23-125.53l7.67.07V874.78h6.84q.06-13.65.13-27.31H695.3Z"/><path class="cls-4" d="M.36,505H119.79c15.25,3.22,63.16,15.34,101.72,60,37.69,43.69,43.18,91.53,44.32,107.24V830.74h46v7.09H285.74l44.77,46.26v38.8H157.78l-1.12-38.8,45.14-46.26H100.33v-7.46L220.08,830l.38-148.85c-.84-11.16-5.32-53-39.92-86.56A133.58,133.58,0,0,0,116,560.26L0,561.38Z"/><path class="cls-3" d="M832.74,1199.12V1067.64c7.12-53.53,28.36-94.23,55.68-100.94a46.48,46.48,0,0,1,25.77,1c13.62,5.32,20.06,17.59,29.17,35.56a212,212,0,0,1,17.38,48l-26.29.44v110.79l68.52.82V1050.4H972.8c-.67-6-9.35-75-54.48-94.05-5.54-2.34-19.45-8.2-35.59-4.21-3.86,1-18.27,5.06-35,28.09-23,31.72-27.34,67.63-28,88.7v130.19Z"/><polygon class="cls-3" points="1071 1190.47 1104.17 1190.47 1104.17 1083.27 1164.47 1083.27 1164.47 1160.62 1123.48 1160.62 1122.96 1230.42 1071 1230.42 1071 1190.47"/><path class="cls-3" d="M2083.49,175.66a315.35,315.35,0,0,1,30.18-120.23q.18-27.7.35-55.43a143.7,143.7,0,0,0-14.57,16.07c-11.17,14.37-20.63,32.25-30.46,71.59a524.07,524.07,0,0,0-14,86.52l-.33,220.14-242.35-.57c-12,.81-56.18,5.24-93.46,41.51-33.33,32.42-41,70.71-42.94,83.41q-.24,103.46-.49,206.92h-2.15l.3,46.42h5.62v103.5l-28.69.29V848.6h-46.42l.29,133.36h-22.77v124.49l22.77-.59v29.57l-116.25.27v-11.79l-92.44,1.06v83.45H1361V1101.05H1225.58v137.44h230.9l-.13-88.07,147.66-.93-.31,20.12h46.13v-63.77l19.81-.31v-46.74l14.86-.31-.31,36.22,10.22-.31-.31,34h-5l.89,52.37-22.25-.36v50.2l177.08-.05-1.35-49.34-16.59.18.72-70.53-77-.18.72,69.63-34.09.18.18-20.8v-31.45h-5.26l-.21-33.49h9l.44-15.53,135,.43-.22,15h7.93l-1-47.36-3.75-18.36-30.53-.88-.22-125.41,17.13-.27.18-5.11h18.75v-5.45h8.23l.28-86.18h-17l.27,25.07h-30.8l.27-48,7.91-27v-112h-88.58l-.55,112,7.36,24.47-.16,51.88-30.77.43,0-26.55-33.56.17V772.27h6.06l.13-46-11.89-.4q.39-104.18.77-208.35c2.54-11.94,14-58.7,58.4-90A144.7,144.7,0,0,1,1812,401.94l242.66-.65q0,32.82-.1,65.65h-17.45v4.92H2055l-1.06,75.47V891.62l60.1,89.69V921.6a302.37,302.37,0,0,1-18-45.3,306.4,306.4,0,0,1-13.36-94.3q.09-117.35.2-234.67l-.22-75.69,31.38.21V465l-31.16.64V401.21L2114,401v-7.25h-31.16ZM1715.91,910.59h5.37l.57-8.48h27.45V1028.3h-27.45v-18.67h-5.94Zm-30.75-7v8h4.62v98.59h-5.46v43.63h-14V982h-19.51V881.33h28.11v22.23Z"/><path class="cls-4" d="M2113.67,1260.8h-12.48v-98.54l-11.82.3.3-40.32-8.79.3-.3-75.19,4.55-.6-.31-21.83,14.56.6-.31-106.11,8.79.3v-14h-8.79v-7.27l-18.19.3v-7h-10l-.31-190.71,10.92-.3.6-36.39h5.76V599.84l25.82-25.46V547.09l-76.15.3.31-62.46,8.79-41.53v-114h-24.86V283.31h-5.16V0h-7.88V282.1l-7.27.61v47l-57.91.61V282.4h-7.28V0h-7.88l.6,283h-6.36V329.1h-24.26l.3,115.81,9.4,40.63v60.94l-77-1.21-.3,27.29,26.07,25.77-.3,65.79h7.58l.3,36.08h9.1l-.61,191.62h-8.23v5.45h-18.75l-.3,8.8H1838V918.8h7.88l-1.09,105.52,14.62.78-.52,22.2h4.18l1.56,73.37-8.35.26v41h-12.8v29.51h-55.35v39.17l-21.41.52v-80.95l-46.48-.52v10.19a29.75,29.75,0,0,0-17.12,3.71c-14.07,8.14-14.75,25.25-14.78,26.72a32.76,32.76,0,0,0,8.14,22.39c9.8,10.9,23.36,10.69,25.33,10.63v7l-89.31.52v-39.43H1517.38v-44.91l-24-.26c-5.88-41.21-30.4-74.28-64.1-85.56-4.67-1.57-26.46-8.39-50.35-.5-39.32,13-66.69,60-66.76,117.13l-68.93,1.83V1114.4h-23a113.73,113.73,0,0,0-32.86-56.38c-6.79-6.29-33-29-72.8-29.69a111.84,111.84,0,0,0-56.21,14.68c-31.19,17.74-44.46,45.1-48.59,54.68l-38.64-.78V1163l-99.75-1.31L873,1199l-85.91.26v38.91H765.64v-91.91l-58,.26v59L628,1205l-1.83,54.83-17.55.26.44-38.37-48.65-.33s.15,12.77.48,39.22H541.08l.79-23.76H531.68l-.78-43.34a116.91,116.91,0,0,0,38.4-3.3c13.16-3.39,38.4-9.9,52.77-32.44,3.27-5.13,10.54-16.9,9.14-32.41-1.31-14.49-9.46-24.16-14.45-29.92-21.65-25-54.89-27.63-64.45-28v-42.56H503.22L465.1,1037.9l-28.46-.27,30-64V930.58H370.84l-.52,43.08,31.51,64.46-20.13.25v18.1H368.93v-5.54l-16.26-.11v5.65H347.5v-5.54l-15.83-.22v5.76h-3.9v-5.54H311.94v5.54h-5.28v-5.33l-15.44.18v5.15H287v-5.39h-3.27v-35.49H305v-7.1H284.5V995.87H274.24V985.62H260.05v10.25H246.64V985.62H96v10.25H.36L0,1421.72H2114ZM438.44,1123H283.81v-44.31h2.39v-3.91h5.86v4.13l14.12.22v-4.35h5.43v4.35h15.64v-4.35h4.12v4.57h15.86v-4.57h5.43v4.78l16.07-.21v-4.57h12.16v28l24.76.22,16.72,15.64h16.07Zm84.47-4.38h31.17v-40.8c7.15.1,35.9,1.32,55,23.23,4.57,5.25,14.82,17,13.6,32.59-1.3,16.49-14.71,26.91-22.38,32.87-26,20.2-57.61,18.29-69.14,17q.14-30.26.28-60.51h-8.5Zm665.65-4.66v46.7h-65.08l-.52,69.81h-52V1096.06l-44.09,1a93,93,0,0,1,87.65-51.43,95.08,95.08,0,0,1,91.32,68.23Zm266.33,32.42v92.16H1349.51V1177.2l-17.17-.08c.21-6.29,3-66.08,45.81-89a72.33,72.33,0,0,1,25.15-7.91,55.56,55.56,0,0,1,13.81,1.65c37.85,9.44,53.33,56.43,55.86,64.49ZM2012.52,733.9h4v-23h12.55V700.75h6.72V891.62h-11.65v-22.4h-11.65Zm-104-33.15h6.72v10.11h12.55v23h4V869.22h-11.65v22.4h-11.65Zm130.26,421.74h-7.62v41.18h-13.73v-65.58h-90.37v65.58H1913l0-41.18h-8.77v-75.87l4.19-.38v-20.59h126.21v20.59h4.19Z"/></g></g></g></svg>