<svg xmlns="http://www.w3.org/2000/svg" xmlns:xlink="http://www.w3.org/1999/xlink" viewBox="0 0 467.44 527.33"><defs><style>.cls-1{fill:#ded4a4;}.cls-2{fill:#2054a2;}.cls-3{fill:#1d4c91;}.cls-4{fill:#3c75bb;}.cls-5{fill:#fff;}.cls-6{fill:#2a190e;}.cls-7{fill:#c1b678;}.cls-8{fill:url(#radial-gradient);}.cls-9{fill:#dacd63;}</style><radialGradient id="radial-gradient" cx="233.14" cy="24.43" fx="254.8383488971381" r="43.21" gradientTransform="translate(282 -208.71) rotate(90) scale(1 2)" gradientUnits="userSpaceOnUse"><stop offset="0.09" stop-color="#1d1d1b"/><stop offset="0.21" stop-color="#22211e"/><stop offset="0.34" stop-color="#2f2e28"/><stop offset="0.48" stop-color="#464438"/><stop offset="0.62" stop-color="#66624e"/><stop offset="0.77" stop-color="#8f886b"/><stop offset="0.92" stop-color="#c0b68e"/><stop offset="1" stop-color="#dfd4a4"/></radialGradient></defs><g id="Layer_2" data-name="Layer 2"><g id="Layer_1-2" data-name="Layer 1"><path class="cls-1" d="M429,344.75c-2.21,58-102.69,117.87-196.43,117.86C139,462.61,38.58,403,36.09,344.75c-2.35-55.06,82.09-124.23,82.11-124.26l32.83,17c69.11-10.38,74.18-10.59,81.5-10.59,0,0,29,0,81.62,10.62l31.73-16.09S431.05,289.93,429,344.75Z"/><g id="Belly"><ellipse class="cls-2" cx="233.14" cy="365.79" rx="149" ry="89.4"/><ellipse class="cls-3" cx="234.5" cy="369.57" rx="126.83" ry="76.1"/><ellipse class="cls-4" cx="233.14" cy="414.92" rx="70.86" ry="30.75"/><ellipse class="cls-5" cx="162.27" cy="325.95" rx="15.12" ry="6.56" transform="translate(-129.3 107.87) rotate(-26.74)"/></g><path class="cls-1" d="M326.15,238.79A11,11,0,0,1,326,241c-1.58,8.16-11.79,12.53-15.59,14.15-21.24,9.07-161.56,24.29-169.86-13.4a15.77,15.77,0,0,1-.38-3,214.41,214.41,0,0,1,5.5-31.12c13.14-51.72,38.85-67.82,44.3-99.4,3.17-18.42,1.35-46.35-25.33-84.16H301.68C275,61.92,273.19,89.85,276.36,108.27c5.43,31.59,31.17,47.69,44.3,99.4A212.74,212.74,0,0,1,326.15,238.79Z"/><path class="cls-6" d="M314.06,247.42l-162.44-1.06c.29-10.79,2.61-32.94,18.71-50.68a66.14,66.14,0,0,1,8.72-8H286a66.89,66.89,0,0,1,8.72,8C311.16,213.71,313.69,236.24,314.06,247.42Z"/><path class="cls-7" d="M318.8,200.92c.17.5.41,1.24.65,2.14a35.84,35.84,0,0,1,.91,5.23c.27,3.27-3.61,15.49-8.57,21.4-14.74,17.55-60,16.86-79.44,16.4-13.28-.31-58-2-75.35-18.91-6.79-6.59-11-17.43-10.61-20.39a56.14,56.14,0,0,1,1.2-6.15c.15-.59.28-1.06.36-1.34-30.39,8.32-33.48,16-33.63,19.49-.54,12.71,35.86,28.06,58.94,35l1.13.33c22.25,6.55,71.46,17.23,126.8-1.86.84-.29,2.3-.79,4.19-1.48,2.16-.78,47.64-17.9,46.57-31.94C351.24,209.49,330.26,203.54,318.8,200.92Z"/><ellipse id="Mond" class="cls-5" cx="232.52" cy="235.01" rx="5.51" ry="8.29"/><g id="Linker_oog" data-name="Linker oog"><path class="cls-5" d="M212.52,196.61a12,12,0,1,1-23-4.53"/><path class="cls-5" d="M189.49,192.08a12,12,0,0,1,23,4.53"/><circle cx="200.56" cy="196.61" r="8.17"/></g><g id="Rechter_oog" data-name="Rechter oog"><circle class="cls-5" cx="264.48" cy="196.61" r="11.96"/><circle cx="264.48" cy="196.61" r="8.17"/></g><path class="cls-8" d="M191.71,6.3a140.78,140.78,0,0,1,73.15-2.73c7,1.61,38.33,8.85,38.39,19.14,0,5.15-7.6,9.34-18.59,14.13s-28,10.52-51.61,12a124.85,124.85,0,0,1-32-4.43c-3.12-.85-38.35-10.52-38-21.72C163.26,15.23,181.52,9.46,191.71,6.3Z"/><path class="cls-9" d="M310.24,177.56a151.07,151.07,0,0,1-154.13-.17c2.43-5.43,5.19-11.11,8.32-16.95a269.05,269.05,0,0,1,14.93-24.62,115.53,115.53,0,0,0,107.1-.8c4.16,6.45,8.38,13.41,12.56,20.89S306.93,170.63,310.24,177.56Z"/><path class="cls-9" d="M277,111.57a88.73,88.73,0,0,1-87.9.64,86.41,86.41,0,0,0,.78-31.68,88.09,88.09,0,0,0,43,11.72,88.17,88.17,0,0,0,43.36-11,83.78,83.78,0,0,0,.74,30.33Z"/><path class="cls-6" d="M13.52,299.52A126.85,126.85,0,0,0,0,339.53a27.45,27.45,0,0,0,19.85-7.64,27.08,27.08,0,0,0,7.8-17c5.31,6.11,8.29,7.46,10,6.74,7.33-3.09,2.12-31.7,2.21-23.75h0L97.5,267.31h0S126.44,240,122.32,233c-3.11-5.34-24.94,1.27-37.83,6.44C70.75,244.94,34.86,260,13.52,299.52Z"/><path class="cls-6" d="M453.93,299.52a126.88,126.88,0,0,1,13.51,40,26.53,26.53,0,0,1-27.65-24.62c-5.3,6.11-8.29,7.46-10,6.74-7.33-3.09-2.12-31.7-2.21-23.75h0l-57.64-30.59h0S341,240,345.12,233c3.12-5.34,24.94,1.27,37.83,6.44C396.69,244.94,432.58,260,453.93,299.52Z"/><path class="cls-6" d="M137.5,443.8A111.16,111.16,0,0,0,149,485.57c-4.66,3.7-8.6,6.41-11.26,8.16-6.14,4-8.89,5.19-11,8.88a15.37,15.37,0,0,0-2.06,9.05c1,8.53,10.53,15.13,19.42,15.64a21.82,21.82,0,0,0,12.19-3.1c3.23-5.45,6.92-11.21,11.16-17.16,2.13-3,8.46-8.07,12-15.54a11,11,0,0,0,1.26-5.54c-.25-4.41-3.42-7.45-4.7-8.55a41.1,41.1,0,0,0,11.71-19.08Z"/><path class="cls-6" d="M328.08,443.8a111.16,111.16,0,0,1-11.54,41.77c4.65,3.7,8.59,6.41,11.26,8.16,6.13,4,8.88,5.19,11,8.88a15.29,15.29,0,0,1,2.06,9.05c-1,8.53-10.53,15.13-19.42,15.64a21.82,21.82,0,0,1-12.19-3.1C306,518.75,302.32,513,298.09,507c-2.14-3-8.46-8.07-12-15.54a11,11,0,0,1-1.26-5.54c.25-4.41,3.43-7.45,4.7-8.55a41.18,41.18,0,0,1-11.7-19.08Z"/></g></g></svg>